/* XPM */
static char * diff_xpm[] = {
"20 20 5 1",
" 	c None",
".	c #000000",
"+	c #FFFFFF",
"@	c #7A6700",
"#	c #FFEC8B",
"                    ",
"                    ",
"                    ",
"         ..         ",
"         ..         ",
"        .+@.        ",
"        .+@.        ",
"       .+##@.       ",
"       .+##@.       ",
"      .+####@.      ",
"      .+####@.      ",
"     .+######@.     ",
"     .+######@.     ",
"    .+########@.    ",
"    .+########@.    ",
"   .@@@@@@@@@@@@.   ",
"   ..............   ",
"                    ",
"                    ",
"                    "};
