/* XPM */
static char * fish16_xpm[] = {
"16 16 66 1",
" 	c None",
".	c #93A794",
"+	c #239E94",
"@	c #56D6D6",
"#	c #6AD6D2",
"$	c #76D6D6",
"%	c #2AC2C2",
"&	c #3AD2D2",
"*	c #12D2CE",
"=	c #06E2DA",
"-	c #22E6E2",
";	c #16F7F7",
">	c #3AEDE6",
",	c #82D6D6",
"'	c #5B7262",
")	c #129E8A",
"!	c #21A6A2",
"~	c #2ECAC6",
"{	c #32CECE",
"]	c #48D6D6",
"^	c #62E2D6",
"/	c #82EBEB",
"(	c #80AEA4",
"_	c #729A92",
":	c #1EB2B2",
"<	c #1AAAA6",
"[	c #26BEBA",
"}	c #061616",
"|	c #5C5147",
"1	c #22AE8A",
"2	c #145654",
"3	c #2B625D",
"4	c #1EBEBA",
"5	c #103938",
"6	c #399696",
"7	c #725E4E",
"8	c #124542",
"9	c #C09268",
"0	c #D28E5E",
"a	c #DEAE7A",
"b	c #DEB27E",
"c	c #E2B682",
"d	c #7A9282",
"e	c #664A3A",
"f	c #92DEDB",
"g	c #E2BA8A",
"h	c #439F97",
"i	c #3A827E",
"j	c #A8DCD5",
"k	c #E5C293",
"l	c #B29272",
"m	c #42726A",
"n	c #328286",
"o	c #629687",
"p	c #526652",
"q	c #EDD2B3",
"r	c #DAAA76",
"s	c #568A7A",
"t	c #BE8A5E",
"u	c #F1DBBC",
"v	c #D29E6A",
"w	c #D6A26F",
"x	c #927E6E",
"y	c #DAB696",
"z	c #664532",
"A	c #473E34",
"                ",
"      .+@#$#    ",
"     %&*=-;>,'  ",
"   )!%~{&]]^/,( ",
"  _:<[%}|12     ",
"  345      6  77",
" 8   999 636 90a",
"   9bcab6d63 be ",
"  9f3gch/ij3ga9 ",
" 9a33kblmnopbb  ",
" 9gqqcgrasstga9 ",
"  tbturggbvwbrx ",
"   tycccvt  tgza",
"     979     9vA",
"                ",
"                "};
