/* XPM */
static char * grid16_xpm[] = {
"16 16 234 2",
"  	c None",
". 	c #E2E6E5",
"+ 	c #E3E6E5",
"@ 	c #E4E6E5",
"# 	c #E8E4E4",
"$ 	c #E5E5E4",
"% 	c #E4E7E4",
"& 	c #E0D8D8",
"* 	c #CBBFC3",
"= 	c #E4DCE1",
"- 	c #E6E6E4",
"; 	c #E3E6E8",
"> 	c #E6E5E4",
", 	c #E5E5E5",
"' 	c #E6E4E5",
") 	c #E4E4E7",
"! 	c #E8E2E3",
"~ 	c #C7BBB0",
"{ 	c #957E6D",
"] 	c #785E59",
"^ 	c #B2999A",
"/ 	c #BB9D9E",
"( 	c #CBB3BC",
"_ 	c #E6DBDE",
": 	c #E6E3E3",
"< 	c #E4E5E4",
"[ 	c #E4E5E5",
"} 	c #E3E7E5",
"| 	c #E6E5E5",
"1 	c #E9E4E5",
"2 	c #D3C6C7",
"3 	c #8C6A6D",
"4 	c #946163",
"5 	c #946C64",
"6 	c #887667",
"7 	c #8A7969",
"8 	c #A68472",
"9 	c #916A6B",
"0 	c #8C6F71",
"a 	c #C3ADAD",
"b 	c #C9B7B7",
"c 	c #E3D6DA",
"d 	c #DFDDDB",
"e 	c #B59DA3",
"f 	c #9B8080",
"g 	c #826466",
"h 	c #968577",
"i 	c #926364",
"j 	c #885058",
"k 	c #754C54",
"l 	c #936E66",
"m 	c #99716A",
"n 	c #856963",
"o 	c #AC7A7C",
"p 	c #C09397",
"q 	c #B1767B",
"r 	c #ECDBDC",
"s 	c #E1E9E4",
"t 	c #AA7D87",
"u 	c #945060",
"v 	c #984D58",
"w 	c #9B707D",
"x 	c #906162",
"y 	c #8A6856",
"z 	c #785352",
"A 	c #99838E",
"B 	c #9D7D84",
"C 	c #986F7A",
"D 	c #92717E",
"E 	c #937D71",
"F 	c #C1988D",
"G 	c #CFA194",
"H 	c #ECE0DA",
"I 	c #E9E2E3",
"J 	c #C2A4A8",
"K 	c #A1787A",
"L 	c #84746F",
"M 	c #9C6D81",
"N 	c #8A345E",
"O 	c #794747",
"P 	c #836258",
"Q 	c #9A6D74",
"R 	c #8E696F",
"S 	c #846955",
"T 	c #BD686F",
"U 	c #CE988C",
"V 	c #AB8576",
"W 	c #BF9F8D",
"X 	c #E7DDD7",
"Y 	c #E8E4E5",
"Z 	c #BE9FA2",
"` 	c #9B6367",
" .	c #B1918A",
"..	c #646647",
"+.	c #AB6576",
"@.	c #9E767B",
"#.	c #856D73",
"$.	c #917D88",
"%.	c #A0818E",
"&.	c #9D816D",
"*.	c #A5837A",
"=.	c #AB8875",
"-.	c #B3917C",
";.	c #BAA38E",
">.	c #EAE1DB",
",.	c #E6E6E5",
"'.	c #C2A4A7",
").	c #AD8A91",
"!.	c #A5767C",
"~.	c #93795E",
"{.	c #947E6E",
"].	c #9B7071",
"^.	c #A69D8F",
"/.	c #B999A5",
"(.	c #A17076",
"_.	c #AC9988",
":.	c #AF8181",
"<.	c #A77975",
"[.	c #BD9280",
"}.	c #B7947C",
"|.	c #EDE2E0",
"1.	c #B78A98",
"2.	c #A57887",
"3.	c #986F7C",
"4.	c #A76B78",
"5.	c #986E7C",
"6.	c #AC978C",
"7.	c #885762",
"8.	c #C4B4B6",
"9.	c #95897D",
"0.	c #C19792",
"a.	c #B8A396",
"b.	c #B88180",
"c.	c #BCA699",
"d.	c #CEB09C",
"e.	c #EAE2E2",
"f.	c #E3E5E8",
"g.	c #CBA5B1",
"h.	c #A97D7E",
"i.	c #896B65",
"j.	c #9F6779",
"k.	c #7C5070",
"l.	c #B48E95",
"m.	c #A78785",
"n.	c #9D7E73",
"o.	c #AE9186",
"p.	c #856563",
"q.	c #A28070",
"r.	c #D29C8D",
"s.	c #9E9180",
"t.	c #C2A999",
"u.	c #E9E2E5",
"v.	c #E5E4EC",
"w.	c #C3AFAD",
"x.	c #9F7969",
"y.	c #B69890",
"z.	c #83696D",
"A.	c #774154",
"B.	c #A67384",
"C.	c #8B7671",
"D.	c #B77B7B",
"E.	c #B57C71",
"F.	c #8A7262",
"G.	c #B6897C",
"H.	c #B49675",
"I.	c #AA9772",
"J.	c #C6AD9A",
"K.	c #E5E2E3",
"L.	c #E8E3E5",
"M.	c #C2AFB5",
"N.	c #B95A5C",
"O.	c #AF393C",
"P.	c #B3A190",
"Q.	c #9E7F75",
"R.	c #A56565",
"S.	c #A68F78",
"T.	c #736261",
"U.	c #BA6775",
"V.	c #9F8179",
"W.	c #A27D76",
"X.	c #B08073",
"Y.	c #9C896D",
"Z.	c #C4AE9F",
"`.	c #E6E4E6",
" +	c #DFE8E0",
".+	c #DEB7CD",
"++	c #A46068",
"@+	c #B18373",
"#+	c #9F766B",
"$+	c #87695D",
"%+	c #AC8B83",
"&+	c #8F6060",
"*+	c #919287",
"=+	c #BD8280",
"-+	c #AD917D",
";+	c #B59981",
">+	c #C79987",
",+	c #D7C7B7",
"'+	c #EAE0DB",
")+	c #E5E5E7",
"!+	c #E1E6E6",
"~+	c #E5DFE5",
"{+	c #CAB4BE",
"]+	c #BE8C9F",
"^+	c #94566B",
"/+	c #9A787E",
"(+	c #A87572",
"_+	c #9E8A72",
":+	c #B4767A",
"<+	c #AC797B",
"[+	c #9E7D6E",
"}+	c #E3CFC4",
"|+	c #E9E3E4",
"1+	c #E6E5E6",
"2+	c #E4E5E8",
"3+	c #EAE1E5",
"4+	c #DBC1CD",
"5+	c #C7A1AA",
"6+	c #B48989",
"7+	c #B88C8E",
"8+	c #B48483",
"9+	c #D1ABA7",
"0+	c #E0D1CB",
"a+	c #E4E5E1",
"b+	c #E5E4E6",
"c+	c #E1E6E5",
"d+	c #E0E5E4",
"e+	c #DED7E1",
"f+	c #CCACB9",
"g+	c #CF9A9D",
"h+	c #E5DEDA",
"i+	c #E6E5E7",
"j+	c #E3E5E5",
"k+	c #E6E4E4",
". + @ # $ % & * = - ; @ $ > + , ",
"' , + ) ! ~ { ] ^ / ( _ : < [ } ",
"+ | 1 2 3 4 5 6 7 8 9 0 a b c @ ",
"$ d e f g h i j k l m n o p q r ",
"s t u v w x y z A B C D E F G H ",
"I J K L M N O P Q R S T U V W X ",
"Y Z `  ...+.@.#.$.%.&.*.=.-.;.>.",
",.'.).!.~.{.].^./.(._.:.<.[.}.|.",
", 1.2.3.4.5.6.7.8.9.0.a.b.c.d.e.",
"f.g.h.i.j.k.l.m.n.o.p.q.r.s.t.u.",
"v.w.x.y.z.A.B.C.D.E.F.G.H.I.J.K.",
"L.M.N.O.P.Q.R.S.T.U.V.W.X.Y.Z.`.",
" +.+++@+#+$+%+&+*+=+-+;+>+,+'+)+",
"L.!+~+{+]+^+/+(+_+:+<+[+}+|+1+2+",
", , , - 3+4+5+6+7+8+9+0+a+b+, , ",
", , , | [ c+d+e+f+g+h+i+j+k+, , "};
