/* XPM */
static char * grid16a_xpm[] = {
"16 16 176 2",
"  	c None",
". 	c #CBBFC3",
"+ 	c #C7BBB0",
"@ 	c #957E6D",
"# 	c #785E59",
"$ 	c #B2999A",
"% 	c #BB9D9E",
"& 	c #CBB3BC",
"* 	c #D3C6C7",
"= 	c #8C6A6D",
"- 	c #946163",
"; 	c #946C64",
"> 	c #887667",
", 	c #8A7969",
"' 	c #A68472",
") 	c #916A6B",
"! 	c #8C6F71",
"~ 	c #C3ADAD",
"{ 	c #C9B7B7",
"] 	c #B59DA3",
"^ 	c #9B8080",
"/ 	c #826466",
"( 	c #968577",
"_ 	c #926364",
": 	c #885058",
"< 	c #754C54",
"[ 	c #936E66",
"} 	c #99716A",
"| 	c #856963",
"1 	c #AC7A7C",
"2 	c #C09397",
"3 	c #B1767B",
"4 	c #AA7D87",
"5 	c #945060",
"6 	c #984D58",
"7 	c #9B707D",
"8 	c #906162",
"9 	c #8A6856",
"0 	c #785352",
"a 	c #99838E",
"b 	c #9D7D84",
"c 	c #986F7A",
"d 	c #92717E",
"e 	c #937D71",
"f 	c #C1988D",
"g 	c #CFA194",
"h 	c #C2A4A8",
"i 	c #A1787A",
"j 	c #84746F",
"k 	c #9C6D81",
"l 	c #8A345E",
"m 	c #794747",
"n 	c #836258",
"o 	c #9A6D74",
"p 	c #8E696F",
"q 	c #846955",
"r 	c #BD686F",
"s 	c #CE988C",
"t 	c #AB8576",
"u 	c #BF9F8D",
"v 	c #BE9FA2",
"w 	c #9B6367",
"x 	c #B1918A",
"y 	c #646647",
"z 	c #AB6576",
"A 	c #9E767B",
"B 	c #856D73",
"C 	c #917D88",
"D 	c #A0818E",
"E 	c #9D816D",
"F 	c #A5837A",
"G 	c #AB8875",
"H 	c #B3917C",
"I 	c #BAA38E",
"J 	c #C2A4A7",
"K 	c #AD8A91",
"L 	c #A5767C",
"M 	c #93795E",
"N 	c #947E6E",
"O 	c #9B7071",
"P 	c #A69D8F",
"Q 	c #B999A5",
"R 	c #A17076",
"S 	c #AC9988",
"T 	c #AF8181",
"U 	c #A77975",
"V 	c #BD9280",
"W 	c #B7947C",
"X 	c #B78A98",
"Y 	c #A57887",
"Z 	c #986F7C",
"` 	c #A76B78",
" .	c #986E7C",
"..	c #AC978C",
"+.	c #885762",
"@.	c #C4B4B6",
"#.	c #95897D",
"$.	c #C19792",
"%.	c #B8A396",
"&.	c #B88180",
"*.	c #BCA699",
"=.	c #CEB09C",
"-.	c #CBA5B1",
";.	c #A97D7E",
">.	c #896B65",
",.	c #9F6779",
"'.	c #7C5070",
").	c #B48E95",
"!.	c #A78785",
"~.	c #9D7E73",
"{.	c #AE9186",
"].	c #856563",
"^.	c #A28070",
"/.	c #D29C8D",
"(.	c #9E9180",
"_.	c #C2A999",
":.	c #C3AFAD",
"<.	c #9F7969",
"[.	c #B69890",
"}.	c #83696D",
"|.	c #774154",
"1.	c #A67384",
"2.	c #8B7671",
"3.	c #B77B7B",
"4.	c #B57C71",
"5.	c #8A7262",
"6.	c #B6897C",
"7.	c #B49675",
"8.	c #AA9772",
"9.	c #C6AD9A",
"0.	c #C2AFB5",
"a.	c #B95A5C",
"b.	c #AF393C",
"c.	c #B3A190",
"d.	c #9E7F75",
"e.	c #A56565",
"f.	c #A68F78",
"g.	c #736261",
"h.	c #BA6775",
"i.	c #9F8179",
"j.	c #A27D76",
"k.	c #B08073",
"l.	c #9C896D",
"m.	c #C4AE9F",
"n.	c #DEB7CD",
"o.	c #A46068",
"p.	c #B18373",
"q.	c #9F766B",
"r.	c #87695D",
"s.	c #AC8B83",
"t.	c #8F6060",
"u.	c #919287",
"v.	c #BD8280",
"w.	c #AD917D",
"x.	c #B59981",
"y.	c #C79987",
"z.	c #D7C7B7",
"A.	c #CAB4BE",
"B.	c #BE8C9F",
"C.	c #94566B",
"D.	c #9A787E",
"E.	c #A87572",
"F.	c #9E8A72",
"G.	c #B4767A",
"H.	c #AC797B",
"I.	c #9E7D6E",
"J.	c #E3CFC4",
"K.	c #DBC1CD",
"L.	c #C7A1AA",
"M.	c #B48989",
"N.	c #B88C8E",
"O.	c #B48483",
"P.	c #D1ABA7",
"Q.	c #E0D1CB",
"R.	c #CCACB9",
"S.	c #CF9A9D",
"              .                 ",
"          + @ # $ % &           ",
"      * = - ; > , ' ) ! ~ {     ",
"    ] ^ / ( _ : < [ } | 1 2 3   ",
"  4 5 6 7 8 9 0 a b c d e f g   ",
"  h i j k l m n o p q r s t u   ",
"  v w x y z A B C D E F G H I   ",
"  J K L M N O P Q R S T U V W   ",
"  X Y Z `  ...+.@.#.$.%.&.*.=.  ",
"  -.;.>.,.'.).!.~.{.].^./.(._.  ",
"  :.<.[.}.|.1.2.3.4.5.6.7.8.9.  ",
"  0.a.b.c.d.e.f.g.h.i.j.k.l.m.  ",
"  n.o.p.q.r.s.t.u.v.w.x.y.z.    ",
"      A.B.C.D.E.F.G.H.I.J.      ",
"          K.L.M.N.O.P.Q.        ",
"                R.S.            "};
