/* XPM */
static char * mini_triangle2_xpm[] = {
"16 16 125 2",
"  	c None",
". 	c #201E1E",
"+ 	c #292425",
"@ 	c #202323",
"# 	c #2C2C2D",
"$ 	c #25272B",
"% 	c #1A1A16",
"& 	c #302C2C",
"* 	c #383836",
"= 	c #2B2729",
"- 	c #1E2020",
"; 	c #333333",
"> 	c #3D3F3D",
", 	c #454345",
"' 	c #363938",
") 	c #2B2B2C",
"! 	c #232326",
"~ 	c #3F3F3D",
"{ 	c #514D4F",
"] 	c #555355",
"^ 	c #646466",
"/ 	c #555957",
"( 	c #2E2E2B",
"_ 	c #474747",
": 	c #4D534F",
"< 	c #6B6E69",
"[ 	c #6A6868",
"} 	c #ABABA9",
"| 	c #A6A4A4",
"1 	c #3B3D3D",
"2 	c #333033",
"3 	c #515151",
"4 	c #656367",
"5 	c #8F8591",
"6 	c #000000",
"7 	c #BBB4B4",
"8 	c #B5B3B3",
"9 	c #606060",
"0 	c #413B3D",
"a 	c #57575B",
"b 	c #636666",
"c 	c #8C8C90",
"d 	c #999E9B",
"e 	c #A3A6A5",
"f 	c #919392",
"g 	c #4D4D4F",
"h 	c #444444",
"i 	c #666665",
"j 	c #857C7F",
"k 	c #B3B7B5",
"l 	c #9B9C99",
"m 	c #999999",
"n 	c #6C676A",
"o 	c #51514F",
"p 	c #6B716B",
"q 	c #7D7981",
"r 	c #ACADAE",
"s 	c #8B898B",
"t 	c #838087",
"u 	c #5F5F63",
"v 	c #575B57",
"w 	c #81777F",
"x 	c #989597",
"y 	c #DAD4D6",
"z 	c #797579",
"A 	c #767776",
"B 	c #767373",
"C 	c #656163",
"D 	c #898889",
"E 	c #929093",
"F 	c #C1C4C6",
"G 	c #656565",
"H 	c #676C6A",
"I 	c #6B6B6B",
"J 	c #979496",
"K 	c #A0A09F",
"L 	c #D8D8D4",
"M 	c #808080",
"N 	c #565656",
"O 	c #7E7C7B",
"P 	c #7E777D",
"Q 	c #9BA19B",
"R 	c #A4A6A5",
"S 	c #ACB2B0",
"T 	c #BABEBE",
"U 	c #C7C9C7",
"V 	c #D3D1D2",
"W 	c #D8DAD8",
"X 	c #DDDFE1",
"Y 	c #E4E4E4",
"Z 	c #EAE8EA",
"` 	c #EAEBED",
" .	c #DCDDDA",
"..	c #484648",
"+.	c #595A5B",
"@.	c #928E92",
"#.	c #898289",
"$.	c #606360",
"%.	c #606162",
"&.	c #656561",
"*.	c #696765",
"=.	c #696767",
"-.	c #6C696B",
";.	c #6A6969",
">.	c #6C6C67",
",.	c #6E6C6E",
"'.	c #727070",
").	c #737272",
"!.	c #757573",
"~.	c #4F4B4D",
"{.	c #3B3B3B",
"].	c #858585",
"^.	c #969094",
"/.	c #2E3030",
"(.	c #2C3432",
"_.	c #2E2E2E",
":.	c #2B2B2B",
"<.	c #252529",
"[.	c #252424",
"}.	c #25292B",
"|.	c #2C2B2B",
"1.	c #2C2B2C",
"2.	c #2C342E",
"3.	c #2E3230",
"4.	c #4C5050",
"              . +               ",
"            @ # $ %             ",
"            & * = -             ",
"          ; > , ' ) !           ",
"          ~ { ] ^ / (           ",
"        _ : < [ } | 1 2         ",
"        3 4 5 6 7 8 9 0         ",
"      a b c d 6   e f g h       ",
"      i j k 6 6   l m n o       ",
"    p q r 6 6       s t u v     ",
"    w x y 6         z A B C     ",
"  D E F 6 6           G H A I   ",
"  J K L 6             M N O P   ",
"Q R S T U V W X Y Z `  ...+.@.#.",
"$.%.&.*.=.-.;.>.,.'.).!.~.{.].^.",
"  /.(._.) :.<.[.}.|.1._.2.3.4.  "};
