/* XPM */
static char * mini_music_xpm[] = {
"14 14 4 1",
" 	c None",
".	c #3A3E84",
"+	c #BEBEBE",
"@	c #000000",
"            .+",
"     ...  ...+",
"     .+@..@+.+",
"     ...++...+",
"     .+@..@+.+",
"     .++++  .+",
"     .+     .+",
"     .+  ..+.+",
"  ..+.+......+",
"......+......+",
"......+.....@+",
".....@+@...@+ ",
"@...@+   @@+  ",
"  @@+         "};
