/* XPM */
static char *mini.cds[] = {
/* columns rows colors chars-per-pixel */
"16 16 26 1",
"  c #7e0000",
". c #800101",
"X c #810b0b",
"o c #831313",
"O c #841c1c",
"+ c #862424",
"@ c #872b2b",
"# c #873737",
"$ c #883636",
"% c #893838",
"& c #8a4141",
"* c #8d5454",
"= c #8e5a5a",
"- c #8f6565",
"; c #906464",
": c #916b6b",
"> c #927474",
", c #947b7b",
"< c #958383",
"1 c #968a8a",
"2 c #979191",
"3 c #989595",
"4 c #999b9b",
"5 c #9aa2a2",
"6 c #9cadad",
"7 c #9cb0b0",
/* pixels */
".    #7557#     ",
" &:;;*+@@+*--:& ",
" :656,O@@+,646: ",
" ;534475455335; ",
" ;5344*o.X,535; ",
" ;535=  X ;535; ",
" ;543O $4,<445; ",
" ;54>..1544435; ",
" -55- X2433435; ",
" -55: X2444435; ",
" ;541X *642445; ",
" ;535& X$O;535; ",
" ;5241+   ;525; ",
" :65556,:<5556: ",
" &:;;;-:>:;;;:& ",
".              ."
};
