/* XPM */
static char * mini_vnc_xpm[] = {
"16 16 5 1",
" 	c #000000000000",
".	c #FFFFFFFFFFFF",
"X	c #000080800000",
"o	c #00000000FFFF",
"O	c #FFFF00000000",
"                ",
"................",
"XXX....XXX.oooo.",
"XXX....XXXoooooo",
".XX....XX.oo..oo",
".XXX...XX.oo..oo",
".XXX..XXX.oo..oo",
"..XX..XXX.oo..oo",
"..XXX.XX...OOOOO",
"...XXXXX..OOOOOO",
"...XXXX...OO....",
"...XXXX...OO....",
"....XXX...OOOOOO",
"....XX.....OOOOO",
"................",
"                "};
