/* XPM */
static char * mini_acqua_xpm[] = {
"16 16 86 1",
" 	c None",
".	c #5B9EA1",
"+	c #57B9BE",
"@	c #43B2B7",
"#	c #33ABB1",
"$	c #32ABB1",
"%	c #619DA0",
"&	c #58B8BD",
"*	c #40B1B6",
"=	c #2AA8AE",
"-	c #2DA7AD",
";	c #28A2A7",
">	c #66ABAE",
",	c #30AAAE",
"'	c #5FBAA9",
")	c #45B2B8",
"!	c #2F9296",
"~	c #2B6669",
"{	c #284E4F",
"]	c #279297",
"^	c #39989C",
"/	c #58B4B3",
"(	c #74B476",
"_	c #BBCF2F",
":	c #33A7AC",
"<	c #2DA6AC",
"[	c #182728",
"}	c #289DA2",
"|	c #227F83",
"1	c #29A3A8",
"2	c #569EA2",
"3	c #74C285",
"4	c #86B751",
"5	c #4EB1B5",
"6	c #46B3B8",
"7	c #2C8D92",
"8	c #0C1D1E",
"9	c #2CA6AB",
"0	c #65A4A7",
"a	c #A6D55E",
"b	c #52A579",
"c	c #3EA9AE",
"d	c #42B1B7",
"e	c #2A9FA4",
"f	c #0D2324",
"g	c #245658",
"h	c #2C888C",
"i	c #2D999E",
"j	c #61B5BA",
"k	c #31AAAD",
"l	c #C7D938",
"m	c #2C9FA0",
"n	c #2FA1A7",
"o	c #41B1B6",
"p	c #2AA7AD",
"q	c #499B9F",
"r	c #41B0B5",
"s	c #60BC94",
"t	c #9ABF42",
"u	c #2D9DA2",
"v	c #60A1A4",
"w	c #95CF6C",
"x	c #66AC6A",
"y	c #389A9E",
"z	c #28A2A8",
"A	c #63AAAD",
"B	c #C5DE44",
"C	c #369D91",
"D	c #40868A",
"E	c #41ACB1",
"F	c #4EB5BA",
"G	c #4DB5A1",
"H	c #AEC736",
"I	c #2CA7AC",
"J	c #339296",
"K	c #3EA3A7",
"L	c #549CA0",
"M	c #7EC67D",
"N	c #92C255",
"O	c #4D9D85",
"P	c #338E93",
"Q	c #66A2A5",
"R	c #37999E",
"S	c #63A073",
"T	c #85953F",
"U	c #4B979A",
"          .     ",
"                ",
"     +@#$%&     ",
"    *=-=;>,'    ",
"   )!~{]^/(_:   ",
"   <[}|12#34=5  ",
"  678=9=0=ab=c  ",
"  defghijklm=n  ",
"  o==p=qrst==u  ",
"  @====v=wx==y  ",
"   ===zA=BC==D  ",
"   E==^FGHI=J   ",
"    KpL#MNOP    ",
"      QRST      ",
"      U         ",
"                "};
