/* XPM */
static char * Capture_xpm[] = {
"16 16 49 1",
" 	c None",
".	c #000000",
"+	c #201F1B",
"@	c #AFAC8C",
"#	c #CEC17D",
"$	c #C3B263",
"%	c #B2B193",
"&	c #CABB72",
"*	c #B3B297",
"=	c #D1C582",
"-	c #A1955D",
";	c #615931",
">	c #3C3C33",
",	c #E0DAA6",
"'	c #AD9F5E",
")	c #8F8455",
"!	c #302C18",
"~	c #B4B499",
"{	c #CCBE76",
"]	c #6D6648",
"^	c #92854A",
"/	c #131313",
"(	c #E7E4B6",
"_	c #AA9D5E",
":	c #766D45",
"<	c #3D3925",
"[	c #787866",
"}	c #D9D196",
"|	c #615A39",
"1	c #BAAA62",
"2	c #0C0C0C",
"3	c #D1C581",
"4	c #4E4B3A",
"5	c #403C28",
"6	c #BBB27D",
"7	c #5B5431",
"8	c #141414",
"9	c #F0F0CC",
"0	c #8F8D74",
"a	c #766D43",
"b	c #AEA05E",
"c	c #3B3B31",
"d	c #777764",
"e	c #797046",
"f	c #544F38",
"g	c #0F0F0F",
"h	c #404037",
"i	c #1F1F1F",
"j	c #030303",
"         ..+    ",
"        .@#$.   ",
"       .%&$$.   ",
"      .*=-$;    ",
"      >,')$!    ",
"     .~{]$^/    ",
"     .(_:$<     ",
"     [}|1^2     ",
"     [34$5      ",
"     [67^.      ",
"    890ab.      ",
"     cdef       ",
"    .g>hg.      ",
"      .i        ",
"      jg        ",
"      ..        "};
