/* XPM */
static char * xmms_xpm[] = {
"16 16 112 2",
"  	c #5B5B5B5B5B5B",
". 	c #DADADADADADA",
"X 	c #B8B8B8B8B8B8",
"o 	c #848484848484",
"O 	c #8F8F8F8F8F8F",
"+ 	c #909090909090",
"@ 	c #8A8A8A8A8A8A",
"# 	c #646464646666",
"$ 	c #1C1C1B1B1919",
"% 	c #0C0C0C0C0A0A",
"& 	c #B1B1B1B1B1B1",
"* 	c #1C1C1D1D1D1D",
"= 	c #1C1C1B1B1B1B",
"- 	c #1E1E1F1F1D1D",
"; 	c #141414141414",
": 	c #1C1C1D1D1B1B",
"> 	c #2B2B2A2A2A2A",
", 	c #0E0E0E0E0F0F",
"< 	c #060606060505",
"1 	c #080808080606",
"2 	c #4E4E4E4E4E4E",
"3 	c #0B0B0B0B0B0B",
"4 	c #1E1E1D1D1919",
"5 	c #242423232020",
"6 	c #252523232020",
"7 	c #1C1C18181616",
"8 	c #3B3B36362B2B",
"9 	c #4A4A41413333",
"0 	c #3D3D35352A2A",
"q 	c #252521211919",
"w 	c #C0C0BDBDB8B8",
"e 	c #1B1B19191515",
"r 	c #222222222222",
"t 	c #222220201717",
"y 	c #DADAD8D8D5D5",
"u 	c #BABAB7B7AFAF",
"i 	c #696964645757",
"p 	c #3A3A32322626",
"a 	c #464640403030",
"s 	c #B8B8B8B8B7B7",
"d 	c #151513131111",
"f 	c #171717171717",
"g 	c #030303030303",
"h 	c #22221F1F1616",
"j 	c #46463D3D2F2F",
"k 	c #53534A4A3838",
"l 	c #B5B5B3B3ACAC",
"z 	c #373730302424",
"x 	c #3F3F37372C2C",
"c 	c #B1B1AFAFAAAA",
"v 	c #6E6E67675C5C",
"b 	c #2A2A2A2A2A2A",
"n 	c #050505050505",
"m 	c #20201B1B1515",
"M 	c #3A3A32322727",
"N 	c #B2B2AFAFABAB",
"B 	c #62625E5E5555",
"V 	c #DBDBD9D9D6D6",
"C 	c #393939393939",
"Z 	c #070707070707",
"A 	c #BBBBB8B8B5B5",
"S 	c #45453B3B2D2D",
"D 	c #4E4E45453333",
"F 	c #46463E3E2F2F",
"G 	c #DCDCDADAD7D7",
"H 	c #44443D3D2D2D",
"J 	c #C3C3C0C0BABA",
"K 	c #BEBEBCBCB7B7",
"L 	c #D3D3D3D3D1D1",
"P 	c #B1B1AEAEAAAA",
"I 	c #D3D3D1D1CFCF",
"U 	c #191917171414",
"Y 	c #353535353535",
"T 	c #070706060606",
"R 	c #D8D8D7D7D5D5",
"E 	c #D8D8D6D6D4D4",
"W 	c #B0B0ADADA8A8",
"Q 	c #2B2B2B2B2B2B",
"! 	c #B7B7B3B3ADAD",
"~ 	c #BBBBB9B9B5B5",
"^ 	c #30302A2A2020",
"/ 	c #D6D6D5D5D3D3",
"( 	c #B7B7B5B5B2B2",
") 	c #5A5A56564D4D",
"_ 	c #505047473535",
"` 	c #BEBEBBBBB6B6",
"' 	c #DDDDDBDBD7D7",
"] 	c #6B6B66665959",
"[ 	c #A4A49D9D9595",
"{ 	c #1F1F1C1C1818",
"} 	c #5F5F59595050",
"| 	c #393931312525",
" .	c #383832322828",
"..	c #32322D2D2222",
"X.	c #9C9C9A9A9393",
"o.	c #252524242222",
"O.	c #676763635D5D",
"+.	c #5B5B5A5A5555",
"@.	c #6F6F68686262",
"#.	c #626260605D5D",
"$.	c #81817F7F7575",
"%.	c #737372726969",
"&.	c #939395959393",
"*.	c #040404040303",
"=.	c #1C1C1C1C1616",
"-.	c #161615151111",
";.	c #151514141212",
":.	c #090908080707",
">.	c #151515151414",
",.	c #1E1E1C1C1A1A",
"<.	c #0C0C0B0B0909",
"1.	c #121211111010",
"                                ",
"  . X o O + @ + o O + o # $ %   ",
"  & * = - ; : ; > - ; > , < 1   ",
"  2 3 4 5 6 7 8 9 0 q 0 q w e   ",
"  r 3 t 8 9 0 y u i p a p s d   ",
"  f g h j k l z x c v 0 q w e   ",
"  b n m M N B 9 0 q V 0 q s d   ",
"  C Z 8 v A S D F p G H p w e   ",
"  r n j J K z 8 9 0 L P q I U   ",
"  Y T R w A q j k H E K W s d   ",
"  Q n 8 ! ~ 9 z z ^ / ( ) w e   ",
"  b n S _ ` _ a p j ' ] p [ {   ",
"  C Z M x } |  ...M x  ...X.o.  ",
"  Q n O.+.@.O.#.$.@.O.#.%.&.*.  ",
"  =.-.;.:.-.;.>.=.-.;.>.,.<.1.  ",
"                                "};
