/* XPM */
static char * mini_vmware_xpm[] = {
"16 16 5 1",
" 	c None",
".	c #3378B9",
"+	c #B6D9FF",
"@	c #FFFFFF",
"#	c #3699D7",
"   .........    ",
"  .+@@@@@@@+.   ",
"  .@#######@.   ",
"  .@#######@... ",
"  .@##+@@@@@@@+.",
" ..@##@####@##@.",
".+@@@@@@@@#@##@.",
".@#@##@##@#@##@.",
".@#@##@##@#@##@.",
".@#+@@@@@@@+##@.",
".@####@##@####@.",
".@####@##@####@.",
".@####+@@@@@@@+.",
".@#######@..... ",
".+@@@@@@@+.     ",
" .........      "};
