/* XPM */
static char * mini_sh1_xpm[] = {
"16 16 5 1",
" 	c None",
".	c #000000",
"+	c #C4C4C4",
"@	c #0000FF",
"#	c #FFFFFF",
"                ",
"                ",
"................",
".++++++++++++++.",
".+@@@@@@@@@@@@+.",
".++++++++++++++.",
".+............+.",
".+.#..........+.",
".+..#.........+.",
".+.#..........+.",
".+............+.",
".+............+.",
".+............+.",
".+............+.",
".++++++++++++++.",
"................"};
