/* XPM */
static char * bimetal_clear_thin_mid_xpm[] = {
"13 23 5 1",
" 	c None",
".	c #F3EDE6",
"+	c #B68F67",
"@	c #000000",
"#	c #FAEBD7",
".............",
"+++++++++++++",
"@@@@@@@@@@@@@",
"             ",
"             ",
"             ",
"             ",
"             ",
"             ",
"             ",
"             ",
"             ",
"             ",
"             ",
"             ",
"             ",
"             ",
"             ",
"             ",
"             ",
"#############",
"+++++++++++++",
"@@@@@@@@@@@@@"};
