/* XPM */
static char * bimetal_chevronright_xpm[] = {
"15 23 28 1",
" 	c None",
".	c #FAEBD7",
"+	c #B68F67",
"@	c #BE9B78",
"#	c #CBAF93",
"$	c #000000",
"%	c #7C7C7C",
"&	c #7F7F7F",
"*	c #C7AA8C",
"=	c #7D7D7D",
"-	c #B9946E",
";	c #797979",
">	c #757575",
",	c #C3A282",
"'	c #6F6F6F",
")	c #686868",
"!	c #636363",
"~	c #F3EDE6",
"{	c #B2875D",
"]	c #AD8053",
"^	c #5F5F5F",
"/	c #5C5C5C",
"(	c #5A5A5A",
"_	c #545454",
":	c #4F4F4F",
"<	c #4F4E4E",
"[	c #575554",
"}	c #A87949",
"....           ",
"+@#..          ",
"$$@#..         ",
"%%$@#..        ",
"&&&$@#..       ",
"&&&&$@*..      ",
"=====$-*..     ",
"%%%%%%$-*..    ",
";;;;;;;$-*..   ",
">>>>>>>>$-,..  ",
"'''''''''$+,.. ",
"))))))))))$+,.$",
"!!!!!!!!!~{@]$ ",
"^^^^^^^^~{@]$  ",
"///////~{@]$   ",
"((((((~{@]$    ",
"_____~]-]$     ",
"::::~]-]$      ",
"<<<~]-]$       ",
"[[~]-]$        ",
"..]-]$         ",
"{}+]$          ",
"$$$$           "};
