/* XPM */
static char * bimetal_thin_chevronlright_xpm[] = {
"16 23 13 1",
" 	c None",
".	c #FAEBD7",
"+	c #B68F67",
"@	c #BE9B78",
"#	c #CBAF93",
"$	c #000000",
"%	c #C7AA8C",
"&	c #B9946E",
"*	c #C3A282",
"=	c #F3EDE6",
"-	c #B2875D",
";	c #AD8053",
">	c #A87949",
"....            ",
"+@#..           ",
"$$@#..          ",
"  $@#..         ",
"   $@#..        ",
"    $@%..       ",
"     $&%..      ",
"      $&%..     ",
"       $&%..    ",
"        $&*..   ",
"         $+*..  ",
"          $+*.$ ",
"         =-@;$  ",
"        =-@;$   ",
"       =-@;$    ",
"      =-@;$     ",
"     =;&;$      ",
"    =;&;$       ",
"   =;&;$        ",
"  =;&;$         ",
"..;&;$          ",
"->+;$           ",
"$$$$            "};
