/* XPM */
static char * bimetal_chevronleft_xpm[] = {
"15 23 29 1",
" 	c None",
".	c #F3EDE6",
"+	c #CBAF93",
"@	c #BE9B78",
"#	c #B68F67",
"$	c #000000",
"%	c #BABABA",
"&	c #C0C0C0",
"*	c #C7AA8C",
"=	c #BFBFBF",
"-	c #B9946E",
";	c #B9B9B9",
">	c #B5B5B5",
",	c #C3A282",
"'	c #B3B3B3",
")	c #B0B0B0",
"!	c #ABABAB",
"~	c #FAEBD7",
"{	c #B2875D",
"]	c #A4A4A4",
"^	c #9D9D9D",
"/	c #979797",
"(	c #959595",
"_	c #AD8053",
":	c #949494",
"<	c #909090",
"[	c #8E8E8C",
"}	c #908E8C",
"|	c #A87949",
"           ....",
"          ..+@#",
"         ..+@$$",
"        ..+@$%%",
"       ..+@$&&&",
"      ..*@$====",
"     ..*-$;;;;;",
"    ..*-$>>>>>>",
"   ..*-$>>>>>>>",
"  ..,-$''''''''",
" ..,#$)))))))))",
"..,#$!!!!!!!!!!",
" ~~@{$]]]]]]]]]",
"  ~~@{$^^^^^^^^",
"   ~~@{$///////",
"    ~~@{$((((((",
"     ~~-_$:::::",
"      ~~-_$<<<<",
"       ~~-_$[[[",
"        ~~-_$}}",
"         ~~~~~~",
"          ###|{",
"           $$$$"};
