/* XPM */
static char * bimetal_thin_mid_xpm[] = {
"13 23 141 2",
"  	c None",
". 	c #F3EDE6",
"+ 	c #BE9C78",
"@ 	c #2F2F2F",
"# 	c #2E2E2E",
"$ 	c #2B2B2B",
"% 	c #2A2A2A",
"& 	c #292929",
"* 	c #282828",
"= 	c #262626",
"- 	c #242424",
"; 	c #222222",
"> 	c #212121",
", 	c #1F1F1F",
"' 	c #BABABA",
") 	c #B8B8B8",
"! 	c #ADADAD",
"~ 	c #A8A8A8",
"{ 	c #A5A5A5",
"] 	c #A0A0A0",
"^ 	c #989898",
"/ 	c #8E8E8E",
"( 	c #898989",
"_ 	c #878787",
": 	c #868686",
"< 	c #7C7C7C",
"[ 	c #C0C0C0",
"} 	c #BDBDBD",
"| 	c #B5B5B5",
"1 	c #B1B1B1",
"2 	c #AEAEAE",
"3 	c #ABABAB",
"4 	c #A4A4A4",
"5 	c #9C9C9C",
"6 	c #949494",
"7 	c #919191",
"8 	c #8D8D8D",
"9 	c #7F7F7F",
"0 	c #BFBFBF",
"a 	c #B6B6B6",
"b 	c #B3B3B3",
"c 	c #B0B0B0",
"d 	c #ACACAC",
"e 	c #A3A3A3",
"f 	c #959595",
"g 	c #929292",
"h 	c #858585",
"i 	c #B9B9B9",
"j 	c #B2B2B2",
"k 	c #A6A6A6",
"l 	c #9E9E9E",
"m 	c #8F8F8F",
"n 	c #888888",
"o 	c #818181",
"p 	c #7D7D7D",
"q 	c #B4B4B4",
"r 	c #AFAFAF",
"s 	c #9F9F9F",
"t 	c #828282",
"u 	c #AAAAAA",
"v 	c #A2A2A2",
"w 	c #999999",
"x 	c #969696",
"y 	c #8C8C8C",
"z 	c #848484",
"A 	c #797979",
"B 	c #939393",
"C 	c #808080",
"D 	c #7A7A7A",
"E 	c #757575",
"F 	c #9D9D9D",
"G 	c #979797",
"H 	c #767676",
"I 	c #6F6F6F",
"J 	c #8A8A8A",
"K 	c #7E7E7E",
"L 	c #787878",
"M 	c #717171",
"N 	c #686868",
"O 	c #A1A1A1",
"P 	c #9A9A9A",
"Q 	c #737373",
"R 	c #6A6A6A",
"S 	c #636363",
"T 	c #9B9B9B",
"U 	c #747474",
"V 	c #6D6D6D",
"W 	c #646464",
"X 	c #5F5F5F",
"Y 	c #777777",
"Z 	c #6E6E6E",
"` 	c #666666",
" .	c #5C5C5C",
"..	c #616161",
"+.	c #5A5A5A",
"@.	c #727272",
"#.	c #5E5E5E",
"$.	c #5B5B5B",
"%.	c #545454",
"&.	c #909090",
"*.	c #818180",
"=.	c #7B7B7B",
"-.	c #606060",
";.	c #575757",
">.	c #4F4F4F",
",.	c #8E8E8C",
"'.	c #8C8C8B",
").	c #848483",
"!.	c #7E7E7D",
"~.	c #737372",
"{.	c #6B6B6A",
"].	c #646463",
"^.	c #616160",
"/.	c #5D5C5C",
"(.	c #565656",
"_.	c #4F4E4E",
":.	c #908E8C",
"<.	c #8E8D8B",
"[.	c #898886",
"}.	c #888785",
"|.	c #868583",
"1.	c #81807E",
"2.	c #787674",
"3.	c #706F6D",
"4.	c #6B6A68",
"5.	c #656462",
"6.	c #5C5B59",
"7.	c #575554",
"8.	c #DFD3C4",
"9.	c #DED2C3",
"0.	c #DDD2C2",
"a.	c #DCD0C1",
"b.	c #D9CEBE",
"c.	c #D8CCBC",
"d.	c #D6CBBB",
"e.	c #D5C9BA",
"f.	c #D2C7B7",
"g.	c #D1C6B6",
"h.	c #DBC1A4",
"i.	c #9D7C59",
"j.	c #000000",
". . . . . . . . . . . . . ",
"+ + + + + + + + + + + + + ",
"@ # $ % & & * = - ; ; > , ",
"' ) ! ~ { { ] ^ / ( _ : < ",
"[ } | 1 2 3 4 5 6 7 8 _ 9 ",
"0 } a b c d e 5 f g 8 h 9 ",
"i i | j ! k l ^ 6 m n o p ",
"| | q r ~ s ^ 6 g ( t p < ",
"| q 1 u v w x 7 y z 9 < A ",
"b 1 d e 5 x B 8 h C p D E ",
"c ! k F G f m n C p D H I ",
"3 ~ s w 6 g J t K < L M N ",
"4 O P x 7 y z 9 < A Q R S ",
"F T x B / : C < D U V W X ",
"G G 6 m n C p D Y Z ` X  .",
"f 6 g J t p < L M N .. .+.",
"6 g y z 9 < L @.R S #.$.%.",
"&./ : *.p =.U V W -. .;.>.",
",.'.).*.!.=.~.{.].^./.(._.",
":.<.[.}.|.1.2.3.4.4.5.6.7.",
"8.9.9.0.a.b.c.d.d.e.f.g.h.",
"i.i.i.i.i.i.i.i.i.i.i.i.i.",
"j.j.j.j.j.j.j.j.j.j.j.j.j."};
