/* XPM */
static char * fvwmVert_xpm[] = {
"24 64 75 1",
" 	c None",
".	c #152F2F",
"+	c #102411",
"@	c #4B4F4F",
"#	c #536958",
"$	c #D3D2B5",
"%	c #FFFFFF",
"&	c #FBEFBF",
"*	c #FDDEAD",
"=	c #FBDEBF",
"-	c #FDCFAD",
";	c #E4D1B4",
">	c #AFB1A3",
",	c #99AB9C",
"'	c #C2C2A4",
")	c #FAFFCD",
"!	c #FBFFEF",
"~	c #5F4F3B",
"{	c #2A2C2C",
"]	c #002222",
"^	c #5B5F4B",
"/	c #FDCB9B",
"(	c #3A3E3E",
"_	c #4A4E3A",
":	c #6F5F4D",
"<	c #A4815C",
"[	c #AF9273",
"}	c #D2B394",
"|	c #FDEECF",
"1	c #000000",
"2	c #E4B3A4",
"3	c #393D29",
"4	c #1A1A1A",
"5	c #80705E",
"6	c #5D4D4D",
"7	c #203623",
"8	c #C1B293",
"9	c #9FA191",
"0	c #AABCAD",
"a	c #FAFFDD",
"b	c #001212",
"c	c #435747",
"d	c #AF9183",
"e	c #91715D",
"f	c #E4AF92",
"g	c #E4C1A4",
"h	c #908170",
"i	c #496061",
"j	c #7B806E",
"k	c #E4C3B4",
"l	c #9F9283",
"m	c #8C9080",
"n	c #AFA283",
"o	c #9E9172",
"p	c #314736",
"q	c #273F3F",
"r	c #D2C1A4",
"s	c #C0A384",
"t	c #9E8072",
"u	c #000012",
"v	c #E6E2D4",
"w	c #375051",
"x	c #8F9393",
"y	c #D2B3A4",
"z	c #6D7171",
"A	c #6A6F5D",
"B	c #5D5F5F",
"C	c #4D3B3B",
"D	c #9EA082",
"E	c #8E926E",
"F	c #7E7070",
"G	c #C2B3A4",
"H	c #768A7A",
"I	c #D3C3B5",
"J	c #E5E2C5",
"                        ",
"                        ",
"                        ",
"                        ",
"                        ",
"                        ",
"     .......+++++...    ",
"   @#$%&*=-;>,,')!!=~   ",
"     {={].^/(.{_:<[}[   ",
"      |]11^211]|34356   ",
"      &1117890a-[4      ",
"      &b11c=^d}ef.      ",
"      |]11^g44^he+      ",
"     7=b11^g   .{       ",
"   ijk-lmmn}j(          ",
"     75dnno^.           ",
"                        ",
"                        ",
"                        ",
"   7p((((..     .qppq   ",
"  qja|//rs^    .^'!&o   ",
"    ^o_4.t5     (;-}(   ",
"     :h(u{e6   qvgt{    ",
"      ^e{1{e^ wv}5.     ",
"       6e_b.5h|s^       ",
"        ^o(u{}g6        ",
"         _e^x=^         ",
"          (ny^          ",
"           +.           ",
"                        ",
"                        ",
"                        ",
"                        ",
"  izAAB{ {#AAA^q   pAB  ",
"  A)g}}e .m|2}n:   B)}4 ",
"   e5]7e.1]eCu(e   x-e  ",
"   {5(]^:11Do]b:_ c=o4  ",
"    (5.]^_#=}^b4:6;s{   ",
"     ^54.e;t{::b7ng_    ",
"      :^uA/7 4e{]rh     ",
"      .5j;A   35Er.     ",
"       {oj     ~o(      ",
"                        ",
"                        ",
"                        ",
"  q#j5557       pF55F_  ",
"  ._&-}sd6     wagnngt  ",
"    G|^].e6   .vg:11H5  ",
"    ;/e~1{5( .v}eh11H^  ",
"    $s.5(1.eCI2~{t11j^  ",
"    Jn .5_u(ng: +n11H^  ",
"    ;}  {t{];o  .o11H:  ",
"  p9&}c  (e8r. wDy@wlh4 ",
"  q^[t@+  (5{  7^nrg}:  ",
"                        ",
"                        ",
"                        ",
"                        ",
"                        ",
"                        ",
"                        ",
"                        ",
"                        ",
"                        "};
