/* XPM */
static char * knot_blue_xpm[] = {
"29 21 3 1",
" 	c None",
".	c #71869E",
"+	c #000000",
".............................",
".............................",
"+++++++.....+++++......++++++",
"+......++.++.....++..++......",
"+........+.........++........",
"+..++++...+.+++++...+..++++..",
"+..+...+...+.....+...++...+..",
"+..+..+.+...+...+.+...+...+..",
"+..+.+...+...+.+...+...+..+..",
".+..+...+.+...+...+.+...++...",
".+.+...+...+.+...+...+..+...+",
"..+...+.....+...+.....++...+.",
".+...+.+...+...+.+....+...++.",
".+..+...+.+...+...+..+...+..+",
"+..+.+...+...+.+...++...+.+..",
"+..+..+...+.+...+...+..+..+..",
"+..+...+...+.....+...++...+..",
"+..++++.+...+++++.+...+++++..",
"+........+.........+.........",
"+......++.++.....++.++.......",
"+++++++.....+++++.....+++++++"};
