/* XPM */
static char * knot_2blue_xpm[] = {
"29 21 4 1",
" 	c None",
".	c #495D79",
"+	c #000000",
"@	c #71869E",
".............................",
".............................",
"+++++++.....+++++......++++++",
"+@@@@@@++.++@@@@@++..++@@@@@@",
"+@@@@@@@@+@@@@@@@@@++@@@@@@@@",
"+@@++++@@@+@+++++@@@+@@++++@@",
"+@@+...+@@@+.....+@@@++...+@@",
"+@@+..+@+@@@+...+@+@@@+...+@@",
"+@@+.+@@@+@@@+.+@@@+@@@+..+@@",
".+@@+@@@+.+@@@+@@@+.+@@@++@@@",
".+@+@@@+...+@+@@@+...+@@+@@@+",
"..+@@@+.....+@@@+.....++@@@+.",
".+@@@+@+...+@@@+@+....+@@@++.",
".+@@+@@@+.+@@@+@@@+..+@@@+@@+",
"+@@+.+@@@+@@@+.+@@@++@@@+.+@@",
"+@@+..+@@@+@+...+@@@+@@+..+@@",
"+@@+...+@@@+.....+@@@++...+@@",
"+@@++++@+@@@+++++@+@@@+++++@@",
"+@@@@@@@@+@@@@@@@@@+@@@@@@@@@",
"+@@@@@@++.++@@@@@++.++@@@@@@@",
"+++++++.....+++++.....+++++++"};
