/* XPM */
static char * minimalist_maxleft_xpm[] = {
"15 15 29 1",
" 	c None",
".	c #FFFFFF",
"+	c #FAEBD7",
"@	c #CBAF93",
"#	c #CEB499",
"$	c #D2B9A0",
"%	c #D5BEA7",
"&	c #D8C4AE",
"*	c #DBC9B5",
"=	c #DFCEBC",
"-	c #E2D3C3",
";	c #E5D8CA",
">	c #E9DDD1",
",	c #ECE2D8",
"'	c #EFE7DF",
")	c #F3EDE6",
"!	c #C8AA8C",
"~	c #000000",
"{	c #C4A585",
"]	c #C1A07E",
"^	c #BE9B77",
"/	c #BB9570",
"(	c #B79069",
"_	c #B48B62",
":	c #B1865B",
"<	c #AD8154",
"[	c #AA7C4D",
"}	c #A77746",
"|	c #A47240",
"...............",
"+@#$%&*=-;>,').",
"+!~~~~~~~~~~~~~",
"+{~            ",
"+]~            ",
"+^~            ",
"+/~            ",
"+(~            ",
"+_~            ",
"+:~            ",
"+<~            ",
"+[~            ",
"+}~            ",
"+|~            ",
"~~~            "};
