/* XPM */
static char * gnome_term_tiger_xpm[] = {
"48 48 524 2",
"  	c None",
". 	c #D7D7CF",
"+ 	c #EFEBDF",
"@ 	c #E7E7DF",
"# 	c #E7E3D7",
"$ 	c #DFDFD7",
"% 	c #DFDBD7",
"& 	c #DFD7CF",
"* 	c #D7D3C7",
"= 	c #D7CFC7",
"- 	c #CFCFC7",
"; 	c #CFCBBE",
"> 	c #CFC7BE",
", 	c #C7C7BE",
"' 	c #C7C3BE",
") 	c #C7BEB6",
"! 	c #BDBDB5",
"~ 	c #BCB8B4",
"{ 	c #BBB7AB",
"] 	c #B6AEA7",
"^ 	c #9B9B94",
"/ 	c #8F8C81",
"( 	c #7D7A76",
"_ 	c #BEBEB6",
": 	c #BEBAB6",
"< 	c #BCB8AC",
"[ 	c #B9B1A9",
"} 	c #AEAEA6",
"| 	c #A9A6A2",
"1 	c #A4A196",
"2 	c #83807C",
"3 	c #B6B2B6",
"4 	c #797979",
"5 	c #717571",
"6 	c #717171",
"7 	c #696D69",
"8 	c #696969",
"9 	c #616561",
"0 	c #616161",
"a 	c #595D59",
"b 	c #595959",
"c 	c #515551",
"d 	c #515151",
"e 	c #494D49",
"f 	c #494949",
"g 	c #484448",
"h 	c #474347",
"i 	c #3E3E3E",
"j 	c #7C7C7C",
"k 	c #A39C95",
"l 	c #918A83",
"m 	c #8E8E8E",
"n 	c #C7C3C7",
"o 	c #9E9A9E",
"p 	c #969696",
"q 	c #8E8A8E",
"r 	c #868286",
"s 	c #868686",
"t 	c #494549",
"u 	c #3F3F3F",
"v 	c #3E393E",
"w 	c #3C373C",
"x 	c #96938F",
"y 	c #B6B6B6",
"z 	c #E7E7E7",
"A 	c #A6A6A6",
"B 	c #797D79",
"C 	c #404040",
"D 	c #3F3B3F",
"E 	c #3D393D",
"F 	c #343434",
"G 	c #9B9894",
"H 	c #979489",
"I 	c #BEC3BE",
"J 	c #969296",
"K 	c #9E9E9E",
"L 	c #585858",
"M 	c #403B40",
"N 	c #3F3A3F",
"O 	c #353535",
"P 	c #333333",
"Q 	c #9C988D",
"R 	c #909089",
"S 	c #B6BAB6",
"T 	c #414141",
"U 	c #363636",
"V 	c #2C302C",
"W 	c #95958D",
"X 	c #908D89",
"Y 	c #413C41",
"Z 	c #373737",
"` 	c #2D312D",
" .	c #2C2C2C",
"..	c #95918D",
"+.	c #8F8C88",
"@.	c #2F332F",
"#.	c #2D2D2D",
"$.	c #94908D",
"%.	c #8F8881",
"&.	c #E7DFD7",
"*.	c #505050",
"=.	c #2F2F2F",
"-.	c #252825",
";.	c #958D86",
">.	c #898982",
",.	c #383838",
"'.	c #303430",
").	c #262A26",
"!.	c #252525",
"~.	c #8D8D86",
"{.	c #898682",
"].	c #303030",
"^.	c #272A27",
"/.	c #262626",
"(.	c #8D8A86",
"_.	c #888581",
":.	c #66686A",
"<.	c #505253",
"[.	c #606162",
"}.	c #303633",
"|.	c #272B27",
"1.	c #272727",
"2.	c #242024",
"3.	c #8C8985",
"4.	c #86807A",
"5.	c #DFDBCF",
"6.	c #404345",
"7.	c #3D4145",
"8.	c #394340",
"9.	c #38403A",
"0.	c #343F39",
"a.	c #313A39",
"b.	c #303A3A",
"c.	c #282C28",
"d.	c #252125",
"e.	c #1C1C1C",
"f.	c #8B847E",
"g.	c #7E7B78",
"h.	c #403D43",
"i.	c #352F27",
"j.	c #64471A",
"k.	c #9A6615",
"l.	c #A56A11",
"m.	c #915C0F",
"n.	c #704512",
"o.	c #463822",
"p.	c #313533",
"q.	c #272327",
"r.	c #1D1D1D",
"s.	c #807D7A",
"t.	c #757671",
"u.	c #606567",
"v.	c #5D3D12",
"w.	c #C47905",
"x.	c #EA9500",
"y.	c #DF8C00",
"z.	c #B26A00",
"A.	c #864D01",
"B.	c #543213",
"C.	c #313635",
"D.	c #1E1E1E",
"E.	c #212021",
"F.	c #616664",
"G.	c #4D4A38",
"H.	c #7B5504",
"I.	c #996301",
"J.	c #9B6301",
"K.	c #814D05",
"L.	c #323E40",
"M.	c #4C2D04",
"N.	c #C37700",
"O.	c #EE9800",
"P.	c #C87F00",
"Q.	c #593200",
"R.	c #391C00",
"S.	c #231500",
"T.	c #263537",
"U.	c #242D2E",
"V.	c #252827",
"W.	c #222225",
"X.	c #242721",
"Y.	c #764F0F",
"Z.	c #B67802",
"`.	c #D69400",
" +	c #E59F00",
".+	c #E99E00",
"++	c #E29300",
"@+	c #CA7B02",
"#+	c #8C4E0F",
"$+	c #383839",
"%+	c #273131",
"&+	c #2C1C03",
"*+	c #955D00",
"=+	c #D68D00",
"-+	c #B97D00",
";+	c #9A5800",
">+	c #985800",
",+	c #864E00",
"'+	c #462500",
")+	c #3B2806",
"!+	c #382D1A",
"~+	c #3B312C",
"{+	c #543106",
"]+	c #D07E00",
"^+	c #F5A200",
"/+	c #FAAD00",
"(+	c #F8AA00",
"_+	c #EE9500",
":+	c #DD8304",
"<+	c #9E5514",
"[+	c #3A3B3B",
"}+	c #272F2C",
"|+	c #633C07",
"1+	c #BE7E00",
"2+	c #E59A00",
"3+	c #DA9000",
"4+	c #CD7C00",
"5+	c #C67700",
"6+	c #BC7200",
"7+	c #9E5B00",
"8+	c #8E5500",
"9+	c #824E00",
"0+	c #6D3B00",
"a+	c #904A00",
"b+	c #E78800",
"c+	c #F59B00",
"d+	c #EA9800",
"e+	c #DF8F00",
"f+	c #D88500",
"g+	c #CC7800",
"h+	c #BA6808",
"i+	c #864414",
"j+	c #363D39",
"k+	c #323427",
"l+	c #643B04",
"m+	c #453823",
"n+	c #453F2F",
"o+	c #6E4C0C",
"p+	c #CE8000",
"q+	c #D57E00",
"r+	c #965800",
"s+	c #6D4E21",
"t+	c #64461C",
"u+	c #653B02",
"v+	c #793D00",
"w+	c #B15200",
"x+	c #E78300",
"y+	c #D87D00",
"z+	c #915100",
"A+	c #6D3C00",
"B+	c #6C3D02",
"C+	c #363C3F",
"D+	c #3B3B26",
"E+	c #3C362A",
"F+	c #939395",
"G+	c #9C9C9E",
"H+	c #6F7B70",
"I+	c #8E5600",
"J+	c #BC6200",
"K+	c #756560",
"L+	c #B9BABD",
"M+	c #B3B4B4",
"N+	c #807B72",
"O+	c #4F2B00",
"P+	c #B86C00",
"Q+	c #DD8000",
"R+	c #BA6900",
"S+	c #482600",
"T+	c #959696",
"U+	c #6C7370",
"V+	c #76797F",
"W+	c #7F898C",
"X+	c #4B5E61",
"Y+	c #303222",
"Z+	c #4A4947",
"`+	c #6F6F6F",
" @	c #2F2E2F",
".@	c #7F7B76",
"+@	c #944E00",
"@@	c #AF6201",
"#@	c #B8B2AC",
"$@	c #49484D",
"%@	c #3C3C3C",
"&@	c #939291",
"*@	c #4E3516",
"=@	c #CF7F00",
"-@	c #E58E00",
";@	c #A66100",
">@	c #351A00",
",@	c #C6C6BD",
"'@	c #C7C3B6",
")@	c #959195",
"!@	c #484C48",
"~@	c #484848",
"{@	c #393B3C",
"]@	c #363E3D",
"^@	c #5E625C",
"/@	c #474B4B",
"(@	c #423A3A",
"_@	c #201D18",
":@	c #060402",
"<@	c #0A0A0A",
"[@	c #0B0B0B",
"}@	c #231F34",
"|@	c #5D3A00",
"1@	c #AD640F",
"2@	c #B2A999",
"3@	c #545453",
"4@	c #424444",
"5@	c #807C77",
"6@	c #62410A",
"7@	c #DA8E00",
"8@	c #BE7D00",
"9@	c #532E00",
"0@	c #1F0E00",
"a@	c #B3AFA3",
"b@	c #C3BFB2",
"c@	c #BABAB2",
"d@	c #BBB7B3",
"e@	c #BAB2AA",
"f@	c #B1B1A9",
"g@	c #B1ADA9",
"h@	c #B0ACA0",
"i@	c #A8A8A0",
"j@	c #A8A5A1",
"k@	c #8A8A85",
"l@	c #686868",
"m@	c #ACACAC",
"n@	c #4E4E4E",
"o@	c #0D0D0D",
"p@	c #000000",
"q@	c #534D40",
"r@	c #CAB28A",
"s@	c #7D6E55",
"t@	c #888683",
"u@	c #7B7773",
"v@	c #624C3E",
"w@	c #B27400",
"x@	c #BD7D00",
"y@	c #553100",
"z@	c #240F00",
"A@	c #180900",
"B@	c #9B978C",
"C@	c #B2AEAA",
"D@	c #B2AEA3",
"E@	c #A9A9A2",
"F@	c #A9A5A1",
"G@	c #A8A499",
"H@	c #A7A098",
"I@	c #9F9F98",
"J@	c #AF7B6F",
"K@	c #A78A82",
"L@	c #A19992",
"M@	c #717670",
"N@	c #827877",
"O@	c #C0C0C0",
"P@	c #5A5A5A",
"Q@	c #3A3A3A",
"R@	c #919191",
"S@	c #BDBDBC",
"T@	c #8B89A3",
"U@	c #757169",
"V@	c #5C5A54",
"W@	c #55442B",
"X@	c #A06800",
"Y@	c #9B6000",
"Z@	c #4F2C00",
"`@	c #230C00",
" #	c #130400",
".#	c #080200",
"+#	c #536B67",
"@#	c #888561",
"##	c #9D9D96",
"$#	c #9D9A96",
"%#	c #9C988E",
"&#	c #9D968F",
"*#	c #94948D",
"=#	c #96928F",
"-#	c #95928E",
";#	c #8F8F88",
">#	c #6B7271",
",#	c #7B7B7B",
"'#	c #C6C6C6",
")#	c #D1D1D1",
"!#	c #6C6C6C",
"~#	c #7A7A7A",
"{#	c #E3E3E3",
"]#	c #F4F4F4",
"^#	c #AFAFAF",
"/#	c #8D8C8B",
"(#	c #5C4D50",
"_#	c #6E4301",
":#	c #341400",
"<#	c #190900",
"[#	c #140300",
"}#	c #020000",
"|#	c #050000",
"1#	c #414441",
"2#	c #41413B",
"3#	c #4D4D47",
"4#	c #726F6C",
"5#	c #726D61",
"6#	c #4E4E48",
"7#	c #4D5753",
"8#	c #A4A5A5",
"9#	c #E0E0E0",
"0#	c #ECECEC",
"a#	c #A7A7A7",
"b#	c #111111",
"c#	c #161616",
"d#	c #BABABA",
"e#	c #F7F7F7",
"f#	c #F9F9F9",
"g#	c #E9E9E9",
"h#	c #CACAC9",
"i#	c #BBBBBB",
"j#	c #718A88",
"k#	c #54472E",
"l#	c #A96F00",
"m#	c #B46C00",
"n#	c #5B2E00",
"o#	c #3A1600",
"p#	c #170500",
"q#	c #0E0500",
"r#	c #524F4B",
"s#	c #4B4B45",
"t#	c #5F5F59",
"u#	c #52524C",
"v#	c #4E5856",
"w#	c #867E7E",
"x#	c #CFCFCF",
"y#	c #D4D4D4",
"z#	c #A7A7A6",
"A#	c #4C4D4C",
"B#	c #EDEDED",
"C#	c #D4D4D3",
"D#	c #9B9B9A",
"E#	c #807F96",
"F#	c #657872",
"G#	c #5C4724",
"H#	c #B87800",
"I#	c #CD7F00",
"J#	c #AE6700",
"K#	c #904D00",
"L#	c #612F08",
"M#	c #261205",
"N#	c #7F7F78",
"O#	c #85857F",
"P#	c #938F85",
"Q#	c #928B84",
"R#	c #8D8D87",
"S#	c #8D8986",
"T#	c #8D8B80",
"U#	c #86867F",
"V#	c #878480",
"W#	c #777D7C",
"X#	c #4B5152",
"Y#	c #A1A1A1",
"Z#	c #838383",
"`#	c #7D7D7D",
" $	c #737370",
".$	c #C5C5C4",
"+$	c #C9C9C9",
"@$	c #A9A8A6",
"#$	c #88837E",
"$$	c #54494D",
"%$	c #56390C",
"&$	c #A96900",
"*$	c #A96300",
"=$	c #8A4905",
"-$	c #68320D",
";$	c #878E87",
">$	c #8E8E87",
",$	c #9C998F",
"'$	c #9A938D",
")$	c #95958F",
"!$	c #949287",
"~$	c #969389",
"{$	c #8F8D8B",
"]$	c #4D5956",
"^$	c #343C3C",
"/$	c #464747",
"($	c #C5C5C5",
"_$	c #E4E4E4",
":$	c #D0D0D0",
"<$	c #6E6E6E",
"[$	c #474746",
"}$	c #8C8A88",
"|$	c #928980",
"1$	c #867768",
"2$	c #5A4846",
"3$	c #432806",
"4$	c #7D4B00",
"5$	c #8C5000",
"6$	c #7F3D00",
"7$	c #703400",
"8$	c #4D2200",
"9$	c #351905",
"0$	c #747677",
"a$	c #EEEEEE",
"b$	c #5F5F5F",
"c$	c #3C3A36",
"d$	c #46392A",
"e$	c #442E14",
"f$	c #562B06",
"g$	c #612C00",
"h$	c #632C00",
"i$	c #5F2900",
"j$	c #462200",
"k$	c #331A00",
"l$	c #767677",
"m$	c #F6F6F6",
"n$	c #E5E5E5",
"o$	c #908F8F",
"p$	c #34322F",
"q$	c #14150E",
"r$	c #D7D7D7",
"s$	c #CACACA",
"t$	c #757574",
"u$	c #979797",
"v$	c #929292",
"w$	c #737373",
"x$	c #3C3D3D",
"y$	c #45494A",
"                                                                                                ",
"                                                                                                ",
"                                                                                                ",
"                                                                                                ",
"                                                                                                ",
"                                                                                                ",
"                                                                                                ",
"                                                                                                ",
"                                                                                                ",
"                . + + + + + @ @ # # $ $ % & . . * = - ; ; > , ' ) ! ~ { ] ^ / (                 ",
"              . + + + + + @ @ # # $ $ % & . . * - - ; ; > , ' ) _ : < [ } | 1 2                 ",
"              + + 3 4 4 4 4 4 4 5 5 6 7 7 8 9 0 0 a a b b c d e e f g h i j k l                 ",
"              + + 4 m n o p q r s m r 5 5 6 7 7 0 0 0 d e e f t f g g u v w k x                 ",
"              + + q y z y A r B 4 4 5 5 8 9 9 0 b b b c d e e f t g C D E F G H                 ",
"              + + 4 A I p s J J 7 B p p p 5 r m B 8 q s K 0 a m b L M N O P Q R                 ",
"              + @ 4 A S 5 5 r 7 7 8 9 9 0 a a b c c d d e f t t T T M U O V W X                 ",
"              @ @ 4 o J s r B m q p 5 J 6 a B c c 4 e 0 a t t T Y Y Z U `  ...+.                ",
"              # # 4 q m 6 7 7 8 9 9 0 a a b c c d d e f t t T Y Y Z Z @.#. .$.%.                ",
"              # &.s p J o m 4 p 5 5 r 7 B 4 8 d 5 6 a a b 7 4 9 d *.@.=.#.-.;.>.                ",
"              &.$ 6 s 4 7 8 9 9 0 a a b c c d e e f t t T Y Y ,.,.'.=.=.).!.~.{.                ",
"              $ % 6 4 7 4 9 9 0 a a b c c d e e f t t T Y Y ,.,.'.].=.^./.!.(._.                ",
"              % $ B s 8 s 5 J 6 7 m 8 8 s 5 0 r a b 8 c :.<.[.}.0 =.|.1./.2.3.4.                ",
"              5.. 7 5 9 9 0 a a b c c d e e f t t T 6.7.8.9.0.a.b.c.1.1.d.e.f.g.                ",
"              . . 8 6 9 0 a a 7 8 8 d e 0 f t t T h.i.j.k.l.m.n.o.p.1.q.r.e.s.t.                ",
"              . * 9 7 0 r 7 B 8 8 4 5 0 0 7 7 b 8 u.v.w.x.y.z.A.B.C.q.D.r.E.F.G.  H.I.J.K.      ",
"              * = 9 0 0 a b c c d e e f t t T Y Y L.M.N.O.P.Q.R.S.T.U.V.W.X.Y.Z.`. +.+++@+#+    ",
"              = - 0 a a b c c d e e f t t T Y Y $+%+&+*+=+-+;+>+,+'+)+!+~+{+]+^+/+(+^+_+:+<+    ",
"              - ; a a b c c d d e f t t T Y Y ,.[+}+|+1+2+3+4+5+6+7+8+9+0+a+b+c+d+e+f+g+h+i+    ",
"              ; ; a b c c d e e f t t T Y Y ,.,.j+k+l+m+n+o+p+q+r+s+t+u+v+w+x+y+z+A+B+          ",
"              ; > b c c d d e f t t T Y Y ,.,.'.C+D+E+F+G+H+I+J+K+L+M+N+O+P+Q+R+S+              ",
"              > , c c q J J r m B o q 4 T+U+V+W+X+Y+Z+`+ @.@+@@@#@$@%@&@*@=@-@;@>@              ",
"              ,@'@)@d !@!@~@g g C M M Z {@]@^@/@(@_@:@<@[@}@|@1@2@3@4@5@6@7@8@9@0@              ",
"              a@b@c@d@{ e@f@g@h@h@i@| j@k@l@m@8 n@o@p@p@p@p@q@r@s@t@u@v@w@x@y@z@A@              ",
"                B@C@D@E@E@F@G@H@I@J@K@L@M@N@O@P@<@p@p@[@Q@R@S@T@U@V@W@X@Y@Z@`@ #.#              ",
"                  +#@#####$#%#&#*#=#-#;#>#,#'#)#!#p@p@~#{#]#z K ^#/#(#_#:#<#[#}#|#              ",
"                            1#2#3#4#5#6#7#8#9#0#a#b#c#d#e#f#g#h#i#j#k#l#m#n#o#p#q#              ",
"                            r#s#t#t#u#u#v#w#x#y#z#T A#x#0#B#C#D#E#F#G#H#I#J#K#L#M#              ",
"                      N#O#P#Q#R#S#T#U#V#W#X#Y#Z#*.`#P@ $.$+$S@@$#$$$%$&$6+*$=$-$                ",
"                      ;$>$,$'$)$!$~$>$>${$]$^$/$($_$:$<$[$}$|$1$2$3$4$5$6$7$8$9$                ",
"                                              0$a$e#g#'#b$c$d$e$f$g$h$i$j$k$                    ",
"                                              l$a$m$n$'#o$p$q$                                  ",
"                                                r$9#s$A t$                                      ",
"                                                u$A v$w$x$                                      ",
"                                                  y$                                            ",
"                                                                                                ",
"                                                                                                ",
"                                                                                                ",
"                                                                                                "};
