/* XPM */
static char * gnome_gimp_xpm[] = {
"48 48 393 2",
"  	c None",
". 	c #766E5B",
"+ 	c #736C59",
"@ 	c #716A57",
"# 	c #ACA287",
"$ 	c #726A57",
"% 	c #6E6754",
"& 	c #6C6553",
"* 	c #9C947A",
"= 	c #686150",
"- 	c #665F4E",
"; 	c #9E957B",
"> 	c #8F8670",
", 	c #706856",
"' 	c #6B6452",
") 	c #67604F",
"! 	c #635C4C",
"~ 	c #958B73",
"{ 	c #857D69",
"] 	c #79715D",
"^ 	c #716957",
"/ 	c #665F4F",
"( 	c #615B4A",
"_ 	c #5D5748",
": 	c #9A8F77",
"< 	c #8C836E",
"[ 	c #7F7763",
"} 	c #756E5B",
"| 	c #746D5A",
"1 	c #6C6552",
"2 	c #5D5747",
"3 	c #948A73",
"4 	c #8A806A",
"5 	c #7F7663",
"6 	c #79715E",
"7 	c #776F5D",
"8 	c #716956",
"9 	c #706955",
"0 	c #6F6754",
"a 	c #696250",
"b 	c #625B4B",
"c 	c #5E5748",
"d 	c #5A5445",
"e 	c #938A73",
"f 	c #908771",
"g 	c #887F6A",
"h 	c #827A66",
"i 	c #7B7461",
"j 	c #776F5C",
"k 	c #786F5E",
"l 	c #7C7460",
"m 	c #7E7562",
"n 	c #68624F",
"o 	c #68614F",
"p 	c #655E4D",
"q 	c #615A4A",
"r 	c #5F5848",
"s 	c #5C5646",
"t 	c #5A5344",
"u 	c #575142",
"v 	c #F5F5F3",
"w 	c #F9F9F8",
"x 	c #C6C3BB",
"y 	c #867E6A",
"z 	c #857C6C",
"A 	c #CECBC4",
"B 	c #F3F2F0",
"C 	c #FCFCFC",
"D 	c #EDECE9",
"E 	c #A8A49A",
"F 	c #7C7763",
"G 	c #7A735E",
"H 	c #736C58",
"I 	c #66604F",
"J 	c #605A49",
"K 	c #5D5746",
"L 	c #5B5545",
"M 	c #595344",
"N 	c #565042",
"O 	c #565141",
"P 	c #565041",
"Q 	c #545040",
"R 	c #C5C5C5",
"S 	c #9E9E9E",
"T 	c #F3F3F3",
"U 	c #C5C2BB",
"V 	c #8A8372",
"W 	c #EDEBE9",
"X 	c #F5F5F5",
"Y 	c #F1F1F1",
"Z 	c #F6F6F6",
"` 	c #F3F3F2",
" .	c #CCCAC4",
"..	c #776F5B",
"+.	c #736B58",
"@.	c #645D4D",
"#.	c #585243",
"$.	c #544F40",
"%.	c #514C3E",
"&.	c #4E493C",
"*.	c #4C473A",
"=.	c #4D473A",
"-.	c #4F4A3C",
";.	c #504B3C",
">.	c #585858",
",.	c #393939",
"'.	c #C3C3C3",
").	c #797979",
"!.	c #191919",
"~.	c #B0B0B0",
"{.	c #F7F7F7",
"].	c #F8F7F7",
"^.	c #E3E1DC",
"/.	c #E6E6E6",
"(.	c #A3A3A3",
"_.	c #6E6E6E",
":.	c #BABABA",
"<.	c #EEEEEE",
"[.	c #EBEBEB",
"}.	c #E7E7E6",
"|.	c #817C6F",
"1.	c #6A6351",
"2.	c #5A5444",
"3.	c #524D3F",
"4.	c #484436",
"5.	c #444033",
"6.	c #443F32",
"7.	c #454034",
"8.	c #ADADAD",
"9.	c #A1A1A1",
"0.	c #5E5E5E",
"a.	c #2E2E2E",
"b.	c #B4B4B3",
"c.	c #1E1E1E",
"d.	c #050505",
"e.	c #A8A8A8",
"f.	c #F0EFED",
"g.	c #F2F2F1",
"h.	c #A7A7A7",
"i.	c #989898",
"j.	c #323232",
"k.	c #3F3F3F",
"l.	c #DCDCDC",
"m.	c #7F7C74",
"n.	c #6F6855",
"o.	c #67604E",
"p.	c #575143",
"q.	c #4F493B",
"r.	c #484336",
"s.	c #433E32",
"t.	c #3F3C2F",
"u.	c #3E3B2F",
"v.	c #403B2F",
"w.	c #6D6D6D",
"x.	c #B5B5B5",
"y.	c #A5A5A5",
"z.	c #333333",
"A.	c #313131",
"B.	c #444340",
"C.	c #8D887E",
"D.	c #ADADAC",
"E.	c #E9E9E9",
"F.	c #C6C1B7",
"G.	c #E3E2DE",
"H.	c #9F9F9F",
"I.	c #232323",
"J.	c #0A0A0A",
"K.	c #515151",
"L.	c #E8E8E8",
"M.	c #DADADA",
"N.	c #D1D1D1",
"O.	c #77736B",
"P.	c #645D4C",
"Q.	c #5B5546",
"R.	c #534E3F",
"S.	c #4C4639",
"T.	c #443E33",
"U.	c #3F3A2F",
"V.	c #3D392E",
"W.	c #3C382C",
"X.	c #505050",
"Y.	c #7C7C7C",
"Z.	c #6F6F6F",
"`.	c #464646",
" +	c #353535",
".+	c #3E3E3E",
"++	c #4A4949",
"@+	c #5D584C",
"#+	c #9A9385",
"$+	c #AFACA5",
"%+	c #B0ADA8",
"&+	c #918C7F",
"*+	c #877E69",
"=+	c #9F9B90",
"-+	c #D9D9D8",
";+	c #494949",
">+	c #C1C1C1",
",+	c #DBDBDB",
"'+	c #D2D2D2",
")+	c #BFBFBE",
"!+	c #6B6557",
"~+	c #5F5948",
"{+	c #4F4A3B",
"]+	c #484337",
"^+	c #423D33",
"/+	c #3E392D",
"(+	c #3D382D",
"_+	c #3B372C",
":+	c #363636",
"<+	c #4F4F4F",
"[+	c #3C3C3C",
"}+	c #4B4B4B",
"|+	c #575757",
"1+	c #5E5B54",
"2+	c #7A7260",
"3+	c #817964",
"4+	c #857C67",
"5+	c #877F69",
"6+	c #807864",
"7+	c #C0BDB6",
"8+	c #DDDDDD",
"9+	c #D9D9D9",
"0+	c #D6D6D6",
"a+	c #C2C2C1",
"b+	c #9D9A90",
"c+	c #6A6251",
"d+	c #544E40",
"e+	c #464235",
"f+	c #413D31",
"g+	c #3D3A2E",
"h+	c #39352A",
"i+	c #282828",
"j+	c #373737",
"k+	c #3D3D3D",
"l+	c #424242",
"m+	c #4D4D4D",
"n+	c #595959",
"o+	c #656564",
"p+	c #68655F",
"q+	c #6D6655",
"r+	c #766F5B",
"s+	c #7B7561",
"t+	c #807863",
"u+	c #827B65",
"v+	c #7B735F",
"w+	c #888376",
"x+	c #8D8A83",
"y+	c #92908A",
"z+	c #8B8880",
"A+	c #6F6A5B",
"B+	c #645E4D",
"C+	c #5A5345",
"D+	c #504A3C",
"E+	c #494437",
"F+	c #3F3B2F",
"G+	c #3E3A2E",
"H+	c #3E392E",
"I+	c #707070",
"J+	c #696660",
"K+	c #625D4D",
"L+	c #6B6652",
"M+	c #746E59",
"N+	c #7A735F",
"O+	c #7D7561",
"P+	c #7C745F",
"Q+	c #7A725E",
"R+	c #706956",
"S+	c #6D6653",
"T+	c #696251",
"U+	c #5E5848",
"V+	c #464236",
"W+	c #474437",
"X+	c #4B4638",
"Y+	c #403C31",
"Z+	c #3D392D",
"`+	c #3C382D",
" @	c #5B5B5B",
".@	c #686867",
"+@	c #737373",
"@@	c #7D7C7B",
"#@	c #5C5950",
"$@	c #585444",
"%@	c #6E6753",
"&@	c #746C59",
"*@	c #6F6755",
"=@	c #655E4E",
"-@	c #3F3C31",
";@	c #3A3830",
">@	c #4B483E",
",@	c #443F33",
"'@	c #413D30",
")@	c #676767",
"!@	c #747373",
"~@	c #7E7E7D",
"{@	c #75736E",
"]@	c #504B3F",
"^@	c #504C3D",
"/@	c #5C5645",
"(@	c #635B4A",
"_@	c #6A6350",
":@	c #676050",
"<@	c #665F4D",
"[@	c #565242",
"}@	c #434035",
"|@	c #403D36",
"1@	c #4D4B43",
"2@	c #5C584F",
"3@	c #3E392F",
"4@	c #3C392E",
"5@	c #3C392D",
"6@	c #363328",
"7@	c #6E6C65",
"8@	c #605C54",
"9@	c #524E41",
"0@	c #4B4739",
"a@	c #484437",
"b@	c #4C483A",
"c@	c #575042",
"d@	c #5B5645",
"e@	c #5C5747",
"f@	c #595445",
"g@	c #3E3A2F",
"h@	c #292720",
"i@	c #685F55",
"j@	c #756B5D",
"k@	c #6B6254",
"l@	c #5E5548",
"m@	c #3F392C",
"n@	c #3B362A",
"o@	c #383429",
"p@	c #4A4437",
"q@	c #494536",
"r@	c #4D4739",
"s@	c #4E483B",
"t@	c #4F4B3C",
"u@	c #4F4A3D",
"v@	c #4A4538",
"w@	c #39362C",
"x@	c #2E2B23",
"y@	c #27251E",
"z@	c #292620",
"A@	c #37352D",
"B@	c #545045",
"C@	c #6C6354",
"D@	c #766654",
"E@	c #766450",
"F@	c #705D45",
"G@	c #66553E",
"H@	c #5C4C37",
"I@	c #584934",
"J@	c #25231C",
"K@	c #24211B",
"L@	c #191713",
"M@	c #141310",
"N@	c #14120F",
"O@	c #151411",
"P@	c #1F1D1A",
"Q@	c #292722",
"R@	c #38362E",
"S@	c #46423A",
"T@	c #57534A",
"U@	c #646156",
"V@	c #6D6A5F",
"W@	c #615E54",
"X@	c #453F32",
"Y@	c #5F523D",
"Z@	c #7F694D",
"`@	c #907757",
" #	c #947B58",
".#	c #927958",
"+#	c #8B7353",
"@#	c #7A654A",
"##	c #0F0E0B",
"$#	c #0E0C09",
"%#	c #11100E",
"&#	c #1C1A17",
"*#	c #262520",
"=#	c #33322B",
"-#	c #514D44",
";#	c #5D5950",
">#	c #656257",
",#	c #636054",
"'#	c #BC9C72",
")#	c #C09E74",
"!#	c #838383",
"~#	c #606060",
"{#	c #EDEDED",
"]#	c #E0E0E0",
"^#	c #939393",
"/#	c #1B1B1B",
"(#	c #222222",
"_#	c #3A3A3A",
":#	c #292929",
"                                                                                                ",
"                                                                                                ",
"                                                                                                ",
"                                                                                                ",
"                                                                                                ",
"                                                                                                ",
"                                                                                                ",
"                                                                                                ",
"                                                                                                ",
"                                                                                                ",
"                                                                                .               ",
"                                                                              + @               ",
"                      #                                                     $ % &               ",
"                        *                                                   & = -               ",
"                        ; >                                             , ' ) !                 ",
"                          ~ { ]                                       ^ ' / ( _                 ",
"                          : < [ }                                 | @ 1 = ! 2                   ",
"                            3 4 5 6 7                       8 9 0 1 a / b c d                   ",
"                            e f g h i j k l m         a n a o - p ! q r s t u                   ",
"                        v w x y > z A B C D E F G H & I ! J K L M u N O P Q                     ",
"                      R S T w U V W X Y T Z `  ...+.' @.2 #.$.%.&.*.=.-.;.                      ",
"          >.,.      '.).!.~.{.].^./.(._.:.<.[.}.|.$ 1.b 2.3.*.4.5.6.7.4.                        ",
"        8.9.0.a.    b.c.d.e.Z f.g.h.i.j.k.<./.l.m.n.o.r p.q.r.s.t.u.v.                          ",
"      w.x.y.0.z.A.B.C.D.(.E.E.F.G.H.I.J.K.L.M.N.O.& P.Q.R.S.T.U.V.W.                            ",
"      X.Y.Z.`. +.+++@+#+$+%+&+*+=+-+>.;+>+,+'+)+!+= ~+u {+]+^+/+(+_+                            ",
"      :+<+;+[+k.}+|+1+2+3+4+5+5+6+7+8+9+9+0+a+b+c+@.s d+*.e+f+g+(+h+                            ",
"      i+j+k+l+m+n+o+p+q+r+s+t+u+3+v+w+x+y+z+A+= B+C+3.D+E+7.F+G+H+                              ",
"        :+l+m+n+o+I+J+K+L+M+N+O+P+Q+..+ R+S+T+p U+V+W+X+5.Y+(+Z+`+                              ",
"          X. @.@+@@@#@$@~+- %@+ &@@ *@1 a =@b U+-@;@>@,@'@Z+`+Z+                                ",
"            )@!@~@{@]@^@O /@(@_@T+:@<@! q c [@}@|@1@2@Y+3@4@5@6@                                ",
"              7@8@9@0@a@b@3.c@d@e@d f@#.&.g@h@i@j@k@l@m@n@`+o@                                  ",
"                r %.p@V+q@r@s@t@u@v@w@x@y@z@A@B@C@D@E@F@G@H@I@                                  ",
"                      y@J@K@L@M@N@O@P@Q@R@S@T@U@V@W@X@Y@Z@`@ #.#+#@#                            ",
"                          ##$#%#&#*#=#|@-#;#>#,#}@              '#)#  ~.!#~#                    ",
"                                                                      {#]#'.^#                  ",
"                                                                                /#z.            ",
"                                                                                J.(#_#          ",
"                                                                                    :#          ",
"                                                                                                ",
"                                                                                                ",
"                                                                                                ",
"                                                                                                ",
"                                                                                                ",
"                                                                                                ",
"                                                                                                ",
"                                                                                                ",
"                                                                                                ",
"                                                                                                "};
