/* XPM */
static char * gnome_terminal_xpm[] = {
"48 48 519 2",
"  	c None",
". 	c #D7D7CF",
"+ 	c #EFEBDF",
"@ 	c #E7E7DF",
"# 	c #E7E3D7",
"$ 	c #DFDFD7",
"% 	c #DFDBD7",
"& 	c #DFD7CF",
"* 	c #D7D3C7",
"= 	c #D7CFC7",
"- 	c #CFCFC7",
"; 	c #CFCBBE",
"> 	c #CFC7BE",
", 	c #C7C7BE",
"' 	c #C7C3BE",
") 	c #C7BEB6",
"! 	c #BDBDB5",
"~ 	c #BCB8B4",
"{ 	c #BBB7AB",
"] 	c #B6AEA7",
"^ 	c #9B9B94",
"/ 	c #8F8C81",
"( 	c #7D7A76",
"_ 	c #BEBEB6",
": 	c #BEBAB6",
"< 	c #BCB8AC",
"[ 	c #B9B1A9",
"} 	c #AEAEA6",
"| 	c #A9A6A2",
"1 	c #A4A196",
"2 	c #83807C",
"3 	c #B6B2B6",
"4 	c #797979",
"5 	c #717571",
"6 	c #717171",
"7 	c #696D69",
"8 	c #696969",
"9 	c #616561",
"0 	c #616161",
"a 	c #595D59",
"b 	c #595959",
"c 	c #515551",
"d 	c #515151",
"e 	c #494D49",
"f 	c #494949",
"g 	c #484448",
"h 	c #474347",
"i 	c #3E3E3E",
"j 	c #7C7C7C",
"k 	c #A39C95",
"l 	c #918A83",
"m 	c #8E8E8E",
"n 	c #C7C3C7",
"o 	c #9E9A9E",
"p 	c #969696",
"q 	c #8E8A8E",
"r 	c #868286",
"s 	c #868686",
"t 	c #494549",
"u 	c #3F3F3F",
"v 	c #3E393E",
"w 	c #3C373C",
"x 	c #96938F",
"y 	c #B6B6B6",
"z 	c #E7E7E7",
"A 	c #A6A6A6",
"B 	c #797D79",
"C 	c #404040",
"D 	c #3F3B3F",
"E 	c #3D393D",
"F 	c #343434",
"G 	c #9B9894",
"H 	c #979489",
"I 	c #BEC3BE",
"J 	c #969296",
"K 	c #9E9E9E",
"L 	c #585858",
"M 	c #403B40",
"N 	c #3F3A3F",
"O 	c #353535",
"P 	c #333333",
"Q 	c #9C988D",
"R 	c #909089",
"S 	c #B6BAB6",
"T 	c #414141",
"U 	c #363636",
"V 	c #2C302C",
"W 	c #95958D",
"X 	c #908D89",
"Y 	c #413C41",
"Z 	c #747072",
"` 	c #5A5754",
" .	c #303030",
"..	c #2C2C2C",
"+.	c #95918D",
"@.	c #8F8C88",
"#.	c #797678",
"$.	c #E9E8E7",
"%.	c #A39B94",
"&.	c #34302C",
"*.	c #282828",
"=.	c #94908D",
"-.	c #8F8881",
";.	c #E7DFD7",
">.	c #585C58",
",.	c #5D605C",
"'.	c #A8A5A4",
").	c #7C7872",
"!.	c #6A6969",
"~.	c #5D605D",
"{.	c #C4C2C0",
"].	c #E0DEDC",
"^.	c #958C85",
"/.	c #38312C",
"(.	c #1A1919",
"_.	c #242724",
":.	c #958D86",
"<.	c #898982",
"[.	c #8C8A8A",
"}.	c #E0DCD9",
"|.	c #8C8077",
"1.	c #453E3B",
"2.	c #424242",
"3.	c #C6C3C1",
"4.	c #C6BEB8",
"5.	c #8D8077",
"6.	c #302C27",
"7.	c #0A0B09",
"8.	c #222222",
"9.	c #8D8D86",
"0.	c #898682",
"a.	c #454145",
"b.	c #8D8884",
"c.	c #B4ABA3",
"d.	c #7E736B",
"e.	c #38322C",
"f.	c #4B4845",
"g.	c #9A918A",
"h.	c #988B80",
"i.	c #74675D",
"j.	c #221E1A",
"k.	c #050505",
"l.	c #1E1E1E",
"m.	c #8D8A86",
"n.	c #656565",
"o.	c #615E5A",
"p.	c #7C7068",
"q.	c #413A34",
"r.	c #0C0B0A",
"s.	c #1A1A18",
"t.	c #504943",
"u.	c #5B5048",
"v.	c #39322D",
"w.	c #080807",
"x.	c #1F1B1F",
"y.	c #88827B",
"z.	c #DFDBCF",
"A.	c #807F7E",
"B.	c #565453",
"C.	c #373336",
"D.	c #2A2723",
"E.	c #050504",
"F.	c #020202",
"G.	c #191919",
"H.	c #242423",
"I.	c #25231F",
"J.	c #131110",
"K.	c #040404",
"L.	c #100E10",
"M.	c #1B1B1B",
"N.	c #8D867F",
"O.	c #827E7B",
"P.	c #434343",
"Q.	c #E3E2E2",
"R.	c #A19993",
"S.	c #2F2D2C",
"T.	c #2A2A2A",
"U.	c #171917",
"V.	c #292929",
"W.	c #262A26",
"X.	c #2E2E2E",
"Y.	c #363534",
"Z.	c #252223",
"`.	c #1B1A1A",
" +	c #1C1C1C",
".+	c #86837F",
"++	c #827F7B",
"@+	c #636262",
"#+	c #B6AFAA",
"$+	c #716862",
"%+	c #1B1917",
"&+	c #383B38",
"*+	c #484848",
"=+	c #2F2F2F",
"-+	c #464845",
";+	c #A5A4A3",
">+	c #DDDCDA",
",+	c #DEDBD8",
"'+	c #B9B1AA",
")+	c #887D73",
"!+	c #423B36",
"~+	c #787571",
"{+	c #827B7B",
"]+	c #3B363A",
"^+	c #786D65",
"/+	c #3F3934",
"(+	c #020201",
"_+	c #1D1C1C",
":+	c #676866",
"<+	c #D9D7D5",
"[+	c #E4E1DE",
"}+	c #D0CAC6",
"|+	c #CAC4BE",
"1+	c #ACA49E",
"2+	c #9D9086",
"3+	c #534A41",
"4+	c #464340",
"5+	c #787871",
"6+	c #373737",
"7+	c #333332",
"8+	c #1A1916",
"9+	c #080808",
"0+	c #232323",
"a+	c #656765",
"b+	c #E1DFDC",
"c+	c #DAD4D0",
"d+	c #B5ABA3",
"e+	c #9F9288",
"f+	c #988B81",
"g+	c #847970",
"h+	c #6E6259",
"i+	c #28231F",
"j+	c #1A1A19",
"k+	c #6F6C69",
"l+	c #7E7D7D",
"m+	c #716F6B",
"n+	c #2D2C2A",
"o+	c #252525",
"p+	c #353835",
"q+	c #D9D8D7",
"r+	c #E7E3E1",
"s+	c #B5ABA2",
"t+	c #9B8D82",
"u+	c #9A8D82",
"v+	c #9E9086",
"w+	c #918378",
"x+	c #5B5149",
"y+	c #0D0C0A",
"z+	c #1A1918",
"A+	c #6E6B68",
"B+	c #666463",
"C+	c #CDC8C5",
"D+	c #9F958D",
"E+	c #433C36",
"F+	c #242623",
"G+	c #6C6B6A",
"H+	c #E7E5E3",
"I+	c #C9C2BC",
"J+	c #A29489",
"K+	c #9D8F84",
"L+	c #9D9085",
"M+	c #83766B",
"N+	c #332D28",
"O+	c #010100",
"P+	c #312F2E",
"Q+	c #736E6E",
"R+	c #383838",
"S+	c #2F312D",
"T+	c #655C55",
"U+	c #4A423D",
"V+	c #171412",
"W+	c #232120",
"X+	c #888582",
"Y+	c #DCD7D4",
"Z+	c #AEA49C",
"`+	c #94877D",
" @	c #93857B",
".@	c #998B80",
"+@	c #756A60",
"@@	c #080706",
"#@	c #010101",
"$@	c #565151",
"%@	c #787171",
"&@	c #989898",
"*@	c #4A4949",
"=@	c #161615",
"-@	c #0D0D0D",
";@	c #3A3938",
">@	c #A19D9A",
",@	c #CCC5BF",
"'@	c #AEA49B",
")@	c #94887F",
"!@	c #7F736A",
"~@	c #4B423B",
"{@	c #100E0D",
"]@	c #020102",
"^@	c #090909",
"/@	c #070507",
"(@	c #756E6E",
"_@	c #797272",
":@	c #C6C6BD",
"<@	c #C7C3B6",
"[@	c #959195",
"}@	c #484C48",
"|@	c #2F332F",
"1@	c #252925",
"2@	c #1F1F1F",
"3@	c #1A1A1A",
"4@	c #231F22",
"5@	c #898480",
"6@	c #CFC8C3",
"7@	c #AFA49A",
"8@	c #A09287",
"9@	c #72665C",
"0@	c #191613",
"a@	c #010000",
"b@	c #080608",
"c@	c #4E524E",
"d@	c #766F6F",
"e@	c #777171",
"f@	c #B3AFA3",
"g@	c #C3BFB2",
"h@	c #BABAB2",
"i@	c #BBB7B3",
"j@	c #BAB2AA",
"k@	c #B1B1A9",
"l@	c #B1ADA9",
"m@	c #B0ACA0",
"n@	c #A8A8A0",
"o@	c #A9A5A1",
"p@	c #A9A199",
"q@	c #A19D99",
"r@	c #A29E9A",
"s@	c #A09991",
"t@	c #999591",
"u@	c #93908C",
"v@	c #8F8984",
"w@	c #CBC3BC",
"x@	c #AEA299",
"y@	c #928579",
"z@	c #4F463F",
"A@	c #030202",
"B@	c #3A3937",
"C@	c #787272",
"D@	c #7C7575",
"E@	c #7A7473",
"F@	c #CAC6C4",
"G@	c #E6E3E1",
"H@	c #DBD7D3",
"I@	c #C3BAB3",
"J@	c #9B978C",
"K@	c #B2AEAA",
"L@	c #B2AEA3",
"M@	c #A9A9A2",
"N@	c #A8A499",
"O@	c #A7A098",
"P@	c #9F9F98",
"Q@	c #AF7B6F",
"R@	c #A78A82",
"S@	c #A19992",
"T@	c #918D82",
"U@	c #A76F68",
"V@	c #997C6F",
"W@	c #91918A",
"X@	c #98918A",
"Y@	c #9F6B60",
"Z@	c #987B6F",
"`@	c #87837F",
" #	c #817A78",
".#	c #C4BBB4",
"+#	c #AFA39A",
"@#	c #918276",
"##	c #423A34",
"$#	c #080B02",
"%#	c #636F2D",
"&#	c #736C6C",
"*#	c #898380",
"=#	c #D1CAC4",
"-#	c #BCB2AA",
";#	c #A69A90",
">#	c #4D443D",
",#	c #536B67",
"'#	c #888561",
")#	c #9D9D96",
"!#	c #9D9A96",
"~#	c #9C988E",
"{#	c #9D968F",
"]#	c #94948D",
"^#	c #96928F",
"/#	c #95928E",
"(#	c #8F8F88",
"_#	c #8E8B87",
":#	c #8E8780",
"<#	c #888481",
"[#	c #86827F",
"}#	c #888181",
"|#	c #867F7F",
"1#	c #6E6A66",
"2#	c #BEB5AD",
"3#	c #B1A69D",
"4#	c #928378",
"5#	c #50463E",
"6#	c #0F0E0D",
"7#	c #555050",
"8#	c #6D6767",
"9#	c #595952",
"0#	c #374342",
"a#	c #716A64",
"b#	c #A79A90",
"c#	c #9D8E84",
"d#	c #817368",
"e#	c #221E1B",
"f#	c #414441",
"g#	c #41413B",
"h#	c #4D4D47",
"i#	c #726F6C",
"j#	c #726D61",
"k#	c #4E4E48",
"l#	c #5C5C55",
"m#	c #79766D",
"n#	c #79796D",
"o#	c #5B5B54",
"p#	c #6C655B",
"q#	c #78786C",
"r#	c #72726C",
"s#	c #55554E",
"t#	c #504C49",
"u#	c #A2978E",
"v#	c #ADA197",
"w#	c #94857A",
"x#	c #73665C",
"y#	c #3B342E",
"z#	c #A79A91",
"A#	c #75685E",
"B#	c #100E0C",
"C#	c #524F4B",
"D#	c #4B4B45",
"E#	c #5F5F59",
"F#	c #52524C",
"G#	c #525652",
"H#	c #69695F",
"I#	c #696259",
"J#	c #535653",
"K#	c #5F5C52",
"L#	c #676058",
"M#	c #675E58",
"N#	c #918379",
"O#	c #9E9085",
"P#	c #95867A",
"Q#	c #84766A",
"R#	c #85796E",
"S#	c #DEDAD7",
"T#	c #A3978E",
"U#	c #524841",
"V#	c #7F7F78",
"W#	c #85857F",
"X#	c #938F85",
"Y#	c #928B84",
"Z#	c #8D8D87",
"`#	c #8D8986",
" $	c #8D8B80",
".$	c #86867F",
"+$	c #878480",
"@$	c #867F79",
"#$	c #7E7C78",
"$$	c #807C79",
"%$	c #7F7979",
"&$	c #797773",
"*$	c #797673",
"=$	c #777470",
"-$	c #59534E",
";$	c #7E7168",
">$	c #9B8E83",
",$	c #998A7E",
"'$	c #A19489",
")$	c #B1A69C",
"!$	c #C3BBB4",
"~$	c #DBD5D1",
"{$	c #E1DDDA",
"]$	c #C5BDB6",
"^$	c #8B7F75",
"/$	c #27221E",
"($	c #878E87",
"_$	c #8E8E87",
":$	c #9C998F",
"<$	c #9A938D",
"[$	c #95958F",
"}$	c #949287",
"|$	c #969389",
"1$	c #8F8B88",
"2$	c #8E8B80",
"3$	c #878080",
"4$	c #898282",
"5$	c #807D79",
"6$	c #706A63",
"7$	c #585049",
"8$	c #776B61",
"9$	c #8E8075",
"0$	c #97887C",
"a$	c #9C8E84",
"b$	c #A09288",
"c$	c #A89C92",
"d$	c #A99D93",
"e$	c #998C81",
"f$	c #4B433C",
"g$	c #695D53",
"h$	c #897A6F",
"i$	c #A2948A",
"j$	c #9C8E83",
"k$	c #9F9186",
"l$	c #9E9186",
"m$	c #443C35",
"n$	c #5C5148",
"o$	c #73665B",
"p$	c #786B61",
"q$	c #5A5048",
"r$	c #1E1B18",
"s$	c #1F1B18",
"t$	c #0E0C0B",
"                                                                                                ",
"                                                                                                ",
"                                                                                                ",
"                                                                                                ",
"                                                                                                ",
"                                                                                                ",
"                                                                                                ",
"                                                                                                ",
"                                                                                                ",
"                . + + + + + @ @ # # $ $ % & . . * = - ; ; > , ' ) ! ~ { ] ^ / (                 ",
"              . + + + + + @ @ # # $ $ % & . . * - - ; ; > , ' ) _ : < [ } | 1 2                 ",
"              + + 3 4 4 4 4 4 4 5 5 6 7 7 8 9 0 0 a a b b c d e e f g h i j k l                 ",
"              + + 4 m n o p q r s m r 5 5 6 7 7 0 0 0 d e e f t f g g u v w k x                 ",
"              + + q y z y A r B 4 4 5 5 8 9 9 0 b b b c d e e f t g C D E F G H                 ",
"              + + 4 A I p s J J 7 B p p p 5 r m B 8 q s K 0 a m b L M N O P Q R                 ",
"              + @ 4 A S 5 5 r 7 7 8 9 9 0 a a b c c d d e f t t T T M U O V W X                 ",
"              @ @ 4 o J s r B m q p 5 J 6 a B c c 4 e 0 a t t T Y Z `  .V ..+.@.                ",
"              # # 4 q m 6 7 7 8 9 9 0 a a b c c d d e f g t T M #.$.%.&.*...=.-.                ",
"              # ;.s p J o m 4 p 5 5 r 7 B 4 8 d 5 6 >.,.'.).!.~.{.].^./.(._.:.<.                ",
"              ;.$ 6 s 4 7 8 9 9 0 a a b c c d e e f h [.}.|.1.2.3.4.5.6.7.8.9.0.                ",
"              $ % 6 4 7 4 9 9 0 a a b c c d e e f t a.b.c.d.e.f.g.h.i.j.k.l.m.0.                ",
"              % $ B s 8 s 5 J 6 7 m 8 8 s 5 0 r a b n.o.p.q.r.s.t.u.v.w.k.x.m.y.                ",
"              z.. 7 5 9 9 0 a a b c c d e e f t h A.B.C.D.E.F.G.H.I.J.K.L.M.N.O.                ",
"              . . 8 6 9 0 a a 7 8 8 d e 0 f t t P.Q.R.S.T.U.G.V.W.X.Y.Z.`. +.+++                ",
"              . * 9 7 0 r 7 B 8 8 4 5 0 0 7 7 b @+#+$+%+&+*+=+-+;+>+,+'+)+!+~+{+                ",
"              * = 9 0 0 a b c c d e e f t t T Y ]+^+/+(+_+=+:+<+[+}+|+1+2+3+4+5+                ",
"              = - 0 a a b c c d e e f t t T Y Y 6+7+8+9+0+a+b+c+d+e+f+g+h+i+j+k+                ",
"              - ; a a b c c d d e f t t T Y Y 6+l+m+n+o+p+q+r+s+t+u+v+w+x+y+z+A+                ",
"              ; ; a b c c d e e f t t T Y Y 6+B+C+D+E+F+G+H+I+J+K+t+L+M+N+O+P+Q+                ",
"              ; > b c c d d e f t t T Y Y R+6+S+T+U+V+W+X+Y+Z+`+ @.@+@e.@@#@$@%@                ",
"              > , c c q J J r m B o q 4 p 5 r &@*@=@-@;@>@,@'@)@!@~@{@]@^@/@(@_@                ",
"              :@<@[@d }@}@*+g g C M M 6+6+|@=+=+1@2@3@4@5@6@7@8@9@0@a@k.b@c@d@e@                ",
"              f@g@h@i@{ j@k@l@m@m@n@| o@p@q@q@r@s@t@t@u@v@w@x@y@z@A@B@C@D@E@F@G@H@I@            ",
"                J@K@L@M@M@o@N@O@P@Q@R@S@T@U@V@W@X@Y@Z@`@ #.#+#@###$#%#%@&#*#4.=#-#;#>#          ",
"                  ,#'#)#)#!#~#{#]#^#/#(#_#_#@.:#<#[#}#|#1#2#3#4#5#6#7#8#9#0#a#b#c#d#e#          ",
"                            f#g#h#i#j#k#l#m#n#o#p#q#r#s#t#u#v#w#x#y#            z#A#B#          ",
"                            C#D#E#E#F#F#E#E#G#E#H#I#J#K#L#M#N#O#P#Q#R#        S#T#U#            ",
"                      V#W#X#Y#Z#`# $.$+$.+.+@$#$$$%$&$*$=$-$;$>$,$P#'$)$!$~${$]$^$/$            ",
"                      ($_$:$<$[$}$|$_$_$1$2$-..+<#3$4$5$5$6$7$8$9$0$t+a$b$c$d$e$f$              ",
"                                                                g$h$8@i$j$k$l$8$                ",
"                                                                  m$n$o$p$  q$                  ",
"                                                                      r$e#s$t$                  ",
"                                                                                                ",
"                                                                                                ",
"                                                                                                ",
"                                                                                                ",
"                                                                                                ",
"                                                                                                "};
