/* XPM */
static char * gnome_color_xterm_xpm[] = {
"48 48 392 2",
"  	c None",
". 	c #D7D7CF",
"+ 	c #EFEBDF",
"@ 	c #E7E7DF",
"# 	c #E7E3D7",
"$ 	c #DFDFD7",
"% 	c #DFDBD7",
"& 	c #DFD7CF",
"* 	c #D7D3C7",
"= 	c #D7CFC7",
"- 	c #CFCFC7",
"; 	c #CFCBBE",
"> 	c #CFC7BE",
", 	c #C7C7BE",
"' 	c #C7C3BE",
") 	c #C7BEB6",
"! 	c #BDBDB5",
"~ 	c #BCB8B4",
"{ 	c #BBB7AB",
"] 	c #B6AEA7",
"^ 	c #9B9B94",
"/ 	c #8F8C81",
"( 	c #7D7A76",
"_ 	c #BEBEB6",
": 	c #BEBAB6",
"< 	c #BCB8AC",
"[ 	c #B9B1A9",
"} 	c #AEAEA6",
"| 	c #A9A6A2",
"1 	c #A4A196",
"2 	c #83807C",
"3 	c #B6B2B6",
"4 	c #797979",
"5 	c #717571",
"6 	c #717171",
"7 	c #696D69",
"8 	c #696969",
"9 	c #616561",
"0 	c #616161",
"a 	c #595D59",
"b 	c #595959",
"c 	c #515551",
"d 	c #515151",
"e 	c #494D49",
"f 	c #494949",
"g 	c #484448",
"h 	c #474347",
"i 	c #3E3E3E",
"j 	c #7C7C7C",
"k 	c #A39C95",
"l 	c #918A83",
"m 	c #8E8E8E",
"n 	c #C7C3C7",
"o 	c #9E9A9E",
"p 	c #969696",
"q 	c #8E8A8E",
"r 	c #868286",
"s 	c #868686",
"t 	c #494549",
"u 	c #3F3F3F",
"v 	c #3E393E",
"w 	c #3C373C",
"x 	c #96938F",
"y 	c #B6B6B6",
"z 	c #E7E7E7",
"A 	c #A6A6A6",
"B 	c #797D79",
"C 	c #404040",
"D 	c #3F3B3F",
"E 	c #3D393D",
"F 	c #343434",
"G 	c #9B9894",
"H 	c #979489",
"I 	c #BEC3BE",
"J 	c #969296",
"K 	c #9E9E9E",
"L 	c #585858",
"M 	c #403B40",
"N 	c #3F3A3F",
"O 	c #353535",
"P 	c #333333",
"Q 	c #9C988D",
"R 	c #909089",
"S 	c #B6BAB6",
"T 	c #414141",
"U 	c #363636",
"V 	c #2C302C",
"W 	c #95958D",
"X 	c #908D89",
"Y 	c #413C41",
"Z 	c #373737",
"` 	c #2D312D",
" .	c #2C2C2C",
"..	c #95918D",
"+.	c #8F8C88",
"@.	c #2F332F",
"#.	c #2D2D2D",
"$.	c #94908D",
"%.	c #8F8881",
"&.	c #E7DFD7",
"*.	c #912E33",
"=.	c #FF001A",
"-.	c #E7071F",
";.	c #514B4A",
">.	c #505050",
",.	c #2F2F2F",
"'.	c #252825",
").	c #958D86",
"!.	c #898982",
"~.	c #4C4F4B",
"{.	c #B80F49",
"].	c #FF005C",
"^.	c #B70C4D",
"/.	c #454145",
"(.	c #383838",
"_.	c #303430",
":.	c #262A26",
"<.	c #252525",
"[.	c #8D8D86",
"}.	c #7C7573",
"|.	c #D4004E",
"1.	c #4A4347",
"2.	c #EF0294",
"3.	c #FF009E",
"4.	c #791857",
"5.	c #303030",
"6.	c #272A27",
"7.	c #262626",
"8.	c #888581",
"9.	c #BC1B80",
"0.	c #F60097",
"a.	c #603C5A",
"b.	c #FE00E1",
"c.	c #654162",
"d.	c #272B27",
"e.	c #272727",
"f.	c #242024",
"g.	c #9A318E",
"h.	c #DFDBCF",
"i.	c #73197F",
"j.	c #DA00FF",
"k.	c #C802EB",
"l.	c #342E35",
"m.	c #262226",
"n.	c #381042",
"o.	c #882E92",
"p.	c #464246",
"q.	c #770ABE",
"r.	c #9800FF",
"s.	c #6F08B9",
"t.	c #2E2E2E",
"u.	c #282C28",
"v.	c #282828",
"w.	c #272327",
"x.	c #1D1723",
"y.	c #9100F5",
"z.	c #8215C8",
"A.	c #5A585E",
"B.	c #5204EE",
"C.	c #5400FF",
"D.	c #301176",
"E.	c #1C1C1E",
"F.	c #4502D4",
"G.	c #4E01E5",
"H.	c #777373",
"I.	c #827B7B",
"J.	c #272346",
"K.	c #1402FF",
"L.	c #1A193D",
"M.	c #1E1E1E",
"N.	c #1008A2",
"O.	c #121022",
"P.	c #86827E",
"Q.	c #7B7B74",
"R.	c #122374",
"S.	c #002FFF",
"T.	c #012EF0",
"U.	c #211F28",
"V.	c #1F1F1F",
"W.	c #0C206A",
"X.	c #0B1342",
"Y.	c #161616",
"Z.	c #7E7E77",
"`.	c #7A7773",
" +	c #2D2E2E",
".+	c #0852B5",
"++	c #0072FF",
"@+	c #094187",
"#+	c #132436",
"$+	c #0071FB",
"%+	c #073A7F",
"&+	c #151515",
"*+	c #161216",
"=+	c #7E7A77",
"-+	c #7B7774",
";+	c #202929",
">+	c #029FE2",
",+	c #00B4FF",
"'+	c #01A0E3",
")+	c #123442",
"!+	c #02A0E0",
"~+	c #037BB2",
"{+	c #141617",
"]+	c #0E0E0E",
"^+	c #7D7976",
"/+	c #797373",
"(+	c #183B3E",
"_+	c #00F2FA",
":+	c #00EEF6",
"<+	c #104649",
"[+	c #05B2B6",
"}+	c #0B4849",
"|+	c #171317",
"1+	c #7C7575",
"2+	c #797272",
"3+	c #3C7C6A",
"4+	c #00FFC4",
"5+	c #36907D",
"6+	c #1FA582",
"7+	c #06E6B0",
"8+	c #686D6E",
"9+	c #525252",
"0+	c #0E0A0E",
"a+	c #7B7474",
"b+	c #C6C6BD",
"c+	c #C7C3B6",
"d+	c #959195",
"e+	c #484C48",
"f+	c #484848",
"g+	c #1B3026",
"h+	c #00FD80",
"i+	c #079954",
"j+	c #0F4E2F",
"k+	c #00FF81",
"l+	c #02AF57",
"m+	c #0C0A0C",
"n+	c #555955",
"o+	c #7A7373",
"p+	c #787171",
"q+	c #B3AFA3",
"r+	c #C3BFB2",
"s+	c #BABAB2",
"t+	c #BBB7B3",
"u+	c #BAB2AA",
"v+	c #B1B1A9",
"w+	c #B1ADA9",
"x+	c #B0ACA0",
"y+	c #A8A8A0",
"z+	c #A9A5A1",
"A+	c #A9A199",
"B+	c #A19D99",
"C+	c #A29E9A",
"D+	c #A09991",
"E+	c #999591",
"F+	c #85867F",
"G+	c #0AE63F",
"H+	c #0DDF42",
"I+	c #81807C",
"J+	c #797C75",
"K+	c #04F33F",
"L+	c #00FF3E",
"M+	c #2F8E42",
"N+	c #767070",
"O+	c #64645D",
"P+	c #9B978C",
"Q+	c #B2AEAA",
"R+	c #B2AEA3",
"S+	c #A9A9A2",
"T+	c #A8A499",
"U+	c #A7A098",
"V+	c #9F9F98",
"W+	c #AF7B6F",
"X+	c #A78A82",
"Y+	c #A19992",
"Z+	c #918D82",
"`+	c #A76F68",
" @	c #997C6F",
".@	c #91918A",
"+@	c #98918A",
"@@	c #99675C",
"#@	c #23C216",
"$@	c #0CF609",
"%@	c #70776A",
"&@	c #827F7B",
"*@	c #6F6F68",
"=@	c #52754E",
"-@	c #0AFF07",
";@	c #496643",
">@	c #5F5F59",
",@	c #585852",
"'@	c #536B67",
")@	c #888561",
"!@	c #9D9D96",
"~@	c #9D9A96",
"{@	c #9C988E",
"]@	c #9D968F",
"^@	c #94948D",
"/@	c #96928F",
"(@	c #95928E",
"_@	c #8F8F88",
":@	c #8E8B87",
"<@	c #8E8780",
"[@	c #888481",
"}@	c #4E9B2B",
"|@	c #45FF00",
"1@	c #59764B",
"2@	c #817D7A",
"3@	c #807D79",
"4@	c #807979",
"5@	c #797972",
"6@	c #448E28",
"7@	c #42ED03",
"8@	c #384C45",
"9@	c #414441",
"0@	c #41413B",
"a@	c #4D4D47",
"b@	c #726F6C",
"c@	c #726D61",
"d@	c #4E4E48",
"e@	c #5C5C55",
"f@	c #79766D",
"g@	c #79796D",
"h@	c #5B5B54",
"i@	c #596D30",
"j@	c #88FF00",
"k@	c #5B882B",
"l@	c #54544D",
"m@	c #5C5855",
"n@	c #4E4A48",
"o@	c #53504D",
"p@	c #5DB300",
"q@	c #63B600",
"r@	c #524F4B",
"s@	c #4B4B45",
"t@	c #52524C",
"u@	c #525652",
"v@	c #545643",
"w@	c #C4F502",
"x@	c #97BA10",
"y@	c #505350",
"z@	c #5F5C52",
"A@	c #706960",
"B@	c #706A6A",
"C@	c #595952",
"D@	c #5D5F57",
"E@	c #B9EA00",
"F@	c #CBFF00",
"G@	c #7F7F78",
"H@	c #85857F",
"I@	c #938F85",
"J@	c #928B84",
"K@	c #8D8D87",
"L@	c #8D8986",
"M@	c #8D8B80",
"N@	c #86867F",
"O@	c #878480",
"P@	c #86837F",
"Q@	c #7A736B",
"R@	c #DCCD0A",
"S@	c #DFD509",
"T@	c #726D69",
"U@	c #797773",
"V@	c #797673",
"W@	c #79736D",
"X@	c #73736D",
"Y@	c #6E6C68",
"Z@	c #696663",
"`@	c #5E5E55",
" #	c #5F5E36",
".#	c #FCED00",
"+#	c #878E87",
"@#	c #8E8E87",
"##	c #9C998F",
"$#	c #9A938D",
"%#	c #95958F",
"&#	c #949287",
"*#	c #969389",
"=#	c #8F8B88",
"-#	c #878479",
";#	c #BB841B",
">#	c #F4A703",
",#	c #756E5F",
"'#	c #878080",
")#	c #898282",
"!#	c #817A73",
"~#	c #76736F",
"{#	c #6F6B69",
"]#	c #6E6C63",
"^#	c #FFAD00",
"/#	c #F1A200",
"(#	c #FF6B00",
"_#	c #FF2900",
"                                                                                                ",
"                                                                                                ",
"                                                                                                ",
"                                                                                                ",
"                                                                                                ",
"                                                                                                ",
"                                                                                                ",
"                                                                                                ",
"                                                                                                ",
"                . + + + + + @ @ # # $ $ % & . . * = - ; ; > , ' ) ! ~ { ] ^ / (                 ",
"              . + + + + + @ @ # # $ $ % & . . * - - ; ; > , ' ) _ : < [ } | 1 2                 ",
"              + + 3 4 4 4 4 4 4 5 5 6 7 7 8 9 0 0 a a b b c d e e f g h i j k l                 ",
"              + + 4 m n o p q r s m r 5 5 6 7 7 0 0 0 d e e f t f g g u v w k x                 ",
"              + + q y z y A r B 4 4 5 5 8 9 9 0 b b b c d e e f t g C D E F G H                 ",
"              + + 4 A I p s J J 7 B p p p 5 r m B 8 q s K 0 a m b L M N O P Q R                 ",
"              + @ 4 A S 5 5 r 7 7 8 9 9 0 a a b c c d d e f t t T T M U O V W X                 ",
"              @ @ 4 o J s r B m q p 5 J 6 a B c c 4 e 0 a t t T Y Y Z U `  ...+.                ",
"              # # 4 q m 6 7 7 8 9 9 0 a a b c c d d e f t t T Y Y Z Z @.#. .$.%.                ",
"              # &.s p J o m 4 p 5 5 r 7 *.=.=.=.=.-.;.a b 7 4 9 d >.@.,.#.'.).!.  =.            ",
"              &.$ 6 s 4 7 8 9 9 0 a a b ~.{.].].].].^./.T Y Y (.(._.,.,.:.<.[.}.|.              ",
"              $ % 6 4 7 4 9 9 0 a a b c c 1.2.3.3.3.3.4.Y Y (.(._.5.,.6.7.<.8.9.0.              ",
"              % $ B s 8 s 5 J 6 7 m 8 8 s 5 a.b.b.b.b.b.c.d 0 _.0 ,.d.e.7.f.g.b.                ",
"              h.. 7 5 9 9 0 a a b c c d e e f i.j.j.j.j.k.l._.5.5.d.e.e.m.n.j.o.                ",
"              . . 8 6 9 0 a a 7 8 8 d e 0 f t p.q.r.r.r.r.s.t.5.u.v.e.w.x.y.z.(                 ",
"              . * 9 7 0 r 7 B 8 8 4 5 0 0 7 7 b A.B.C.C.C.C.D.d.v.v.w.E.F.G.H.I.                ",
"              * = 9 0 0 a b c c d e e f t t T Y Y J.K.K.K.K.K.L.v.w.M.N.K.O.P.Q.                ",
"              = - 0 a a b c c d e e f t t T Y Y (.(.R.S.S.S.S.T.U.V.W.S.X.Y.Z.`.                ",
"              - ; a a b c c d d e f t t T Y Y (.(._. +.+++++++++@+#+$+%+&+*+=+-+                ",
"              ; ; a b c c d e e f t t T Y Y (.(._.5.5.;+>+,+,+'+)+!+~+{+*+]+^+/+                ",
"              ; > b c c d d e f t t T Y Y (.(._.5.5.u.v.(+_+:+<+[+_+}+|+]+]+1+2+                ",
"              > , c c q J J r m B o q 4 p 5 r K 6 7 m 8 3+4+5+6+4+4+7+8+9+0+a+2+                ",
"              b+c+d+d e+e+f+g g C M M Z Z @.,.,.d.e.e.g+h+i+j+k+k+k+k+l+m+n+o+p+                ",
"              q+r+s+t+{ u+v+w+x+x+y+| z+A+B+B+C+D+E+F+G+H+I+J+K+L+L+L+L+M+o+N+O+                ",
"                P+Q+R+S+S+z+T+U+V+W+X+Y+Z+`+ @.@+@@@#@$@%@&@*@=@-@-@-@-@-@;@>@,@                ",
"                  '@)@!@!@~@{@]@^@/@(@_@:@:@+.<@[@}@|@1@2@3@4@5@6@|@|@|@|@7@8@                  ",
"                            9@0@a@b@c@d@e@f@g@h@i@j@k@l@m@e@n@o@  p@j@j@j@j@q@                  ",
"                            r@s@>@>@t@t@>@>@u@v@w@x@y@z@A@B@C@D@    E@F@F@F@F@                  ",
"                      G@H@I@J@K@L@M@N@O@P@P@Q@R@S@T@U@V@`.W@X@Y@Z@`@ #.#.#.#.#.#                ",
"                      +#@###$#%#&#*#@#@#=#-#;#>#,#'#)#3@3@!#5@~#{#]#    ^#^#^#^#/#              ",
"                                            (#                            (#(#(#(#              ",
"                                          _#                                _#_#_#_#            ",
"                                                                                                ",
"                                                                                                ",
"                                                                                                ",
"                                                                                                ",
"                                                                                                ",
"                                                                                                ",
"                                                                                                "};
