/* XPM */
static char * gnome_eterm_xpm[] = {
"48 48 514 2",
"  	c None",
". 	c #D7D7CF",
"+ 	c #EFEBDF",
"@ 	c #E7E7DF",
"# 	c #E7E3D7",
"$ 	c #DFDFD7",
"% 	c #DFDBD7",
"& 	c #DFD7CF",
"* 	c #D7D3C7",
"= 	c #D7CFC7",
"- 	c #CFCFC7",
"; 	c #CFCBBE",
"> 	c #CFC7BE",
", 	c #C7C7BE",
"' 	c #C7C3BE",
") 	c #C7BEB6",
"! 	c #BDBDB5",
"~ 	c #BCB8B4",
"{ 	c #BBB7AB",
"] 	c #B6AEA7",
"^ 	c #9B9B94",
"/ 	c #8F8C81",
"( 	c #7D7A76",
"_ 	c #BEBEB6",
": 	c #BEBAB6",
"< 	c #BCB8AC",
"[ 	c #B9B1A9",
"} 	c #AEAEA6",
"| 	c #A9A6A2",
"1 	c #A4A196",
"2 	c #83807C",
"3 	c #B6B2B6",
"4 	c #797979",
"5 	c #717571",
"6 	c #717171",
"7 	c #696D69",
"8 	c #696969",
"9 	c #616561",
"0 	c #616161",
"a 	c #595D59",
"b 	c #595959",
"c 	c #515551",
"d 	c #515151",
"e 	c #494D49",
"f 	c #494949",
"g 	c #484448",
"h 	c #474347",
"i 	c #3E3E3E",
"j 	c #7C7C7C",
"k 	c #A39C95",
"l 	c #918A83",
"m 	c #8E8E8E",
"n 	c #C7C3C7",
"o 	c #9E9A9E",
"p 	c #969696",
"q 	c #8E8A8E",
"r 	c #868286",
"s 	c #868686",
"t 	c #909090",
"u 	c #928E91",
"v 	c #7E827E",
"w 	c #747874",
"x 	c #727272",
"y 	c #494549",
"z 	c #3F3F3F",
"A 	c #3E393E",
"B 	c #3C373C",
"C 	c #96938F",
"D 	c #B6B6B6",
"E 	c #E7E7E7",
"F 	c #A6A6A6",
"G 	c #797D79",
"H 	c #7B7B7B",
"I 	c #979797",
"J 	c #C2C2C0",
"K 	c #C3C1BE",
"L 	c #949291",
"M 	c #747773",
"N 	c #676A67",
"O 	c #404040",
"P 	c #3F3B3F",
"Q 	c #3D393D",
"R 	c #343434",
"S 	c #9B9894",
"T 	c #979489",
"U 	c #BEC3BE",
"V 	c #969296",
"W 	c #777A76",
"X 	c #C7C7C3",
"Y 	c #EFE8E1",
"Z 	c #F1E8E0",
"` 	c #E5DCD5",
" .	c #BAB0A3",
"..	c #A6A0A0",
"+.	c #959595",
"@.	c #7A7E7A",
"#.	c #9E9E9E",
"$.	c #585858",
"%.	c #403B40",
"&.	c #3F3A3F",
"*.	c #353535",
"=.	c #333333",
"-.	c #9C988D",
";.	c #909089",
">.	c #B6BAB6",
",.	c #6B6F6B",
"'.	c #9C9C99",
").	c #E7E0DB",
"!.	c #A7764A",
"~.	c #50351B",
"{.	c #E3C7A6",
"].	c #EBE1D8",
"^.	c #B49877",
"/.	c #807B76",
"(.	c #5A5E5A",
"_.	c #414141",
":.	c #363636",
"<.	c #2C302C",
"[.	c #95958D",
"}.	c #908D89",
"|.	c #9D9D9D",
"1.	c #DCD7D6",
"2.	c #F2E7DE",
"3.	c #92653B",
"4.	c #CF9F73",
"5.	c #EFE2D6",
"6.	c #C49C76",
"7.	c #7E6C56",
"8.	c #656864",
"9.	c #7A7A7A",
"0.	c #413C41",
"a.	c #373737",
"b.	c #2D312D",
"c.	c #2C2C2C",
"d.	c #95918D",
"e.	c #8F8C88",
"f.	c #6C706C",
"g.	c #A4A2A1",
"h.	c #EBE3DD",
"i.	c #CB9B6B",
"j.	c #3B2713",
"k.	c #996A3F",
"l.	c #EADAC9",
"m.	c #D2C3B3",
"n.	c #997F66",
"o.	c #685D4D",
"p.	c #646362",
"q.	c #535353",
"r.	c #2F332F",
"s.	c #2D2D2D",
"t.	c #94908D",
"u.	c #8F8881",
"v.	c #E7DFD7",
"w.	c #8A8A8A",
"x.	c #D9D4D1",
"y.	c #F0E4D9",
"z.	c #D1A275",
"A.	c #B68356",
"B.	c #DDBA94",
"C.	c #C4A17E",
"D.	c #8A715A",
"E.	c #6D6054",
"F.	c #685F57",
"G.	c #7E817D",
"H.	c #505050",
"I.	c #2F2F2F",
"J.	c #252825",
"K.	c #958D86",
"L.	c #898982",
"M.	c #6B6B6B",
"N.	c #939490",
"O.	c #E0D4C8",
"P.	c #F0E3D8",
"Q.	c #EAD7BF",
"R.	c #C39162",
"S.	c #7C5836",
"T.	c #77614A",
"U.	c #7A6F5E",
"V.	c #6F6A64",
"W.	c #5E605C",
"X.	c #383838",
"Y.	c #303430",
"Z.	c #262A26",
"`.	c #252525",
" +	c #8D8D86",
".+	c #898682",
"++	c #6E716E",
"@+	c #BFBAB3",
"#+	c #EEE0D3",
"$+	c #E7CFB3",
"%+	c #6D4A29",
"&+	c #64472D",
"*+	c #90826E",
"=+	c #6C6E69",
"-+	c #5E5E5D",
";+	c #4F534F",
">+	c #4C504C",
",+	c #303030",
"'+	c #272A27",
")+	c #262626",
"!+	c #8D8A86",
"~+	c #919390",
"{+	c #E7DCD4",
"]+	c #EFE1D3",
"^+	c #CA996A",
"/+	c #3A2919",
"(+	c #98785B",
"_+	c #8A8785",
":+	c #8C8B8B",
"<+	c #272B27",
"[+	c #272727",
"}+	c #252125",
"|+	c #88827B",
"1+	c #DFDBCF",
"2+	c #94908C",
"3+	c #D9B791",
"4+	c #EDDDCB",
"5+	c #E9D4BA",
"6+	c #C69A70",
"7+	c #9E8266",
"8+	c #6E6D6C",
"9+	c #4D514D",
"0+	c #262226",
"a+	c #1D1D1D",
"b+	c #8D867F",
"c+	c #827E7B",
"d+	c #858580",
"e+	c #DACDBD",
"f+	c #ECDBC7",
"g+	c #E8D3BA",
"h+	c #D3A881",
"i+	c #BBA185",
"j+	c #75736B",
"k+	c #6A6969",
"l+	c #4B4B4B",
"m+	c #282C28",
"n+	c #282828",
"o+	c #272327",
"p+	c #1E1E1E",
"q+	c #86837F",
"r+	c #827F7B",
"s+	c #777A75",
"t+	c #A79179",
"u+	c #D2B18E",
"v+	c #E0BE99",
"w+	c #ECDAC7",
"x+	c #DBC4A9",
"y+	c #927761",
"z+	c #72716F",
"A+	c #6F736F",
"B+	c #1F1F1F",
"C+	c #1D1A1D",
"D+	c #827B7B",
"E+	c #606060",
"F+	c #656056",
"G+	c #81674C",
"H+	c #7B5530",
"I+	c #E8D1B4",
"J+	c #E9D6BD",
"K+	c #CAAF8F",
"L+	c #836D5D",
"M+	c #635D5F",
"N+	c #4D4D4D",
"O+	c #433E43",
"P+	c #1E1A1E",
"Q+	c #161616",
"R+	c #86827E",
"S+	c #7B7B74",
"T+	c #555955",
"U+	c #615D59",
"V+	c #695945",
"W+	c #B69471",
"X+	c #E0C5A5",
"Y+	c #DECFC0",
"Z+	c #A4988A",
"`+	c #6A615E",
" @	c #554F53",
".@	c #282428",
"+@	c #1F1B1F",
"@@	c #7E7E77",
"#@	c #7A7773",
"$@	c #555555",
"%@	c #575954",
"&@	c #6B5C4E",
"*@	c #8B684A",
"=@	c #CEA981",
"-@	c #E7CFB2",
";@	c #DDCBB8",
">@	c #A9998A",
",@	c #696055",
"'@	c #525150",
")@	c #353935",
"!@	c #202020",
"~@	c #171717",
"{@	c #161216",
"]@	c #7E7A77",
"^@	c #7B7774",
"/@	c #4A4E4A",
"(@	c #5E595B",
"_@	c #675951",
":@	c #604B38",
"<@	c #855D38",
"[@	c #DCBC99",
"}@	c #E1CFBB",
"|@	c #B19A80",
"1@	c #736450",
"2@	c #4D4C4B",
"3@	c #0E0E0E",
"4@	c #7D7976",
"5@	c #797373",
"6@	c #514D51",
"7@	c #535352",
"8@	c #595252",
"9@	c #6F5848",
"0@	c #A6815E",
"a@	c #DFC8AC",
"b@	c #E2C9AA",
"c@	c #B28B66",
"d@	c #9C8C7A",
"e@	c #5A5B56",
"f@	c #201C20",
"g@	c #171317",
"h@	c #7C7575",
"i@	c #797272",
"j@	c #908C90",
"k@	c #808080",
"l@	c #A3A1A0",
"m@	c #938675",
"n@	c #A48263",
"o@	c #D3AB84",
"p@	c #E9D5BD",
"q@	c #E4D4C0",
"r@	c #CBBEAE",
"s@	c #969089",
"t@	c #8B8A89",
"u@	c #918D91",
"v@	c #717971",
"w@	c #848084",
"x@	c #6E6E6E",
"y@	c #807C80",
"z@	c #525252",
"A@	c #0E0A0E",
"B@	c #7B7474",
"C@	c #C6C6BD",
"D@	c #C7C3B6",
"E@	c #959195",
"F@	c #484C48",
"G@	c #484848",
"H@	c #4B4D48",
"I@	c #584C40",
"J@	c #57412C",
"K@	c #B38C62",
"L@	c #E2CBAD",
"M@	c #E0CBB0",
"N@	c #C6B7A7",
"O@	c #867564",
"P@	c #504D4A",
"Q@	c #2C282C",
"R@	c #181818",
"S@	c #0D0A0D",
"T@	c #7A7373",
"U@	c #787171",
"V@	c #B3AFA3",
"W@	c #C3BFB2",
"X@	c #BABAB2",
"Y@	c #BBB7B3",
"Z@	c #BAB2AA",
"`@	c #B1B1A9",
" #	c #B1ADA9",
".#	c #B0ACA0",
"+#	c #A8A8A0",
"@#	c #A9A5A1",
"##	c #A9A199",
"$#	c #A4A19D",
"%#	c #ABA6A2",
"&#	c #AFA69C",
"*#	c #AB927A",
"=#	c #917152",
"-#	c #956E48",
";#	c #DDC19E",
">#	c #DDC4A6",
",#	c #C4AC92",
"'#	c #B0A8A2",
")#	c #9D9696",
"!#	c #8B8B83",
"~#	c #87837F",
"{#	c #85817D",
"]#	c #817A7A",
"^#	c #7D7676",
"/#	c #767070",
"(#	c #64645D",
"_#	c #9B978C",
":#	c #B2AEAA",
"<#	c #B2AEA3",
"[#	c #A9A9A2",
"}#	c #A8A499",
"|#	c #A7A098",
"1#	c #9F9F98",
"2#	c #AF7B6F",
"3#	c #A78A82",
"4#	c #A19992",
"5#	c #918D82",
"6#	c #A76F68",
"7#	c #9A7E71",
"8#	c #989892",
"9#	c #A69E96",
"0#	c #AE7C69",
"a#	c #947057",
"b#	c #8E6E51",
"c#	c #BA8A60",
"d#	c #DEC4A6",
"e#	c #CAB69C",
"f#	c #B1A694",
"g#	c #969F6A",
"h#	c #97BB25",
"i#	c #8A9B3F",
"j#	c #766F6F",
"k#	c #726B6B",
"l#	c #5F5F59",
"m#	c #585852",
"n#	c #536B67",
"o#	c #888561",
"p#	c #9D9D96",
"q#	c #9D9A96",
"r#	c #9C988E",
"s#	c #9D968F",
"t#	c #94948D",
"u#	c #96928F",
"v#	c #95928E",
"w#	c #8F8F88",
"x#	c #8E8B87",
"y#	c #8E8780",
"z#	c #8B8784",
"A#	c #8F8B88",
"B#	c #978F8E",
"C#	c #9F8F83",
"D#	c #8E745E",
"E#	c #7C5C3D",
"F#	c #CEA277",
"G#	c #BB8E65",
"H#	c #A79A8C",
"I#	c #7F7C79",
"J#	c #6F6969",
"K#	c #6D6767",
"L#	c #5A5A53",
"M#	c #415252",
"N#	c #415353",
"O#	c #414441",
"P#	c #41413B",
"Q#	c #4D4D47",
"R#	c #726F6C",
"S#	c #726D61",
"T#	c #4E4E48",
"U#	c #5C5C55",
"V#	c #79766D",
"W#	c #79796D",
"X#	c #5B5B54",
"Y#	c #6C655B",
"Z#	c #78786C",
"`#	c #767670",
" $	c #65645E",
".$	c #76706C",
"+$	c #867764",
"@$	c #7F5E40",
"#$	c #BA8E67",
"$$	c #524F4B",
"%$	c #4B4B45",
"&$	c #52524C",
"*$	c #525652",
"=$	c #69695F",
"-$	c #696259",
";$	c #535653",
">$	c #605D54",
",$	c #766F66",
"'$	c #827C7C",
")$	c #898275",
"!$	c #967C5F",
"~$	c #7F7F78",
"{$	c #85857F",
"]$	c #938F85",
"^$	c #928B84",
"/$	c #8D8D87",
"($	c #8D8986",
"_$	c #8D8B80",
":$	c #86867F",
"<$	c #878480",
"[$	c #867F79",
"}$	c #7E7C78",
"|$	c #807C79",
"1$	c #7F7979",
"2$	c #797773",
"3$	c #797673",
"4$	c #7A746E",
"5$	c #7E7E78",
"6$	c #8B8682",
"7$	c #74736B",
"8$	c #62615A",
"9$	c #878E87",
"0$	c #8E8E87",
"a$	c #9C998F",
"b$	c #9A938D",
"c$	c #95958F",
"d$	c #949287",
"e$	c #969389",
"f$	c #8E8B80",
"g$	c #888481",
"h$	c #878080",
"i$	c #898282",
"j$	c #807D79",
"k$	c #817A73",
"l$	c #797972",
"m$	c #787571",
"n$	c #726F6D",
"o$	c #6F6D64",
"                                                                                                ",
"                                                                                                ",
"                                                                                                ",
"                                                                                                ",
"                                                                                                ",
"                                                                                                ",
"                                                                                                ",
"                                                                                                ",
"                                                                                                ",
"                . + + + + + @ @ # # $ $ % & . . * = - ; ; > , ' ) ! ~ { ] ^ / (                 ",
"              . + + + + + @ @ # # $ $ % & . . * - - ; ; > , ' ) _ : < [ } | 1 2                 ",
"              + + 3 4 4 4 4 4 4 5 5 6 7 7 8 9 0 0 a a b b c d e e f g h i j k l                 ",
"              + + 4 m n o p q r s t u v w x 7 7 0 0 0 d e e f y f g g z A B k C                 ",
"              + + q D E D F r G H I J K L M N 0 b b b c d e e f y g O P Q R S T                 ",
"              + + 4 F U p s V V W X Y Z `  ...+.@.8 q s #.0 a m b $.%.&.*.=.-.;.                ",
"              + @ 4 F >.5 5 r ,.'.).!.~.{.].^./.(.c d d e f y y _._.%.:.*.<.[.}.                ",
"              @ @ 4 o V s r G |.1.2.3.~.4.5.6.7.8.9.e 0 a y y _.0.0.a.:.b.c.d.e.                ",
"              # # 4 q m 6 7 f.g.h.i.j.k.l.m.n.o.p.q.e f y y _.0.0.a.a.r.s.c.t.u.                ",
"              # v.s p V o m w.x.y.z.A.B.C.D.E.F.G.x a a b 7 4 9 d H.r.I.s.J.K.L.                ",
"              v.$ 6 s 4 7 M.N.O.P.Q.R.S.T.U.V.W.c f y y _.0.0.X.X.Y.I.I.Z.`. +.+                ",
"              $ % 6 4 7 4 ++@+#+$+%+&+*+=+-+;+>+f y y _.0.0.X.X.Y.,+I.'+)+`.!+.+                ",
"              % $ G s 8 s ~+{+]+^+/+(+_+:+5 0 r a b 8 c 8 d 0 Y.0 I.<+[+)+}+!+|+                ",
"              1+. 7 5 9 9 2+3+4+5+6+7+8+9+e f y y _._.0.X.X.Y.,+,+<+[+[+0+a+b+c+                ",
"              . . 8 6 9 0 d+e+f+g+h+i+j+k+l+y y _.0.0.X.X.Y.,+,+m+n+[+o+p+a+q+r+                ",
"              . * 9 7 0 r s+t+u+v+w+x+y+z+A+,.b 8 8 9 0 e f ,+m+n+n+o+B+p+C+q+D+                ",
"              * = 9 0 0 a E+F+G+H+I+J+K+L+M+N+O+0.X.X.Y.,+,+m+n+n+o+B+B+P+Q+R+S+                ",
"              = - 0 a a b T+(.U+V+W+X+J+Y+Z+`+ @z X.Y.,+,+m+n+n+.@B+B++@Q+Q+@@#@                ",
"              - ; a a b c c $@$.%@&@*@=@-@;@>@,@'@)@,+,+m+n+n+.@!@B++@~@Q+{@]@^@                ",
"              ; ; a b c c d e /@H.(@_@:@<@[@}@|@1@2@R m+n+n+.@!@!@+@~@~@{@3@4@5@                ",
"              ; > b c c d d e f y 6@7@8@9@0@a@b@c@d@e@a.c..@!@!@f@~@~@g@3@3@h@i@                ",
"              > , c c q V V r m G o j@k@l@m@n@o@p@q@r@s@t@u@s v@s w@x@y@z@A@B@i@                ",
"              C@D@E@d F@F@G@g g O %.%.a.z H@I@J@K@L@M@N@O@P@Q@R@Q+{@3@3@S@T+T@U@                ",
"              V@W@X@Y@{ Z@`@ #.#.#+#| @###$#%#&#*#=#-#;#>#,#'#)#!#~#{#]#^#T@/#(#                ",
"                _#:#<#[#[#@#}#|#1#2#3#4#5#6#7#8#9#0#a#b#c#d#e#f#g#h#i#i@j#k#l#m#                ",
"                  n#o#p#p#q#r#s#t#u#v#w#x#x#e.y#z#A#B#C#D#E#F#G#H#I#J#K#L#M#N#                  ",
"                            O#P#Q#R#S#T#U#V#W#X#Y#Z#`# $.$+$@$#$                                ",
"                            $$%$l#l#&$&$l#l#*$l#=$-$;$>$,$'$)$!$                                ",
"                      ~${$]$^$/$($_$:$<$q+q+[$}$|$1$2$3$#@4$5$<$6$7$8$                          ",
"                      9$0$a$b$c$d$e$0$0$A#f$u.q+g$h$i$j$j$k$l$m$n$o$                            ",
"                                                                                                ",
"                                                                                                ",
"                                                                                                ",
"                                                                                                ",
"                                                                                                ",
"                                                                                                ",
"                                                                                                ",
"                                                                                                ",
"                                                                                                "};
