/* XPM */
static char * opera_sharp_xpm[] = {
"48 48 4 1",
" 	c None",
".	c #FFFF00000000",
"X	c #878787878787",
"o	c #8A8A8A8A8A8A",
"                                                ",
"                                                ",
"                                                ",
"                          ..........            ",
"                        ..............          ",
"                      .......    .......        ",
"                     ......        ......       ",
"                    ......          ......      ",
"                   .......          .......     ",
"                  ........          ........    ",
"                 ........            ........   ",
"                 ........            ........   ",
"                .........            .........  ",
"                .........            .........  ",
"                ........              ........  ",
"               .........              ......... ",
"               .........              ......... ",
"               .........              ......... ",
"               .........              ......... ",
"              ..........              ..........",
"              ..........              ..........",
"              ..........              ..........",
"          XXXX..........X             ..........",
"      XXXXXXXX..........XXX           ..........",
"    XXXXXXX   ..........XXXXXX        ..........",
"  XXXXXXXX    ..........XXXXXXXXX     ..........",
" XXXXXXXX     ..........  XXXXXXXXX   ..........",
" XXXXXXXX      .........   XXXXXXXXX  ......... ",
" XXXXXXXXX     .........    XXXXXXXXX ......... ",
" XXXXXXXXX     .........     XXXXXXXXX......... ",
" XXXXXXXXXX    .........      XXXXXXXX......... ",
" oXXXXXXXXXo    ........       XXXXXXX........  ",
"  XXXXXXXXXXX   .........       XXXXX.........  ",
"   XXXXXXXXXXX  .........        XXXX.........  ",
"    XXXXXXXXXXX  ........         XXX........   ",
"     XXXXXXXXXXX ........          XX........   ",
"      XXXXXXXXXXX ........          ........    ",
"        oXXXXXXXXoX.......          .......     ",
"         XXXXXXXXXXX......          ......      ",
"           XXXXXXXXXX......        ......       ",
"             XXXXXXXXX.......    .......        ",
"                 XXXXXXX..............          ",
"                     XXXXX..........            ",
"                                                ",
"                                                ",
"                                                ",
"                                                ",
"                                                "};
