/* XPM */
static char * realplay_xpm[] = {
"48 48 73 1",
" 	c #000000000000",
".	c #000008083838",
"X	c #000010107070",
"o	c #000008083030",
"O	c #000008082020",
"+	c #00002020B0B0",
"@	c #00003030F8F8",
"#	c #00002020A0A0",
"$	c #000000001818",
"%	c #000008082828",
"&	c #00002828B8B8",
"*	c #00002020A8A8",
"=	c #000000002020",
"-	c #00003838F8F8",
";	c #00003030E8E8",
":	c #00002828C0C0",
">	c #000020209898",
",	c #000018188888",
"<	c #000018188080",
"1	c #000010105858",
"2	c #000020209090",
"3	c #00003030D8D8",
"4	c #00003030E0E0",
"5	c #000018186868",
"6	c #000000001010",
"7	c #000000000808",
"8	c #000010105050",
"9	c #00002828D8D8",
"0	c #00003030F0F0",
"q	c #000010106060",
"w	c #000018187878",
"e	c #00002828C8C8",
"r	c #000010104848",
"t	c #080808080808",
"y	c #000018187070",
"u	c #00002828D0D0",
"i	c #606060606060",
"p	c #A8A8A8A8A8A8",
"a	c #808080808080",
"s	c #181818181818",
"d	c #F8F8F8F8F8F8",
"f	c #101010101010",
"g	c #383838383838",
"h	c #C8C8C8C8C8C8",
"j	c #585858585858",
"k	c #000008084040",
"l	c #787878787878",
"z	c #B0B0B0B0B0B0",
"x	c #B8B8B8B8B8B8",
"c	c #707070707070",
"v	c #909090909090",
"b	c #D8D8D8D8D8D8",
"n	c #202020202020",
"m	c #D0D0D0D0D0D0",
"M	c #E0E0E0E0E0E0",
"N	c #A0A0A0A0A0A0",
"B	c #404040404040",
"V	c #E8E8E8E8E8E8",
"C	c #505050505050",
"Z	c #F0F0F0F0F0F0",
"A	c #303030303030",
"S	c #484848484848",
"D	c #00002828E0E0",
"F	c #888888888888",
"G	c #282828282828",
"H	c #686868686868",
"J	c #989898989898",
"K	c #C0C0C0C0C0C0",
"L	c #000018189090",
"P	c #00002020B8B8",
"I	c #000010106868",
"U	c #000020208888",
"Y	c #000010104040",
"                                                ",
"                                                ",
"  .XXXXXXXXXXXXXXXXXXXXXXXXXXXXXXXXXXXXXXXXXXo  ",
" O+@@@@@@@@@@@@@@@@@@@@@@@@@@@@@@@@@@@@@@@@@@#$ ",
" %&@@@@@@@@@@@@@@@@@@@@@@@@@@@@@@@@@@@@@@@@@@*= ",
" %&@@@@@@@@@@@@@@@@@@@@@@@@@--@@@@@@@@@@@@@@@*$ ",
" O+@@@@@@@@@@@@@@@@@-@;:*>,<11<,2*:3@-@@@@@@@*$ ",
" O+@@@@@@@@@@@@@@@4*5.O67        76$.5*4@@@@@#6 ",
" $*@@@@@@@@@@@@;#8$                    $8#4@@>6 ",
" $>@@@@@@@@@@4>o                          %>9>6 ",
" $>@@@@@@@@0#.7                             %o7 ",
" 7<0@@@@@@4q7                                   ",
" 7w0@@@@@er                               t     ",
"  y0@@@@u.                             tippat   ",
"  y0@@@48                              spddp    ",
"  50@@0,7        ff   tft       tsft   ghddj    ",
"  q;@@9k   flzxcvbpnnvmMbNg   BpbVMhvn CMdZA    ",
"  q;@@*6   nmdddddNiMddVddZS iMddbVddztcZdmf    ",
"  8D@0<    SVddZzpFmdZcGaVdxsHNNjsaZdmnJddN     ",
"  8D@0q    cddVjtfHVdZxphZdhnnHJNxMddpnKddc     ",
"  r9@0w    Jddzf taZdVbbmmmNibddMMZddaAbddS     ",
"  ku@@#   fKddat tlZdxssSCjApddztBbddBiZdbn     ",
"  .e@@u.  nZdVC   BmdZxKVdbAzddmvmddVfFddzf     ",
"  .e@@0L6 Cddmg    jbddddmStHVddZmddmnxddFt     ",
"  o:@@@41 tsff      tBijAt   Gjjstfff fsft      ",
"  %:@@@@uk                                      ",
"  OP@@@@@uk                                     ",
"  $+@@@@@@;I7                                   ",
"  $+@@@@@@@0*k                                  ",
"  7#@@@@@@@@@;>r7                         7q8   ",
"   >@@@@@@@@@@@0&yo7                     o*@2   ",
"   2@@@@@@@@@@@@@@;u#5o67              $y9@0<   ",
"   U@@@@@@@@@@@@@@@@@@@;3&+><w%       o*0@@0w   ",
"   <0@@@@@@@@@@@@@@@@@@@@@@@-01     6y4@@@@0w   ",
"   w0@@@@@@@@@@@@@@@@@@@@@@@@eo    .+@@@@@@;5   ",
"   X;@@@@@@@@@@@@@@@@@@@@@@@0<7  6y9@@@@@@@;5   ",
"   I;@@@@@@@@@@@@@@@@@@@@@@@eo  k&@@@@@@@@@;1   ",
"   q;@@@@@@@@@@@@@@@@@@@@@@0,765;@@@@@@@@@@41   ",
"   r4@@@@@@@@@@@@@@@@@@@@@@u%.+@@@@@@@@@@@@41   ",
"   Y4@@@@@@@@@@@@@@@@@@@@@@2w4@@@@@@@@@@@@@3k   ",
"   %u@@@@@@@@@@@@@@@@@@@@@@D@@@@@@@@@@@@@@@eO   ",
"    kyXXXXXXXXXXXXXXXXXXXXwwyXXXXXXXXXXXXXyk    ",
"                                                ",
"                                                ",
"                                                ",
"                                                ",
"                                                ",
"                                                "};
