/* XPM */
static char * soffice48_xpm[] = {
"48 48 69 1",
" 	c #00000000FFFF",
".	c #272740408B8B",
"X	c #BFBFBFBFBFBF",
"o	c #BEBEBEBEFFFF",
"O	c #79797D7D7979",
"+	c #59595D5D3838",
"@	c #FFFFFFFFFFFF",
"#	c #000000000000",
"$	c #18181C1C0000",
"%	c #8E8E8A8A9696",
"&	c #B6B6B6B6E7E7",
"*	c #101034342020",
"=	c #A6A6A6A69E9E",
"-	c #DEDEDEDEDEDE",
";	c #BEBEBEBEB6B6",
":	c #AEAEAEAE9E9E",
">	c #9E9E9E9E8E8E",
",	c #969692927979",
"<	c #A6A6A6A69696",
"1	c #BEBEBABABEBE",
"2	c #8E8E8A8A7171",
"3	c #696969694949",
"4	c #9E9E9A9A8686",
"5	c #79797D7D6161",
"6	c #00007D7D0000",
"7	c #969696968E8E",
"8	c #616165654141",
"9	c #00007D7D3838",
"0	c #00005D5D7979",
"q	c #181800003838",
"w	c #00001C1C7979",
"e	c #202008084141",
"r	c #BEBEBEBEAEAE",
"t	c #F7F7F3F3EFEF",
"y	c #9E9EA2A2B6B6",
"u	c #717175755959",
"i	c #000020202020",
"p	c #969696968686",
"a	c #FFFFFFFF7979",
"s	c #868682826969",
"d	c #7F7F7F7F7F7F",
"f	c #FFFFFFFF3838",
"g	c #30304D4D9E9E",
"h	c #DFDFDBDBD7D7",
"j	c #A6A6A6A6A6A6",
"k	c #181818181818",
"l	c #8E8E45456161",
"z	c #FFFFFFFF0000",
"x	c #00005D5D0000",
"c	c #C7C7C7C7BEBE",
"v	c #202024242020",
"b	c #00001C1C0000",
"n	c #08080C0C1010",
"m	c #696900007171",
"M	c #9E9E00007979",
"N	c #00007D7D7979",
"B	c #00005D5D3838",
"V	c #202000001818",
"C	c #101000001010",
"Z	c #B6B600008E8E",
"A	c #A6A600008686",
"S	c #000051515151",
"D	c #969600007171",
"F	c #101030303030",
"G	c #000034342020",
"H	c #000034347979",
"J	c #101020204949",
"K	c #000065652020",
"L	c #00003C3C2828",
"        .XXXXXXXXXXXXXXXXXXXXXXXXXXXXXXXXXXXXXXX",
"        .XXXXXXXXXXXXXXXXXXXXXXXXXXXXXXXXXXXXXXX",
"        .XXXXXXXXXXXXXXXXXXXXXXXXXXXXXXXXXXXXXXX",
"        .XXXXXXXXXXXXXXXXXXXXXXXXXXXXXXXXXXXXXXX",
"        .XXXXXXXXXXXXXXXooOXXXXXXXXXXXXXXXXXXXXX",
"        .XXXXXXXXXXXXXXXooOOXXXXXXXXXXXXXXXXXXXX",
"        .XXXXXXXXXXXXXOO++OOOXXXXXXXXXXXXXXXXXXX",
"        .XXXXXXXXXXXXOO+  +OOOXXXXXXXXXXXXXXXXXX",
"        .XXXXXXXXXXXOO@@++ +OOOXXXXXXXXXXXXXXXXX",
"        .XXXXXXXXXXOO#@@@@+ +OOOXXXXXXXXXXXXXXXX",
"        .XXXXXXXXXOXO#@@@@+ +OOOOXXXXXXXXXXXXXXX",
"        .XXXXXXXXOOO@@+@@@o+ +++O+XXXXXXXXXXXXXX",
"        .XXXXXXXOO##@@++##@@+ +++O+XXXXXXXXXXXXX",
"        .XXXXXXXO@@@o+@@++@@o+  ++++XXXXXXXXXXXX",
"        .XXXXXXO#@@@+@@@@@+#@@++ ++++XXXXXXXXXXX",
"        .XXXXXOO#@@@+@@@@@+#@@++ +++++XXXXXXXXXX",
"        .XXXXOO@@o++@@@@@@@+@@@@+ +$++$XXXXXXXXX",
"        .XXXOO@@@+@@@@@@@@@@+@@@o+ +$$+$XXXXXXXX",
"        .XXO##@@+@@@@@@@@@@@@%##@o+ ++$$$XXXXXXX",
"        .XO@@@o+@@@@@@@@@@@@@@%%&@@+  +$$$XXXXXX",
"        .OO@@@o+@@@@@@@@@@@@@@%%&@@+  +$$$*XXXXX",
"        .O@@@@%@@@@@@@@@@@@@@@@@%=@o++ +$$**XXXX",
"        O@@@%%@@@-;;:>>>>>>>,<@@@123@@+ +$**$XXX",
"       3@@@%@@@45666o66o++6#6O22@@@7@@@+ $**$XXX",
"        3@+@--86Oo66o9@ oo 0qweert@yuu@@##iiXXXX",
"        .3oopp6o ooo9oa6666 6qwww<@@@@s###*XXXXX",
"        .3oopp6o ooo9oa6666 6qwww<@@@@s###XXXXXX",
"        .d3466 oo 6666f666666666qgh@@@jk#XXXXXXX",
"        .Xl666o6o6666fzf66  6666x6wc@@@#XXXXXXXX",
"        .d6ooo o66aafzfzffa6 6666wqv--#XXXXXXXXX",
"        .d6o66 6 6666fff666666ww6xxbnnXXXXXXXXXX",
"        .d6o66 6 6666fzf666666ww6xxbnnXXXXXXXXXX",
"        .doo  6o966666f6  666666x6bxmmXXXXXXXXXX",
"        .666ooo6666666a666 6x6ww6wxbbbMXXXXXXXXX",
"        .oo6  NBN666 66    66666x6bwbbVXXXXXXXXX",
"        .6o 66  B6   6    6666xxwxxbqqCXXXXXXXXX",
"        .6o 66  B6   6    6666xxwxxbqqCXXXXXXXXX",
"        .6 o          666666x6666xwqbb#ZXXXXXXXX",
"        . o     666666 6  6666xxw6wxqq#AXXXXXXXX",
"        .o     66666666 66x66x66xqxbbb#AXXXXXXXX",
"        . 6   6x666666x   66x6xxwwbxbbVSXXXXXXXX",
"        . 6   6x666666x   66x6xxwwbxbbVSXXXXXXXX",
"        .6q   666x66x66   x66b66qbxbbbDSXXXXXXXX",
"        .+bq   xx6bb6b6 qq 6b6bbqbqbbbSNXXXXXXXX",
"        .FbGHH  JGKKGK     JH666GGGbbbSXXXXXXXXX",
"        .LbbHHHHHKGG6KHHHHHHJ6JJLLbbSSSXXXXXXXXX",
"        .LbbHHHHHKGG6KHHHHHHJ6JJLLbbSSSXXXXXXXXX",
"        .XLbLLHHHHKK6HHHHHJJJLLLLLbbSSXXXXXXXXXX"};
