/* XPM */
static char * sound48_xpm[] = {
"48 48 245 2",
"  	c #C0C0C0C0C0C0",
". 	c #C6C6C6C6C6C6",
"X 	c #BFBFBFBFBFBF",
"o 	c #CBCBC5C5C6C6",
"O 	c #C5C5C5C5C5C5",
"+ 	c #BEBEBEBEBEBE",
"@ 	c #C2C2C2C2C1C1",
"# 	c #C1C1C1C1C0C0",
"$ 	c #C2C2C2C2C2C2",
"% 	c #C0C0C0C0BFBF",
"& 	c #BBBBBBBBBDBD",
"* 	c #AAAAAAAAB2B2",
"= 	c #B1B1B1B1B6B6",
"- 	c #BABABABABABA",
"; 	c #ACACACACACAC",
": 	c #B2B2ABABACAC",
"> 	c #C3C3C3C3C1C1",
", 	c #5C5C5C5C7F7F",
"< 	c #808080809595",
"1 	c #C1C1C1C1C1C1",
"2 	c #676767676767",
"3 	c #878787878787",
"4 	c #C4C4C4C4C4C4",
"5 	c #929292928E8E",
"6 	c #525252525858",
"7 	c #323232325D5D",
"8 	c #747474748F8F",
"9 	c #777777777777",
"0 	c #888888888888",
"q 	c #B6B6B6B6B6B6",
"w 	c #A4A4A4A4A3A3",
"e 	c #545454545C5C",
"r 	c #131313132B2B",
"t 	c #292929295555",
"y 	c #787878789292",
"u 	c #636363636363",
"i 	c #9A9A94949494",
"p 	c #A4A4A4A4A4A4",
"a 	c #3A3A3A3A3939",
"s 	c #343434346161",
"d 	c #4A4A4A4A9E9E",
"f 	c #353535356F6F",
"g 	c #767676768E8E",
"h 	c #939393938F8F",
"j 	c #525252525757",
"k 	c #303030305C5C",
"l 	c #55555555A9A9",
"z 	c #77777777E0E0",
"x 	c #53535353A8A8",
"c 	c #82828282A8A8",
"v 	c #C7C7C7C7C7C7",
"b 	c #7A7A7A7A7A7A",
"n 	c #8B8B8B8B8B8B",
"m 	c #B4B4B4B4B4B4",
"M 	c #1D1D1D1D3F3F",
"N 	c #5C5C5C5CB8B8",
"B 	c #8E8E8E8EF3F3",
"V 	c #99999999F7F7",
"C 	c #6E6E6E6ED7D7",
"Z 	c #8F8F8F8FC4C4",
"A 	c #BFBFBFBFBEBE",
"S 	c #9A9A9A9A9A9A",
"D 	c #7C7C7C7C7C7C",
"F 	c #555555555555",
"G 	c #A8A8A8A8A8A8",
"H 	c #88888888ECEC",
"J 	c #B2B2B2B2FDFD",
"K 	c #B5B5B5B5F7F7",
"L 	c #74747474D7D7",
"P 	c #8E8E8E8EC4C4",
"I 	c #646464646464",
"U 	c #51515151A6A6",
"Y 	c #8A8A8A8AF2F2",
"T 	c #ADADADADFEFE",
"R 	c #D6D6D6D6FFFF",
"E 	c #D3D3D3D3F7F7",
"W 	c #7A7A7A7AD6D6",
"Q 	c #8C8C8C8CC4C4",
"! 	c #9D9D9D9D9D9D",
"~ 	c #8A8A8A8A8A8A",
"^ 	c #ABABABABABAB",
"/ 	c #535353535353",
"( 	c #B9B9B9B9B9B9",
") 	c #A3A3A3A3A3A3",
"_ 	c #9E9E9E9E9D9D",
"` 	c #535353535959",
"' 	c #ADADADADFFFF",
"] 	c #CFCFCFCFFFFF",
"[ 	c #EEEEEEEEFFFF",
"{ 	c #DEDEDEDEF7F7",
"} 	c #7C7C7C7CD6D6",
"| 	c #8B8B8B8BC4C4",
" .	c #7B7B7B7B7B7B",
"..	c #C8C8C8C8C8C8",
"X.	c #3A3A3A3A3A3A",
"o.	c #1F1F1F1F1F1F",
"O.	c #1F1F1F1F1E1E",
"+.	c #363636366161",
"@.	c #5C5C5C5CB9B9",
"#.	c #ACACACACFDFD",
"$.	c #F0F0F0F0FFFF",
"%.	c #EDEDEDEDFFFF",
"&.	c #C2C2C2C2F7F7",
"*.	c #76767676D6D6",
"=.	c #8D8D8D8DC4C4",
"-.	c #C4C4C4C4C3C3",
";.	c #A0A0A0A0A4A4",
":.	c #2B2B2B2B3E3E",
">.	c #272727274E4E",
",.	c #444444447979",
"<.	c #69696969A0A0",
"1.	c #9C9C9C9CD4D4",
"2.	c #C5C5C5C5F8F8",
"3.	c #DDDDDDDDFFFF",
"4.	c #EAEAEAEAFFFF",
"5.	c #E9E9E9E9FFFF",
"6.	c #DFDFDFDFFFFF",
"7.	c #BBBBBBBBF8F8",
"8.	c #75757575D9D9",
"9.	c #8E8E8E8EC6C6",
"0.	c #C0C0C0C0BEBE",
"q.	c #83837D7D7E7E",
"w.	c #A2A2A2A2A2A2",
"e.	c #C2C2C2C2C0C0",
"r.	c #A9A9A9A9B3B3",
"t.	c #585858588888",
"y.	c #75757575BDBD",
"u.	c #AEAEAEAEFFFF",
"i.	c #AFAFAFAFFFFF",
"p.	c #BABABABAE3E3",
"a.	c #D3D3D3D3D1D1",
"s.	c #F7F7F7F7F5F5",
"d.	c #FCFCFCFCFFFF",
"f.	c #F1F1F1F1FFFF",
"g.	c #D5D5D5D5FFFF",
"h.	c #CCCCCCCCFFFF",
"j.	c #B3B3B3B3F4F4",
"k.	c #6C6C6C6CC7C7",
"l.	c #89898989BABA",
"z.	c #A9A9A9A9A9A9",
"x.	c #565656565656",
"c.	c #C0C0C0C0BDBD",
"v.	c #B5B5B5B5C5C5",
"b.	c #93939393DFDF",
"n.	c #BCBCBCBCF3F3",
"m.	c #F3F3F3F3FAFA",
"M.	c #F7F7F7F7F6F6",
"N.	c #FFFFFFFFFDFD",
"B.	c #ECECECECFFFF",
"V.	c #BDBDBDBDFFFF",
"C.	c #91919191E7E7",
"Z.	c #4A4A4A4A8C8C",
"A.	c #787878789595",
"S.	c #C3C3C3C3C3C3",
"D.	c #C1C1C1C1BEBE",
"F.	c #B0B0B0B0BDBD",
"G.	c #79797979BABA",
"H.	c #9D9D9D9DDCDC",
"J.	c #D3D3D3D3FFFF",
"K.	c #C2C2C2C2F4F4",
"L.	c #B7B7B7B7ECEC",
"P.	c #C9C9C9C9FBFB",
"I.	c #C2C2C2C2FFFF",
"U.	c #B4B4B4B4FFFF",
"Y.	c #B5B5B5B5FFFF",
"T.	c #ACACACACFFFF",
"R.	c #87878787E3E3",
"E.	c #404040407A7A",
"W.	c #737373738989",
"Q.	c #C3C3C3C3C2C2",
"!.	c #A4A4A4A4ABAB",
"~.	c #414141416262",
"^.	c #58585858A1A1",
"/.	c #94949494F9F9",
"(.	c #79797979E1E1",
").	c #6B6B6B6BD6D6",
"_.	c #92929292F6F6",
"`.	c #9E9E9E9EFFFF",
"'.	c #9C9C9C9CFFFF",
"].	c #A0A0A0A0FFFF",
"[.	c #89898989E4E4",
"{.	c #424242427D7D",
"}.	c #747474748B8B",
"|.	c #C5C5C5C5C4C4",
" X	c #9E9E9E9EA0A0",
".X	c #252525252C2C",
"XX	c #343434346D6D",
"oX	c #6D6D6D6DD8D8",
"OX	c #6D6D6D6DD9D9",
"+X	c #65656565D1D1",
"@X	c #6C6C6C6CD6D6",
"#X	c #92929292F7F7",
"$X	c #9C9C9C9C9C9C",
"%X	c #191919191717",
"&X	c #0D0D0D0D2727",
"*X	c #292929295F5F",
"=X	c #292929296060",
"-X	c #474747479999",
";X	c #6B6B6B6BD9D9",
":X	c #7B7B7B7BE4E4",
">X	c #90909090F4F4",
",X	c #3B3B3B3B3B3B",
"<X	c #202020201F1F",
"1X	c #383838386363",
"2X	c #54545454B1B1",
"3X	c #60606060CACA",
"4X	c #7C7C7C7CE4E4",
"5X	c #94949494F8F8",
"6X	c #9B9B9B9BFEFE",
"7X	c #A1A1A1A1FFFF",
"8X	c #545454545959",
"9X	c #1C1C1C1C3D3D",
"0X	c #69696969D7D7",
"qX	c #75757575DDDD",
"wX	c #A2A2A2A2FFFF",
"eX	c #323232325E5E",
"rX	c #454545459999",
"tX	c #94949494F6F6",
"yX	c #8B8B8B8BE6E6",
"uX	c #7F7F7F7FEAEA",
"iX	c #81818181DEDE",
"pX	c #414141417C7C",
"aX	c #757575758C8C",
"sX	c #535353535858",
"dX	c #6D6D6D6DDDDD",
"fX	c #62626262C2C2",
"gX	c #3B3B3B3B7676",
"hX	c #767676768D8D",
"jX	c #48484848A0A0",
"kX	c #57575757B7B7",
"lX	c #252525254C4C",
"zX	c #696969697272",
"xX	c #353535356565",
"cX	c #434343438D8D",
"vX	c #0D0D0D0D1C1C",
"bX	c #5C5C5C5C5959",
"nX	c #565656565F5F",
"mX	c #020202020505",
"MX	c #5E5E5E5E5D5D",
"NX	c #949494949292",
"BX	c #4B4B4B4B4747",
"VX	c #090909090909",
"CX	c #585858585858",
"ZX	c #696969696969",
"AX	c #ADADADADADAD",
"  . X X X X X X X X X X X X X X X X X X X X X X X X X X X X X X X X X X X X X X X X X X X X X X ",
". o O O O O O O O O O O O O O O O O O O O O O O O O O O O O O O O O O O O O O O O O O O O O O O ",
"X O + + + + + + + + + + + + + + + + + + + + + + + + + + + + + + + + + + + + + + + + + + + + + + ",
"X O + + + + + + + + + + + + + + + + + + + + + + + + + + + + + + + + + + + + + + + + + + + + + + ",
"X O + + + + + + + + + + + + + + + + + + + + + + + + + + + + + + + + + + + + + + + + + + + + + + ",
"X O + + + + + + + + + + + + + + + + + + + + + + + + + + + + + + + + + + + + + + + + + + + + + + ",
"X O + + + + + + + + + + + + + + + + + + + + + + + + + + + + + + + + + + + + + + + + + + + + + + ",
"X O + + + + + + + + + + + + + + + + + + + + + X @ # + + + + + + X $   + + + + + + + + + + + + + ",
"X O + + + + + + + + + + + + + + + + + + + + % & * = + + + + + X - ; : X + + + + + + + + + + + + ",
"X O + + + + + + + + + + + + + + + + + + + + > * , < X X + + + 1 ; 2 3   X + + + + + + + + + + + ",
"X O + + + + + + + + + + + + + + + + + +   4 5 6 7 8 X X + X $ $ : 3 9 0 q $ + + + + + + + + + + ",
"X O + + + + + + + + + + + + + + + + +   - w e r t y X X X - ; :     0 u i q X + + + + + + + + + ",
"X O + + + + + + + + + + + + + + + + + O p a s d f g X X 1 ; 2 3     q i u 0   X + + + + + + + + ",
"X O + + + + + + + + + + + + + + +   4 h j k l z x c X X   : 3 9 0 q v q 0 b n m   + + + + + + + ",
"X O + + + + + + + + + + + + + +   - w j M N B V C Z A A +     0 u S q X   D F G $ + + + + + + + ",
"X O + + + + + + + + + + + + + + O p a k N H J K L P A A + X X q i I 0   1 + D F G + + + + + + + ",
"X O + + + + + + + + + X 4 O O O 5 j k U Y T R E W Q % X ! ~ + v ^ / b     + b / ^ + + + + + + + ",
"X O + + + + + + + + X ( ) ! _ _ ` M N Y ' ] [ { } | % X  .F G ..+ G F D   + 0 I S + + + + + + + ",
"X O + + + + + + + + 4 ) X.o.O.O.+.@.H #.] $.%.&.*.=.% X  .F F ..+ + F D X + S I 0 X X + + + + + ",
"X O + + + + + + + + -.;.:.>.,.,.<.1.2.3.4.5.6.7.8.9.0.A + q.q.w.+ + n D : + ^ / b X X + + + + + ",
"X O + + + + + + + + e.r.t.y.u.i.p.a.s.d.f.g.h.j.k.l.A A $ z.F D + 1 D F G + G x.D X X + + + + + ",
"X O + + + + + + + + c.v.b.n.$.$.m.M.N.B.g.] V.C.Z.A.X X S.z.F  .+ 1 D F G + G x.D X X + + + + + ",
"X O + + + + + + + + D.F.G.H.J.J.K.L.P.I.U.Y.T.R.E.W.X X $ G x.D +   D x.G + G x.D X X + + + + + ",
"X O + + + + + + + + Q.!.~.^././.(.)._.`.'.'.].[.{.}.X X S.z.F  .+ 1 D F G + G x.D X X + + + + + ",
"X O + + + + + + + + |. X.XXXoXOX+X@X#X`.'.'.].[.{.}.X X $ z.F D + 1 D F G + G x.D X X + + + + + ",
"X O + + + + + + + + O $X%X&X*X=X-X;X:X>X`.'.].[.{.}.  % + q.q.w.+ m n D : + ^ / b X X + + + + + ",
"X O + + + + + + + + 4 ) ,X<Xo.o.1X2X3X4X5X6X7X[.{.}.  %  .F F ..+ G F D X + S I 0 X X + + + + + ",
"X O + + + + + + + + X ( p _ _ _ 8X9X2X0XqX/.wX[.{.}.  %  .F G ..+ G F D   + 0 I S + + + + + + + ",
"X O + + + + + + + + + X 4 O O O 5 6 eXrX0X:XtXyX{.}.  % ! ~ + v ^ / b     + b / ^ + + + + + + + ",
"X O + + + + + + + + + + + + + + O p a 7 2X3XuXiXpXaXX X + X X q i I 0   1 + D F G + + + + + + + ",
"X O + + + + + + + + + + + + + +   - w sX9X2XdXfXgXhXX X +     0 u S q X   D F G $ + + + + + + + ",
"X O + + + + + + + + + + + + + + +   4 5 6 eXjXkXlXzXX X   : 3 9 0 q v q 0 b n m   + + + + + + + ",
"X O + + + + + + + + + + + + + + + + + O p a xXcXvXbXX X 1 ; 2 3     q i u 0   X + + + + + + + + ",
"X O + + + + + + + + + + + + + + + + +   - w nXvXmXMXX X X - ; :     0 u i q X + + + + + + + + + ",
"X O + + + + + + + + + + + + + + + + + +   4 NXBXVXCXX X + X $ $ : 3 9 0 q $ + + + + + + + + + + ",
"X O + + + + + + + + + + + + + + + + + + + + O p X.ZXX X + + + 1 ; 2 3   X + + + + + + + + + + + ",
"X O + + + + + + + + + + + + + + + + + + + +   - p AX+ + + + + X - ; : X + + + + + + + + + + + + ",
"X O + + + + + + + + + + + + + + + + + + + + + X 4 $ + + + + + + X $   + + + + + + + + + + + + + ",
"X O + + + + + + + + + + + + + + + + + + + + + + + + + + + + + + + + + + + + + + + + + + + + + + ",
"X O + + + + + + + + + + + + + + + + + + + + + + + + + + + + + + + + + + + + + + + + + + + + + + ",
"X O + + + + + + + + + + + + + + + + + + + + + + + + + + + + + + + + + + + + + + + + + + + + + + ",
"X O + + + + + + + + + + + + + + + + + + + + + + + + + + + + + + + + + + + + + + + + + + + + + + ",
"X O + + + + + + + + + + + + + + + + + + + + + + + + + + + + + + + + + + + + + + + + + + + + + + ",
"X O + + + + + + + + + + + + + + + + + + + + + + + + + + + + + + + + + + + + + + + + + + + + + + ",
"X O + + + + + + + + + + + + + + + + + + + + + + + + + + + + + + + + + + + + + + + + + + + + + + ",
"X O + + + + + + + + + + + + + + + + + + + + + + + + + + + + + + + + + + + + + + + + + + + + + + ",
"X O + + + + + + + + + + + + + + + + + + + + + + + + + + + + + + + + + + + + + + + + + + + + + + ",
"X O + + + + + + + + + + + + + + + + + + + + + + + + + + + + + + + + + + + + + + + + + + + + + + "};
