/* XPM */
static char * ThreePeopleBehindPencilTablet_xpm[] = {
"48 48 239 2",
"  	c None",
". 	c #000000000000",
"X 	c #111100001111",
"o 	c #060613132323",
"O 	c #000000001111",
"+ 	c #111100003333",
"@ 	c #111100004444",
"# 	c #111111114444",
"$ 	c #111111113333",
"% 	c #222200003333",
"& 	c #666622222222",
"* 	c #000011112222",
"= 	c #555533331111",
"- 	c #777722222222",
"; 	c #333322222222",
": 	c #111111112222",
"> 	c #333344440000",
", 	c #111122220000",
"< 	c #222211111111",
"1 	c #222222222222",
"2 	c #000033330000",
"3 	c #111122221111",
"4 	c #999944441111",
"5 	c #222233330000",
"6 	c #333333330000",
"7 	c #000011111111",
"8 	c #222222223333",
"9 	c #CCCC55551111",
"0 	c #DDDD77770000",
"q 	c #777744440000",
"w 	c #EEEE66660000",
"e 	c #DDDD66660000",
"r 	c #888833330000",
"t 	c #222211112222",
"y 	c #222211114444",
"u 	c #555555556666",
"i 	c #555533332222",
"p 	c #CCCC66661111",
"a 	c #BBBB66660000",
"s 	c #666633331111",
"d 	c #333333335555",
"f 	c #AAAA9999AAAA",
"g 	c #EEEEEEEEEEEE",
"h 	c #AAAAAAAABBBB",
"j 	c #333355555555",
"k 	c #111100002222",
"l 	c #777744441111",
"z 	c #444444440000",
"x 	c #444422221111",
"c 	c #000011113333",
"v 	c #444444445555",
"b 	c #BBBBCCCCBBBB",
"n 	c #EEEEEEEEFFFF",
"m 	c #AAAACCCCCCCC",
"M 	c #8888AAAABBBB",
"N 	c #8888AAAAAAAA",
"B 	c #555588888888",
"V 	c #999955550000",
"C 	c #BBBB77773333",
"Z 	c #333311111111",
"A 	c #666666667777",
"S 	c #CCCCBBBBCCCC",
"D 	c #DDDDEEEEEEEE",
"F 	c #BBBBBBBBCCCC",
"G 	c #9999AAAABBBB",
"H 	c #88889999AAAA",
"J 	c #7777AAAAAAAA",
"K 	c #222211113333",
"L 	c #BBBB66661111",
"P 	c #DDDD77772222",
"I 	c #666666668888",
"U 	c #DDDDEEEEDDDD",
"Y 	c #DDDDDDDDEEEE",
"T 	c #8888BBBBBBBB",
"R 	c #AAAABBBBCCCC",
"E 	c #BBBBCCCCCCCC",
"W 	c #666677778888",
"Q 	c #111122223333",
"! 	c #333311112222",
"~ 	c #CCCC77772222",
"^ 	c #BBBB66662222",
"/ 	c #666644440000",
"( 	c #888888888888",
") 	c #EEEEDDDDDDDD",
"_ 	c #DDDDDDDDDDDD",
"` 	c #88889999BBBB",
"' 	c #AAAABBBBBBBB",
"] 	c #EEEEDDDDEEEE",
"[ 	c #EEEEEEEEDDDD",
"{ 	c #CCCCDDDDCCCC",
"} 	c #CCCC88881111",
"| 	c #888844441111",
" .	c #444433330000",
"..	c #888888889999",
"X.	c #CCCCDDDDEEEE",
"o.	c #9999CCCCCCCC",
"O.	c #9999BBBBBBBB",
"+.	c #CCCCDDDDDDDD",
"@.	c #CCCCBBBB7777",
"#.	c #DDDDAAAA2222",
"$.	c #999955551111",
"%.	c #333322224444",
"&.	c #AAAAAAAAAAAA",
"*.	c #FFFFEEEEFFFF",
"=.	c #DDDDDDDDCCCC",
"-.	c #EEEEBBBB6666",
";.	c #DDDD99992222",
":.	c #888844440000",
">.	c #555544443333",
",.	c #444455555555",
"<.	c #333333334444",
"1.	c #AAAA9999BBBB",
"2.	c #EEEEFFFFFFFF",
"3.	c #BBBBCCCCDDDD",
"4.	c #555566666666",
"5.	c #9999BBBBCCCC",
"6.	c #CCCCCCCCCCCC",
"7.	c #EEEEBBBB4444",
"8.	c #BBBB88882222",
"9.	c #777777775555",
"0.	c #444433334444",
"q.	c #BBBBBBBBBBBB",
"w.	c #555577776666",
"e.	c #333333333333",
"r.	c #777788889999",
"t.	c #FFFFFFFFEEEE",
"y.	c #9999AAAA9999",
"u.	c #DDDDAAAA3333",
"i.	c #AAAA77771111",
"p.	c #888888887777",
"a.	c #CCCCBBBBBBBB",
"s.	c #444466666666",
"d.	c #000000002222",
"f.	c #777788888888",
"g.	c #222233333333",
"h.	c #111122222222",
"j.	c #77779999AAAA",
"k.	c #EEEEFFFFEEEE",
"l.	c #FFFFFFFFFFFF",
"z.	c #8888AAAA8888",
"x.	c #EEEEAAAA3333",
"c.	c #888866661111",
"v.	c #AAAABBBBAAAA",
"b.	c #666699999999",
"n.	c #666688889999",
"m.	c #111111111111",
"M.	c #99999999AAAA",
"N.	c #222233332222",
"B.	c #666688888888",
"V.	c #777777778888",
"C.	c #FFFFEEEEEEEE",
"Z.	c #BBBBBBBB7777",
"A.	c #FFFFAAAA3333",
"S.	c #666644442222",
"D.	c #AAAAAAAA9999",
"F.	c #CCCCCCCCBBBB",
"G.	c #666699998888",
"H.	c #444455556666",
"J.	c #666677776666",
"K.	c #BBBBDDDDCCCC",
"L.	c #666677777777",
"P.	c #EEEECCCC7777",
"I.	c #EEEE99993333",
"U.	c #BBBB55550000",
"Y.	c #666644443333",
"T.	c #9999BBBBAAAA",
"R.	c #BBBBAAAABBBB",
"E.	c #888899999999",
"W.	c #555577778888",
"Q.	c #222233334444",
"!.	c #CCCCCCCCDDDD",
"~.	c #EEEE88882222",
"^.	c #777755555555",
"/.	c #999999999999",
"(.	c #333355556666",
").	c #DDDDFFFFEEEE",
"_.	c #BBBBDDDDDDDD",
"`.	c #AAAA88884444",
"'.	c #DDDD77771111",
"].	c #999988888888",
"[.	c #444488888888",
"{.	c #444477777777",
"}.	c #777766668888",
"|.	c #AAAA88886666",
" X	c #888833331111",
".X	c #777755553333",
"XX	c #BBBBAAAAAAAA",
"oX	c #BBBBBBBBAAAA",
"OX	c #777799999999",
"+X	c #666677779999",
"@X	c #888899998888",
"#X	c #999988889999",
"$X	c #999999998888",
"%X	c #BBBBAAAA9999",
"&X	c #777733332222",
"*X	c #DDDDCCCCDDDD",
"=X	c #888877778888",
"-X	c #777788887777",
";X	c #444466668888",
":X	c #111133334444",
">X	c #444444443333",
",X	c #555566667777",
"<X	c #333366667777",
"1X	c #222255556666",
"2X	c #666666666666",
"3X	c #111133332222",
"4X	c #333322223333",
"5X	c #9999AAAAAAAA",
"6X	c #555577777777",
"7X	c #333377777777",
"8X	c #222266667777",
"9X	c #DDDDCCCCCCCC",
"0X	c #666655555555",
"qX	c #555544445555",
"wX	c #777777776666",
"eX	c #444466667777",
"rX	c #333366666666",
"tX	c #333355557777",
"yX	c #222244444444",
"uX	c #333355554444",
"iX	c #333344445555",
"pX	c #555566665555",
"aX	c #666655556666",
"sX	c #777766667777",
"dX	c #66668888AAAA",
"fX	c #777777777777",
"gX	c #444477778888",
"hX	c #111133333333",
"jX	c #000011110000",
"kX	c #222244445555",
"lX	c #111100000000",
"zX	c #333344444444",
"xX	c #8888AAAA9999",
"cX	c #222255555555",
"vX	c #AAAA99999999",
"bX	c #555566668888",
"nX	c #1E1E19194F4F",
"mX	c #777799998888",
"MX	c #000022221111",
"            . . . .                         . . . .                         X . . .             ",
"          . o o o o .                     X . o o o .                     . o o o o .           ",
"        . o o o o o o .                 . o o o o o o .                 . o o o o o o .         ",
"        . o o o o o o O                 . o o o o o o .                 . o o o o o o .         ",
"        . o o o o o o O                 . o o o o o o .                 . o o o o o o .         ",
"        . o o o o o o O                 . o o o o o o .                 . o o o o o o .         ",
"          . o o o o .                     . o o o o .                     . o o o o .           ",
"            . . . .                         . . . .                         . . . .             ",
"    . . . . . . . . . . . .         . . . . . . . . . . . .         . . . . . . . . . . . .     ",
"  + o o o o . . . . o o o o .     . o o o o . . . . o o o o .     @ o o o o . . . . o o o o #   ",
"  . o o o o . . . . o o o o .     . o o o o . . . . o o o o .     $ o o o o . . . . % & % o .   ",
"  . o o o o o + $ o o o o o .     . o o o o o + $ o o o o o .     @ o o o o o . * $ = - ; o .   ",
"  . o o o o o o o o o o o o .     . o o o o o o o o o o o o .     $ o o o o o $ : > , < o o .   ",
"  . o o o o o o o o o o o o .     . o o o o o o o o o o o o .     @ o o o o $ 1 2 , 3 o o o .   ",
"  . o o o o o o o o o o o o .     . o o o o o o o o o o o o .     $ o o o $ 4 5 6 7 o o o o .   ",
"  . o o o o o o o o o o o o .     . o o o o o o o o o o o o .     @ o o 8 9 0 q * o o o o o .   ",
"  . o o o o o o o o o o o o .     . + : + $ o o o o o o o o .     $ o ; w e r t o o o o o o .   ",
"  . o o o o o o o o o o o o .     . $ y u + $ o o o o o o o .     + i p a s : o o o o o o o .   ",
"  . o o o o o o o o o o o o .     d f g h j k + o o o o o o .     l p z x : o o o o o o o o .   ",
"  . o o o o o o o o o o c + $ v b n m M N M B 8 * o o o o o .   V C z Z c o o o o o o o o o .   ",
"  . o o o o o o o o o : + A S D F N G N M N H J v X o o o : K L P q t : o o o o o o o o o o .   ",
"  . o o o o o o o + * I U Y m G T M M M N M J R E W Q + $ ! ~ ^ / t * o o o o o o o o o o o .   ",
"  . o o o o o k K ( ) _ R T G M G N M N ` ' ] [ ] { H j i } |  .  : o o o o o o o o o o o o .   ",
"  . * + * + Q ..D X.o.O.T G T M N M N R U g D ] U _ +.@.#.$. .    + o o o o o o o o o o o o .   ",
"  . k : %.&.*.+.R O.G T G M G N M m g g g [ ] _ ) =.-.;.:.>.,.    k o o o o o o o o o o o o .   ",
"  . <.1.2.3.4.M O.5.T G T G M 3.g *.g g g ] U Y 6.7.8.q 9.6.' W   k * o o o o o o o o o o o .   ",
"0.q.g E G w.v e.r.O.G M G E g t.*.g g g ] _ F y.u.i.r p.S b a.q.H s.k k k o o o o o o o o d..   ",
"_ D o.f.g.` s.v h.j.T 3.k.l.2.*.k.g g g E ` z.x.c.s v.6.b F b h b.n.B 8 7 k * o o o o o * O     ",
"m.q.n m M.N.A B.V.E n l.l.t.*.g C.g 6.N H Z.A.a S.D.6.F.a.q.H b.M.&.&.G.H.: k 7 k o o o k       ",
"    J.l.K.G L.3.k.l.l.l.l.*.k.n K.M N F P.I.U.Y.b 6.E F N n.T.R.v.&.&.f E.W.Q.k * o o o *       ",
"      e.Y +.h +.l.l.l.l.*.g !.N M E ) 7.~.V ^.6.6.b M.n.M.v.R.&.&.&.f y./.B W.(.: O k O k       ",
"      . . h ).R m l.l.l._.G T 3.U Y `.'.q ].{ 6.N j.N q.' R.v.&.&.&.y.r.[.r.E...{.Q.7 k 7       ",
"      . o O }.[ E O.!.T.G 6.] U ) |. X.XXX6.h b.M.q.q.oXR.v.XX&.f OX+X@X#X$X#X( ( L.H.m.X       ",
"      . o o 7 <.{ Y T M D g U Y %X&X].*X' j.N F b q.q.R.v.h &.H B n.E./.E.#X@X( ( =X-X;X:X.     ",
"      . o o o O : y.g O.G _ ) &.X >X=XOXH b S q.q.q.R.v.XXE.+XB././.#X$X#X( ( ( =XL.,X<X<X1X:   ",
"      . o o o . . d.2Xg m ` E _ T.H.3X4XJ.M.b q.q.q.v.5Xb.n.E.f y./.E.#X@X( ( ( 6X;X7X<X<X<X8X: ",
"      . o o o .   . X 1 9X+.H J H ' 6.@X0X>XqXwXf &.r.B ..y.f /./.$X#X@X].( W {.eX<XeXrXtXyXX   ",
"      . o o o .   . o . . #Xk.M J 6.6.S b R.L.u uXiX6XM.5Xf y.M./.#X@X..f.W.7X;X7XeX<X(.h..     ",
"      . o o o .   . o o . . qXg E OXR.b a.q.M.B.W pXaX2XsX( #X/.#X@X( 6X;X{.eX<XeX(.8 . X       ",
"      . o o o .   . o o o .   1 b Y b.G T.dXb.5Xv.&.E.V.4.A J.fX-XW {.gX7X;X7X<XhXO jXO .       ",
"      . o o o .   . o o o .       -X*.N n.E.R.&.&.D.f y.#X-XsX4.H.rXeXeXeXeXkXjXlXo o o .       ",
"      . o o o .   . o o o .         zXn m n.xXh &.f y.M./...B ;XrXtXrXtXcX: . O . o o o .       ",
"      . o o o .   . o o o .           m.S U r.OXf y.vXE.+X{.bX{.;X{.(.h.. nX.   . o o . O       ",
"  . . . . . . .   . . . . . .     . jXO . sXk.M B ..mXW.gXgXgXgX7XQ.jXO . . .   . . . . . O .   ",
". . . . . . . .   . . . . . . . . . . . . . e._ F W.W.{.W.{.;XyXX . . . . . .   . . . . . . . . ",
"                                              m.v.Y b.gXgX(.MX                                  ",
"                                                  J.] OX8                                       ",
"                                                    g.2X                                        "};
