/* XPM */
static char * tix_xpm[] = {
"48 48 13 1",
" 	c #E5E5E5E5E5E5",
".	c #00000000FFFF",
"X	c #000000008282",
"o	c #000000000000",
"O	c #FFFFFFFFFFFF",
"+	c #828282828282",
"@	c #FFFF00000000",
"#	c #FFFFFFFF0000",
"$	c #828200000000",
"%	c #828282820000",
"&	c #C3C3C3C3C3C3",
"*	c #000082820000",
"=	c #0000FFFF0000",
"  . ..               .       .. ...      ..     ",
"  ........  XXX   XXX.X. ............X.....  .  ",
"  o........XXXXX.XXXXXXX.XXXXX.XX..XXXXX.X....  ",
" o......XX.XX..X..XX.XXXXX.XX.XX.XXXX...X...... ",
" ..X.....XXXX...X.XX.XXXXX...XXX.XXXXXXXX..X... ",
".X..X.X.XXXXX...X.X.XXXXXX.XX.XX.XXXXXXXXX..X.  ",
"...XX.XXXX.XXX..X.....X.XX.X..XX.XXXXXXXXXXXXXX ",
"..XX..XXXXX.XX....XXX.X.....X.X...XXXX...XXXXX..",
" XXXXoXXXX..XXX.XXOXXOXXXXXXo.X....XXX..XXX.XX..",
" .XX...XXX...ooOXXoXXOXX+@X@XX@O@XOOXX.XX..XXX.X",
" XXXX.XXXXO@#@@OOO+X@###@@+@+X@@##@@@@@X.X.XX.. ",
" XXXX.X.#XO@#@O#OO@@@#+#@####@@@##@#+.O..XXX... ",
" X.X..XX.X#O###O#@@###@#####O@#########..XXX.XX ",
" XXX...XX@@@@###@@@+O#######O@#########X.XXXXXX ",
".XXXX..XX$@@######@@########O@#######.X.XXXXX.X ",
".XXXX..X.@@@######@@#####OOOO@######O#XXX.XXXXX ",
" XX.X.X.X$@$@@####@@@@######O@@###@OO#XX..XXXXX.",
" XXXX.XX@@@$@@#@#@@@@@####OOO@@@@@@OOOXX.XX..XX ",
" XXXXoX.@X@@@@@@@@O@OO@OOOOoO@@@@@@@O@X.X.XX..X ",
".XXXXoX.X@$$$$$$X#o@@#####O#@$$##$#X#@X..X.X.XX.",
" XXXXoX.X$$$$$$$%%##@#O#####@@$##$$$%%#.XX.X... ",
" XXXXoXXX@$$##%#%%@@########O$$####%#%%..X.XXX..",
" XXXXoX.X$$$##$#%%$@#######O.$$$###%%%#..X.XX...",
".XXXXoXXX@$$@#$%%%$$########O$$$##%#%$..XXXXX.. ",
" XXXX.XXX@$$#$$%$%@$#@######O$@$#@%#%$.X..XXX.. ",
" XX.X..XX@$$$$$#$@$$#@######O$$$#$@%$$%X...XX.X.",
" XXXX.XXX@$$$$$#$$#$########O$$$##$#$$#.X.X.XXX ",
" XXXX.XXX@$$$$$@$@$$$##@OOOOO$@$$$$$##$XX.X...X ",
" XX.X..XXO$$$$$$@@@O$$@@@@O@O$@$$$$@$#@XXXXX.X..",
" X.X...XX@o$$$$$$$$@@@@@@@@@O@$$#$$$%%#.XXX.X...",
" XX.X.XXX@$#$$$##%@@@#@#####O$#$%%%%%#X.X....X. ",
" XXXX.XX.&$@$$$##%#@@#@######$#$#%%%%%.XX.XX.X. ",
".XXX..XXX$$$$#$$%#@@@########@@$###%##XXX.XXXX. ",
".XXXX.XXX$$$$@@$%#+@$@##@##O#@$$%$#%#%$.XXX.XX. ",
" XXXX.XX.$@@@$$$%#@+$@#####O#$$$%$$#%%...XXX.XX ",
" XXXX.XX.@@$@$$#%#@$$@####@##$$$$@#$%%$.X.XX.XXX",
" XXXXoXXX$$$$$$@$##$$$#@##O##$$$$$$$$%#.X.XXXX X",
" XXXXoXXX@$$$$$$$#@$@@@@#@O#@$$$$$#$@#XXX..XXX  ",
" XXXXoX*X@$$$$@$.%@@@#@@@@OXXo$$$$@$@#XXXXXXXXX ",
" .XXXoXX*XX.XXo$XXoXXXXooXXXX.XXoXXX.X..XXXXX.. ",
".XXXXoXXXXXXXXXXoXXXX..XXoXXXXXXXX...X.XXXXXX.. ",
"o.XXXoXXXXXXXXXXXXXXXXXXXXX.X.XXXX..XX..XXXXX.. ",
" XXXXoXXXXXXXXXXXXXX....XXXXXX.X.XXXX..XX..XX.. ",
" XXXXoX.XXXX.XXXXXXXX...XX=XXXXX.XXXXXXXXXXX.XX ",
" XXXXoXXXXXXXXXXXXXXXXXXXXXXX.X..X.XXXXXXXXX.XX ",
" XXXX.XX.XXXXXXXXXXXXXXXXXXX..X.X.XXXXXXXXXXXXXX",
" XXXX.X XXXXXXXX.XX XXXXXXXXX XX..XX .XXXX. o   ",
"   .X X XX .         X     .        X           "};
