/* XPM */
static char *tkdiff[] = {
/* columns rows colors chars-per-pixel */
"52 52 64 1",
"  c opaque",
". c #080800",
"X c gray3",
"o c #101000",
"O c #101008",
"+ c #181800",
"@ c #101010",
"# c #181818",
"$ c #202400",
"% c #282810",
"& c #303000",
"* c #383808",
"= c #303018",
"- c #202020",
"; c #282828",
": c gray19",
"> c gray22",
", c #505000",
"< c #585800",
"1 c #686800",
"2 c gray25",
"3 c #484848",
"4 c #505050",
"5 c #585858",
"6 c #606060",
"7 c #686868",
"8 c gray47",
"9 c #807c00",
"0 c #909000",
"q c #989400",
"w c #a0a000",
"e c #b0ac00",
"r c #b8b400",
"t c #a8a830",
"y c #c0bc08",
"u c #c8c010",
"i c #c8c418",
"p c #d0c818",
"a c #d0c820",
"s c #d0cc28",
"d c #d8d030",
"f c #d8d038",
"g c #d8d840",
"h c #e0d840",
"j c #e0d848",
"k c #e0d850",
"l c #e8e048",
"z c #e0e050",
"x c #f8e870",
"c c #808080",
"v c #888888",
"b c #909090",
"n c #a0a0a0",
"m c gray66",
"M c gray69",
"N c gray72",
"B c #f8e088",
"V c #f8e098",
"C c #c0c0c0",
"Z c #c8c8c8",
"A c #d0d0d0",
"S c #d8d8d8",
"D c gray88",
"F c gray91",
/* pixels */
"FFFFFFFFFFFFFFFFFFFFFFFFFFFFFFFFFFFFFFFFFFFFFFFFFFFF",
"FFFFFFFFFFFFFFFFFFFFFFFFFFFFFFFFFFFFFFFFFFFFFFFFFFFF",
"FFFFFFFFFFFFFFFFFFFFFFFFFFFFFFFFFFFFFFFFFFFFFFFFFFFF",
"FFFFFFFFFFFFFFFFFFFFFFFFFFFFFFFFFFFFFFFFFFFFFFFFFFFF",
"FFFFFDZCCCCCCZSZZDFFFFFDZCCCCZDFFFDZZDFDZCZSZCZDFFFF",
"FFFFFZ333;;333m33ZFFFFFZ3;3336MZDFA77ADM336b337AFFFF",
"FFFFFZ6mn--nm6n;;CFFFFFC;-nCCM53ZFDZZDZ2;nm>;nZDFFFF",
"FFFFFDADC;;CDAN;;CDZCZDC;;CFFDm2mDDZZSm--nn--mDFFFFF",
"FFFFFFFFC;;CFFC;;NM2;6AC;;CFFFC;2ZZ33M5XX22XX5AFFFFF",
"FFFFFFFFC;;CFFC;-v>X>MDC;;CFFFC;;CC;;Nm--nn--mDFFFFF",
"FFFFFFFFC;;CFFC; #X>MDFC;;CFFFC;;CC;;CC;;CC;;CFFFFFF",
"FFFFFFFFC;;CFFC-  #bSFFC;;CFFDm;2ZC;;CC;;CC;;CFFFFFF",
"FFFFFFFFC;;CFFC; #X>MDFC;;CFDM>;mDC;;CC;;CC;;CFFFFFF",
"FFFFFFFFC;;CFFC;-v>X>MDC;-nCm2;3ZFC;;CC;;CC;;CFFFFFF",
"FFFFFFFFZ33ZFFZ33CM2;6AZ3;3333mZDFZ33ZZ33ZZ33ZFFFFFF",
"FFFFFFFFDZZDFFDZZDDZCZDDZCCCCZDFFFDZZDDZZDDZZDFFFFFF",
"FFFFFFFFFFFFFFFFFFFFFFFFFFFFFFFFFFFFFFFFFFFFFFFFFFFF",
"FFFFFFFFFFFFFFFFFFFFFFFFFFFFFFFFFFFFFFFFFFFFFFFFFFFF",
"FFFFFFFFFFFFFFFFFFFFFFFFFFFFFFFFFFFFFFFFFFFFFFFFFFFF",
"FFFFFFFFFFFFFFFFFFFFFFFFFFFFFFFFFFFFFFFFFFFFFFFFFFFF",
"FFFFFFFFFFFFFFFFFFFFbFFFFFFFFFFFFFFFFFFFFFFFFFFFFFFF",
"FFFFFFFFFFFFFFFFFFF;@7FFFFFFFFFFFFFFFFFFFFFFFFFFFFFF",
"FFFFFFFFFFFFFFFFFF4&o DFFFFFFFFFFFFFFFFFFFFFFFFFFFFF",
"FFFFFFFFFFFFFFFFFc4tt 2FFFFFFFFFFFFFFFFFFFFFFFFFFFFF",
"FFFFFFFFFFFFFFFFF4,ss$ AFFFFFFFFFFFFFFFFFFFFFFFFFFFF",
"FFFFFFFFFFFFFFFF6.ejje :FFFFFFFFFFFFFFFFFFFFFFFFFFFF",
"FFFFFFFFFFFFFFFF41akka* nFFFFFFFFFFFFFFFFFFFFFFFFFFF",
"FFFFFFFFFFFFFFF4orhkkhr -FFFFFFFFFFFFFFFFFFFFFFFFFFF",
"FFFFFFFFFFFFFFF49skkkks1 vFFFFFFFFFFFFFFFFFFFFFFFFFF",
"FFFFFFFFFFFFFF4*yjkkkkjy.-FFFFFFFFFFFFFFFFFFFFFFFFFF",
"FFFFFFFFFFFFFF wdkkkkkkd0 5FFFFFFFFFFFFFFFFFFFFFFFFF",
"FFFFFFFFFFFFF4<ijkkkkkkji$ DFFFFFFFFFFFFFFFFFFFFFFFF",
"FFFFFFFFFFFF6 rgzkkkkkkzge :FFFFFFFFFFFFFFFFFFFFFFFF",
"FFFFFFFFFFFF49akkkkkkkkkka* AFFFFFFFFFFFFFFFFFFFFFFF",
"FFFFFFFFFFF4oyhkkkkkkkkkkhy ;FFFFFFFFFFFFFFFFFFFFFFF",
"FFFFFFFFFFF 0dkkkkkkkkkkkkd1 nFFFFFFFFFFFFFFFFFFFFFF",
"FFFFFFFFFF4$ujkkkkkkkkkkkkju. FFFFFFFFFFFFFFFFFFFFFF",
"FFFFFFFFFF wfkkkkkkkkkkkkkkf9 cFFFFFFFFFFFFFFFFFFFFF",
"FFFFFFFFF4<pjkkkkkkkkkkkkkkjp+ FFFFFFFFFFFFFFFFFFFFF",
"FFFFFFFF6.rhkkkkkkkkkkkkkkkkhe 3FFFFFFFFFFFFFFFFFFFF",
"FFFFFFFF49skkkkkkkkkkkkkkkkkks& DFFFFFFFFFFFFFFFFFFF",
"FFFFFFF6oyjkkkkkkkkkkkkkkkkkkjr. FFFFFFFFFFFFFFFFFFF",
"FFFFFFF qdkkkkkkkkkkkkkkkkkkkkd< MFFFFFFFFFFFFFFFFFF",
"FFFFFF4$ijkkkkkkkkkkkkkkkkkkkkjio FFFFFFFFFFFFFFFFFF",
"FFFFFF wfkkkkkkkkkkkkkkkkkkkkkkf9 cFFFFFFFFFFFFFFFFF",
"FFFFF41ajkkkkkkkkkkkkkkkkkkkkkkja+ FFFFFFFFFFFFFFFFF",
"FFFFc.yzxxxxxxxxxxxxxxxxxxxxxxxxzq  FFFFFFFFFFFFFFFF",
"FFFF60lBVVVVVVVVVVVVVVVVVVVVVVVVBl& FFFFFFFFFFFFFFFF",
"FFF8X&*============%OOOOOOOOOOOOOOo  FFFFFFFFFFFFFFF",
"FFF5:333333333333333333333333333333;3FFFFFFFFFFFFFFF",
"FFFFFFFFFFFFFFFFFFFFFFFFFFFFFFFFFFFFFFFFFFFFFFFFFFFF",
"FFFFFFFFFFFFFFFFFFFFFFFFFFFFFFFFFFFFFFFFFFFFFFFFFFFF"
};
