/* XPM */
static char * Unknown_xpm[] = {
"48 48 134 2",
"  	c #000000000000",
". 	c None",
"X 	c #A9A9A9A9A9A9",
"o 	c #A9A9A9A9BABA",
"O 	c #A9A9BABAA9A9",
"+ 	c #BABABABABABA",
"@ 	c #A9A9BABABABA",
"# 	c #BABABABACBCB",
"$ 	c #BABACBCBBABA",
"% 	c #CBCBBABACBCB",
"& 	c #CBCBCBCBCBCB",
"* 	c #CBCBCBCBDCDC",
"= 	c #CBCBDCDCCBCB",
"- 	c #DCDCDCDCDCDC",
"; 	c #CBCBDCDCDCDC",
": 	c #DCDCEDEDDCDC",
"> 	c #DCDCDCDCEDED",
", 	c #EDEDDCDCEDED",
"< 	c #EDEDEDEDEDED",
"1 	c #EDEDEDEDFEFE",
"2 	c #EDEDFEFEEDED",
"3 	c #FEFEFEFEFEFE",
"4 	c #EDEDFEFEFEFE",
"5 	c #BABAA9A9BABA",
"6 	c #BABABABAA9A9",
"7 	c #CBCBBABABABA",
"8 	c #CBCBCBCBBABA",
"9 	c #DCDCCBCBCBCB",
"0 	c #DCDCCBCBDCDC",
"q 	c #DCDCDCDCCBCB",
"w 	c #EDEDDCDCDCDC",
"e 	c #FEFEEDEDFEFE",
"r 	c #545454546565",
"t 	c #656565656565",
"y 	c #767676767676",
"u 	c #767687877676",
"i 	c #878787879898",
"p 	c #9898A9A99898",
"a 	c #878798988787",
"s 	c #BABACBCBCBCB",
"d 	c #FEFEEDEDEDED",
"f 	c #FEFEFEFEEDED",
"g 	c #656554545454",
"h 	c #878787877676",
"j 	c #989887879898",
"k 	c #989898989898",
"l 	c #CBCB9898A9A9",
"z 	c #878776768787",
"x 	c #434365657676",
"c 	c #878787878787",
"v 	c #878798989898",
"b 	c #A9A99898A9A9",
"n 	c #989876769898",
"m 	c #545454545454",
"M 	c #767676766565",
"N 	c #989865659898",
"B 	c #BABAA9A9A9A9",
"V 	c #656576766565",
"C 	c #767687878787",
"Z 	c #98989898A9A9",
"A 	c #9898A9A9A9A9",
"S 	c #434365656565",
"D 	c #656565655454",
"F 	c #767665656565",
"G 	c #A9A9A9A99898",
"H 	c #212132322121",
"J 	c #101010101010",
"K 	c #000010101010",
"L 	c #101010102121",
"P 	c #212121213232",
"I 	c #878776769898",
"U 	c #545465655454",
"Y 	c #101010100000",
"T 	c #212110102121",
"R 	c #212121211010",
"E 	c #101000001010",
"W 	c #000010100000",
"Q 	c #101021211010",
"! 	c #212121212121",
"~ 	c #323221213232",
"^ 	c #767676769898",
"/ 	c #323221212121",
"( 	c #323232322121",
") 	c #323232323232",
"_ 	c #767665657676",
"` 	c #98989898BABA",
"' 	c #DCDCEDEDEDED",
"] 	c #434343435454",
"[ 	c #434343437676",
"{ 	c #98988787A9A9",
"} 	c #989887878787",
"| 	c #87879898A9A9",
" .	c #98988787BABA",
"..	c #767676768787",
"X.	c #87878787A9A9",
"o.	c #878776767676",
"O.	c #87878787BABA",
"+.	c #656576767676",
"@.	c #87877676A9A9",
"#.	c #98987676A9A9",
"$.	c #76768787A9A9",
"%.	c #87877676BABA",
"&.	c #656554546565",
"*.	c #76767676A9A9",
"=.	c #656565657676",
"-.	c #76766565BABA",
";.	c #87876565A9A9",
":.	c #212110101010",
">.	c #212100002121",
",.	c #434332324343",
"<.	c #76767676BABA",
"1.	c #65657676A9A9",
"2.	c #000000001010",
"3.	c #76766565A9A9",
"4.	c #65656565A9A9",
"5.	c #A9A99898BABA",
"6.	c #76765454BABA",
"7.	c #76765454A9A9",
"8.	c #65655454BABA",
"9.	c #545465656565",
"0.	c #65655454A9A9",
"q.	c #212132323232",
"w.	c #434343433232",
"e.	c #65656565BABA",
"r.	c #323243434343",
"t.	c #656543435454",
"y.	c #434343434343",
"u.	c #434332325454",
"i.	c #A9A998989898",
"p.	c #545443435454",
"a.	c #989898988787",
"s.	c #000054546565",
"d.	c #EDEDEDEDDCDC",
"f.	c #101021212121",
"                                                                                                ",
"  . . . . . . . . . . . . X X o O + @ # $ % $ % & & & * = - ; - : > : , < < < 1 2 3 4 3 3 3 3   ",
"  . . . . . . . . . . . . . . X X X 5 6 5 + 7 + % $ % 8 & & 9 & 0 q 0 - & & 0 - - - w : < < e   ",
"  . . . . 3 . . . . . . . . . . . r t y u i p X a + $ . . . . X O + + # $ 5 + % s * = - - > :   ",
"  . 3 2 d < e f . . . . . . . . g t y h j k X X l z . . . . . . . . . . . X 5 + 7 $ & & 9 = &   ",
"  1 < , : - : < < . . . . . . x t y u c v b X X X n t . . . . . . . . . . . X 5 + + $ # $ % $   ",
"  - - q 9 & 0 q - < . . . . . m t M z c j k b X X j N y . . . . . . . . . . . . X X B X 5 X B   ",
"  * = & $ + $ & = > . . . . z t V y C c a Z A X X X c m z . . . . . . . . . . . . . . . . . .   ",
"  + + 6 B X 5 6 7 & , . . . S D F y y y j k b G b G j t z . . . . . . . . . . . . . . . . . .   ",
"  5 X X X X X X O % ; . . . m m H J K L K P r b A b v I U z . . . . . . . . . . . . . . . . .   ",
"  X X X b X b X X O % . . . g Y J J T R T J E R y k j c y z . . . . . . . . . . . . . . . . .   ",
"  X A X A b A X A X + 3 4 3 W J Q ! H ~ ! ! Q J W ^ k c V z . . . . . . . . . . . . . . . . .   ",
"  X b A b Z b A b X X < d < J Q / ( ) ( ~ ! ! Q E R j c _ y . . . . . . . . . . . . . . . . .   ",
"  b A ` Z Z Z ` A X X , ' < t P ) ] m [ ) ) H ! ) r a c y t . . . . . . . . . . . . . . . . .   ",
"  Z b Z { Z { Z b A X - - : , ! t y z c } ) ~ _ j a j c y D . . . . . . . . . . . . . . . . .   ",
"  ` Z Z |  .| Z Z Z X * = - : m V ..u c c j v j a i a c u t t . . . . . . . . . . . . . . . .   ",
"  Z { | { X.{ Z { Z X 8 9 q 5 U _ y o.u c a j a } c c h ) L t . . . . . . . . . . . . . . . .   ",
"   .| O.X. .X. .| Z X # s & p t +.y y z c j a i c c c z L L m . . . . . . . . . . . . . . . .   ",
"  X.{ X.@.X.#.X.{ | X + 7 $ o.t _ V _ y c c c c c h z u ) ! g . . . . . . . . . . . . f e < e   ",
"  O.X.O.$.%.X.O.X.O.X Z O k U t V _ y ..c c c c C z u z y L U . . . . . . . . . . 3 2 < : > :   ",
"  X.@.X.@.@.@.X.#.X.X X B y &.D F t y y z h z u z u z y y ) &.. . . . . . . . . . < - q 0 & 0   ",
"  %.$.%.*.%.*.%.X.O.| X X m U &.t =.+...C c u z u z y y y L U . . . . . . . . . 2 , & & $ # $   ",
"  *.@.*.-.*.;.*.%.X.{ Z b ! :.J >.! ,.y z u o.y y y y y _ ) _ 2 e . . . . . e 3 , = 7 + 5 X 5   ",
"  %.*.<.1.-.*.%.*.%.X. .Z ` H ! Q L K 2.u ..u y y y +.y V ) U , : , 4 . 4 1 ' < = # O X X X X   ",
"  *.;.*.3.3.3.*.;.*.@.X.{ Z { ! / J E ! o.y y M _ M _ V F t = = 0 q , 2 , - - q 7 X X X b X X   ",
"  -.*.-.4.-.4.-.*.<.*.%.X. .X. .H T W y y y +._ +._ V =.V t 6 % s & ; , - * s & O X A 5.A b A   ",
"  *.3.4.6.4.7.3.-.*.3.*.%.*.@.X.~ H F y _ V _ V _ V F t t D 6 6 5 6 % = & + 5 + X X b A b A b   ",
"  -.1.-.4.8.4.-.4.-.1.<.*.<.$.%.          _ V _ V =.V t 9.&.X X X X @ % @ o X X X X A b A ` A   ",
"  3.-.4.. 0.6.4.7.3.-.4.3.*.;.*.g U F V F J F t F t t D &.U g X X X X O X X X X X X b Z b Z b   ",
"  -.4.8.. . . 8.4.-.4.8.4.-.1.-.q.~ H ~ q.~ t =.t t 9.&.U &.y =.A X X X X X A 5.A b Z ` Z Z Z   ",
"  4.8.. . . . . . 4.8.. 6.4.7.4.6.H ~ w.t t &.t &.U &.m g V j k b A b X b A b Z b A { Z { Z {   ",
"  . . . . . . . . . . . . 8.4.e.4.~ r.t 9.t 9.t U &.U ] Y c X X X c A Z A Z A Z Z ` Z { |  .|   ",
"  . . . . . . . . . . . . . . 4.. ( ,.D &.D &.U g m t./ &.G X X X X b Z b Z b Z { Z { | { X.{   ",
"  . . . . . . . . . . . . . . . . y.r.&.U &.U r U y.K u.c b A X X X X X | Z Z  .|  .| O.X.O.X.  ",
"  . . . . . . . . . . . . . . . . w.&.m &.m g y.! Y / V k k i.p b X X X X X { { { X.{ X.@.X.@.  ",
"  . . . . . . . . . . . . . . . . y.U m m ,.H J K J p.j v k p Z p b A X X X K { X.O.X.O.$.%.$.  ",
"  . . . . . . . . . . . . . . . . m m J   Y J Y E / _ a j a.k k i.k b G b ( J X.#.X.@.X.@.@.@.  ",
"  . . . . . . . . . . . . . . . . . . . . T K J J p.c i a j a k k k p Z m J K %.X.%.$.%.$.%.*.  ",
"  < e . . . . . . . . . . . . . . . . . . s.  J / M z c c c } c j a.j c E Y E @.%.*.@.*.%.*.3.  ",
"  > ' e . . . . . . . . . . . . . . . . W   K J p.z C c C c c c a i c ) K J K %.*.%.*.<.*.-.*.  ",
"  q - d.e . . . . . . . . . . . . . s.  E Y J / _ y z u z h z h z h g Y E Y J *.;.*.;.*.;.3.-.  ",
"  * = > < 3 . . . . 2 1 2 3 . . . E   J J J K p.y y y ..u z u z u y f.J J J K -.*.-.*.-.*.-.4.  ",
"  $ % & - < . . , - w : < < e . E   E J E Y / t _ V _ y y y y y _ ( J J E Y E 3.-.4.3.3.-.4.6.  ",
"  + $ & = > < & = 0 ; - : < 2 3 z J K J K J p.=.V =.V _ V _ V t U J K J K 8.4.-.4.e.4.-.4.8.4.  ",
"  X 5 + % = 7 $ % & 0 - w d.< < d 2 z Y E / t D t t t t F t &.( E Y ) . . . . . 7.4.6.4.7.. .   ",
"  X X o O 5 @ # $ & & * ; - : , < 1 2 z J p.U &.9.t U &.9.( K ) . . . . . . . . . . . . . . .   ",
"  X B X X X 5 + + $ % & 0 = - - , < d f   m g m g m g ( E ( . . . . . . . . . . . . . . . . .   ",
"                                                                                                "};
