/* XPM */
static char * vim_xpm[] = {
"48 48 8 1",
" 	c None",
".	c #000000000000",
"X	c #0000FFFF0000",
"o	c #000080800000",
"O	c #000000008080",
"+	c #FFFFFFFFFFFF",
"@	c #C0C0C0C0C0C0",
"#	c #808080808080",
"                       ...                      ",
"                      ..X..                     ",
"                     ..XoO..                    ",
"     .................XoooO.. ..............    ",
"    .................XoooooO.................   ",
"   ..++++++++++++++++..oooooO.++++++++++++++..  ",
"   ..+@@@@@@@@@@@@@@@@@.oooooO++@@@@@@@@@@@@@.. ",
"   ..+@@@@@@@@@@@@@@@@@.ooooo.++@@@@@@@@@@@@@.. ",
"     .@@@@@@@@@@@@@@@##.oooooo..@@@@@@@@@@@@#.. ",
"      ..#@@@@@@@@@###..ooooooooo.##@@@@@@@@##.. ",
"      ..#@@@@@@@@@###..oooooooo..##@@@@@@@###.  ",
"      ..+@@@@@@@@@##.ooooooooo..+@@@@@@@@###.   ",
"      ..+@@@@@@@@@##.oooooooo..++@@@@@@@###.    ",
"      ..+@@@@@@@@@##.ooooooo..++@@@@@@@###.     ",
"      ..+@@@@@@@@@##.oooooo..++@@@@@@@###.      ",
"      ..+@@@@@@@@@##.ooooo..++@@@@@@@###.       ",
"      ..+@@@@@@@@@##.oooo..++@@@@@@@###..       ",
"      ..+@@@@@@@@@##.ooo..++@@@@@@@###.oO.      ",
"     ...+@@@@@@@@@##.oo..++@@@@@@@###.oooO.     ",
"    ....+@@@@@@@@@##.o..++@@@@@@@###.ooooo..    ",
"   ..X..+@@@@@@@@@##...++@@@@@@@###.oooooooO.   ",
"  ..Xo..+@@@@@@@@@##..++@@@@@@@###.oooooooooO.  ",
" ..Xoo..+@@@@@@@@@##.++@@@@@@@###.ooooooooooo.. ",
"..Xooo..+@@@@@@@@@##++@@@@@@@###.oooooooooooooO.",
".Xoooo..+@@@@@@@@@##+@@@@@@@###.ooooooooooooooO.",
"..Xooo..+@@@@@@@@@##@@@@@@@###.ooooooooooooooOO.",
" ..Xoo..+@@@@@@@@@##@@@@@@###.ooooooooooooooO.. ",
"  ..Xo..+@@@@@@@@@@@@@@@.....ooooooooooooooO..  ",
"   ..X..+@@@@@@@@@@@@@@@.....oooooooooooooOO.   ",
"    ....+@@@@@@@@@@@@@@.@@@..ooooooooooooO..    ",
"     ...+@@@@@@@@@@@@@@.@@@..oooooooooooO..     ",
"      ..+@@@@@@@@@@@@@#.@@@..ooooooooooOO.      ",
"      ..+@@@@@@@@@@@@##....oo....oo.........    ",
"      ..+@@@@@@@@@@@#..@@@@..@@@@..@@@@..@@@.   ",
"      ..+@@@@@@@@@@##..@@@@..@@@@..@@@@..@@@.   ",
"      ..+@@@@@@@@@###...@@@...@@@@@@@@@@@@@@@.  ",
"      ..+@@@@@@@@###....@@....@@@OOO@@@...@@@.  ",
"      ..+@@@@@@@###.o..@@@....@@@OOO@@@...@@..  ",
"      ..+@@@@@@###.oo..@@@...@@@O..@@@...@@@.   ",
"      ..+@@@@@###.ooo..@@....@@@...@@@...@@@.   ",
"      ..+@@@@###.Oooo..@@...@@@...@@@...@@@..   ",
"      ..+@@@###...Oo.@@@@..@@@...@@@...@@@..    ",
"       ..@@###..  .O.@@@@@.@@@...@@@...@@@@@.   ",
"        .@###..    ..@@@@@.@@@...@@@...@@@@@.   ",
"         .....      ......O...   ...   .....    ",
"                     ..ooO..                    ",
"                      .OOO.                     ",
"                       ...                      "};
