/* XPM */
static char * vmware_xpm[] = {
"47 47 17 1",
" 	c None",
".	c #F4F4FAFAF4F4",
"X	c #FCFCFEFEFCFC",
"o	c #FCFCFEFE0404",
"O	c #0404FEFE0404",
"+	c #FCFCFAFAF4F4",
"@	c #040482820404",
"#	c #F4F4F6F6F0F0",
"$	c #F4F4F2F2ECEC",
"%	c #FCFC0202FCFC",
"&	c #FCFC02020404",
"*	c #848402028484",
"=	c #ECECF2F2ECEC",
"-	c #BCBCC2C2BCBC",
";	c #B4B4BABAB4B4",
":	c #04040202FCFC",
">	c #7C7C7E7E7474",
"         ..............................        ",
"        XXoOoOoOoOoOoOoOoOoOoOoOoOoOoOX+       ",
"        .oOOOOOOOOOOOOOOOOOOOOOOOOOOOOO.       ",
"        XOOO@@@@@@@@@@@@@@@@@@@@@@@@@O@.       ",
"        #oO@.#.#.#.#.#.#.#.#.#.#.#.$OO@+       ",
"        .OO@#X+X+X+X+X+X+X+X+X+X+X.XoO@.       ",
"        #oO@+.X...................X#OO@.       ",
"        .OO@.X.XXXXXXXXXXXXXXXXXX.X.oO@#X.X..X ",
"        #oO@+.X..%&%&%&%&%&%&%&%&%&%&%&%&%&%&..",
"        XOO@..X.%*%*%*%*%*%*%*%*%*%*%*%*%*%*%&.",
"        #oO@.X..&%****************************.",
"        +OO@#X..%**=................oO@....&%*.",
"        .oO@.X..&%*.................OO@....%**X",
"        .OO@.X..%**.................oO@....&%*.",
"        #oO@.X..&%*..XX.XX.XX.XX.XX.OO@.X..%**.",
" .+.X.X.XOO@#X..%**...X.X.X.X.X.X.X.oO@.X..&%*.",
"..--;--;-;;;;---;;;-----------X.X.X.OO@.X..%**.",
"X-----;--------;---;-;--;-;--;-.X.X.oO@.X..&%*.",
".;-;:::::::::::::::::::::::::-:.X.X#OO@.X..%**.",
".--:.....OO@....%**.........-;:.X.X.oO@.X..&%*.",
".--:.XXX.oO@.XX.&%*.X.XXXXX.--:.X.X#OO@.X..%**.",
".-;:.X..XOO@.+..%**..X...X.X;-:.X.X.oO@#X..&%*.",
".--:.X.X#oO@.X..&%*.X.XX.X..--:.X.X#OO@.X..%**.",
".--:.X.X.OO@.X.X%**..X.X.X.X-;:.X.X.oO@.X..&%*.",
".-;:X.X..oO@X...&%*..X.X.X..--:.X.X#OO@.X..%**.",
".--:.X.X.OO@#X..%**..X.X.X.X-;:.X.X.oO@#X..&%*.",
".-;:.X.X#oO@.X..&%*.X.X.X.X.;-:.X.X#OO@.X..%**.",
".--:.X.X.OO@#X..%**..X.X.X.X--:.X.X.oO@.X..&%*.",
".-;:X.X.#oOoOoOo&%*oOoOoOoOo-;:oOoOoOO@.X..%**.",
".--:.X.X.OOOOOOO%**OOOOOOOOO;-:OOOOOO@@#X..&%*.",
".-;:X.X.+#@@@@@@&%*@@@@@@@@@--:@@@@@@@+.X..%**.",
".--:.X.X.X####..%**.#.#.#.#.;-:#######.X.X.&%*.",
".--:.X.X.X.X+X..&%*.X.+X+XX.-;:X.X+X+X.X...%**.",
".-;:.X.X.X.X.X..%**..X...X.X--:.X...X.X.X..&%*.",
".--:.X.X.X.X.X..&%*...XX.X..-;:X.XX.X.X.X..%**.",
".--:.X.X.X.X.X..%*%&%&%&%&%&--:&%&%&%&%&%&%&%*.",
".-;:.X.X.X.X.X..&%*%*%*%*%*%-;:%*%*%*%*%*%*%**.",
".--:.X.X.X.X.X...&**********;-:**************..",
".-;:X.X.X.X.X.X.............-;:............... ",
".--:.+.X.X.X.X.X............-;:.               ",
".-;:X.X.X.X.X.X.X.X.........;-:X               ",
".--:.X.X.X.X.X.X.X.XXXXXXX.X--:.               ",
".-;:.X.X.X.X.X.X.X.X......X.;-:.               ",
".----------------------------;:.               ",
"..-;-;-;-;-;-;-;-;-;-;--;--;-::.               ",
"..::::::::::::::::::::::::::::..               ",
" X...........................+.                "};
