/* XPM */
static char * xmms_icon8_xpm[] = {
"48 48 248 2",
"  	c #040402020404",
". 	c #262624242424",
"X 	c #696965656767",
"o 	c #898986868585",
"O 	c #89896F6F6F6F",
"+ 	c #B9B975756969",
"@ 	c #B4B47E7E7C7C",
"# 	c #9C9C93939191",
"$ 	c #A6A699999393",
"% 	c #94948A8A8C8C",
"& 	c #6C6C6A6A6868",
"* 	c #4F4F4D4D4C4C",
"= 	c #1B1B1D1D1C1C",
"- 	c #09090B0B0E0E",
"; 	c #A4A486866464",
": 	c #ECEC86864C4C",
"> 	c #D4D4A2A28C8C",
", 	c #CCCC72726C6C",
"< 	c #B4B46A6A6464",
"1 	c #A4A47E7E7C7C",
"2 	c #D4D48E8E5454",
"3 	c #F4F475753333",
"4 	c #EAEA93933E3E",
"5 	c #C8C88E8E4444",
"6 	c #888872726060",
"7 	c #84847E7E7F7F",
"8 	c #7C7C7A7A7C7C",
"9 	c #363634343636",
"0 	c #ACAC02020404",
"q 	c #2F2F02020404",
"w 	c #C8C87A7A4040",
"e 	c #F4F493933737",
"r 	c #A4A47C7C5454",
"t 	c #BCBC3E3E3434",
"y 	c #949444442828",
"u 	c #868679797474",
"i 	c #F4F4BEBE4E4E",
"p 	c #F2F29B9B4242",
"a 	c #F4F483833F3F",
"s 	c #E9E97A7A3C3C",
"d 	c #B4B48E8E5C5C",
"f 	c #767673737373",
"g 	c #B5B50A0A0B0B",
"h 	c #F4F48D8D3131",
"j 	c #F4F4B4B44949",
"k 	c #F8F8BDBD4141",
"l 	c #C4C496963C3C",
"z 	c #767658585656",
"x 	c #848439393434",
"c 	c #6C6C3A3A3C3C",
"v 	c #787855553A3A",
"b 	c #F0F0A8A83C3C",
"n 	c #F4F4AAAA6464",
"m 	c #8E8E8E8E8D8D",
"M 	c #A9A9A3A3A0A0",
"N 	c #999902020404",
"B 	c #898902020404",
"V 	c #EEEE2E2E1A1A",
"C 	c #FCFC2F2F1515",
"Z 	c #FCFCC2C24646",
"A 	c #D4D4A3A34747",
"S 	c #585844442020",
"D 	c #131314141515",
"F 	c #4A4A3B3B3232",
"G 	c #1C1C15151717",
"H 	c #848466663030",
"J 	c #ECECB6B65454",
"K 	c #F0F08C8C4040",
"L 	c #ACACAAAAACAC",
"P 	c #C6C6C5C5C3C3",
"I 	c #565602020404",
"U 	c #484802020404",
"Y 	c #E4E42C2C1F1F",
"T 	c #FCFC3B3B1717",
"R 	c #D4D436361414",
"E 	c #343425251C1C",
"W 	c #848442422424",
"Q 	c #999953533737",
"! 	c #A4A449493737",
"~ 	c #7C7C48482828",
"^ 	c #B4B466664040",
"/ 	c #28281C1C1919",
"( 	c #464632322121",
") 	c #F4F4A9A95151",
"_ 	c #D1D1CCCCCFCF",
"` 	c #555556565454",
"' 	c #BCBC13131212",
"] 	c #F7F723231111",
"[ 	c #FCFC43432525",
"{ 	c #EEEE37371616",
"} 	c #7C7C3E3E1C1C",
"| 	c #94945E5E2C2C",
" .	c #BCBC74744C4C",
"..	c #C8C874744444",
"X.	c #B9B987873737",
"o.	c #B5B5A5A5A0A0",
"O.	c #BBBBB3B3B3B3",
"+.	c #DCDC20201616",
"@.	c #C5C511110C0C",
"#.	c #CCCC1E1E0C0C",
"$.	c #6C6C26262424",
"%.	c #676739392424",
"&.	c #595936362424",
"*.	c #58583D3D2626",
"=.	c #989874744848",
"-.	c #888862624040",
";.	c #37372A2A1F1F",
":.	c #F4F4AEAE4040",
">.	c #ECEC74743434",
",.	c #777767676464",
"<.	c #474745454747",
"1.	c #CCCC19191212",
"2.	c #68684B4B2A2A",
"3.	c #7C7C62623C3C",
"4.	c #88886A6A3838",
"5.	c #74746E6E6F6F",
"6.	c #B4B422222424",
"7.	c #A4A412120C0C",
"8.	c #EAEA83832E2E",
"9.	c #E4E463633434",
"0.	c #C4C417171616",
"q.	c #686804040404",
"w.	c #D4D420201717",
"e.	c #D9D926261717",
"r.	c #D9D919191616",
"t.	c #646442422C2C",
"y.	c #84845A5A2C2C",
"u.	c #E4E456562C2C",
"i.	c #D9D967672929",
"p.	c #949453535151",
"a.	c #C4C488886868",
"s.	c #D4D46E6E4444",
"d.	c #C9C926262424",
"f.	c #5C5C5A5A5656",
"g.	c #64645C5C5D5D",
"h.	c #34342E2E3434",
"j.	c #ACAC7C7C6868",
"k.	c #A8A88E8E8080",
"l.	c #C9C91F1F2020",
"z.	c #94947E7E7C7C",
"x.	c #F0F03C3C3434",
"c.	c #D9D925252525",
"v.	c #B4B42E2E3434",
"b.	c #8C8C4E4E2C2C",
"n.	c #88884E4E4444",
"m.	c #888844444040",
"M.	c #A4A474746868",
"N.	c #2C2C2D2D2C2C",
"B.	c #7C7C3A3A3C3C",
"V.	c #74744E4E4C4C",
"C.	c #E2E22F2F3030",
"Z.	c #7C7C6E6E8484",
"A.	c #6C6C4A4A4444",
"S.	c #8C8C1A1A1818",
"D.	c #3C3C3A3A3D3D",
"F.	c #848466666464",
"G.	c #DCDC2C2C2020",
"H.	c #E6E624241919",
"J.	c #545446464C4C",
"K.	c #E4E46E6E3434",
"L.	c #B8B81E1E1C1C",
"P.	c #BCBC56563C3C",
"I.	c #F8F8D0D06060",
"U.	c #646462625C5C",
"Y.	c #D4D462626060",
"T.	c #CCCC4A4A4C4C",
"R.	c #DCDC52524C4C",
"E.	c #E4E46D6D6464",
"W.	c #CCCC32323434",
"Q.	c #A4A436363434",
"!.	c #C8C859595858",
"~.	c #ECECA2A28484",
"^.	c #E4E492927474",
"/.	c #FCFCFEFEFCFC",
"(.	c #E5E5E4E4E5E5",
").	c #F4F4B2B28C8C",
"_.	c #FCFCF4F4ECEC",
"`.	c #DCDC7E7E7C7C",
"'.	c #F2F2B4B4B0B0",
"].	c #FBFBE6E6E4E4",
"[.	c #FCFCBBBBB2B2",
"{.	c #FCFCDEDECCCC",
"}.	c #FCFCDEDE8888",
"|.	c #F2F2BBBBB6B6",
" X	c #E4E442423C3C",
".X	c #E8E88C8C7C7C",
"XX	c #B6B695958484",
"oX	c #F4F4CCCCC8C8",
"OX	c #F4F4DADAB4B4",
"+X	c #EFEFADAD8F8F",
"@X	c #EFEF97976161",
"#X	c #FAFACECE4C4C",
"$X	c #E4E4CECEACAC",
"%X	c #ECEC75756C6C",
"&X	c #A9A953532C2C",
"*X	c #B7B786866161",
"=X	c #F8F8E2E2B8B8",
"-X	c #F4F4BEBE7474",
";X	c #ECEC90906060",
":X	c #E4E47A7A5454",
">X	c #F4F49E9E5F5F",
",X	c #DCDCBEBE8C8C",
"<X	c #999969695151",
"1X	c #E4E4C6C67C7C",
"2X	c #ECECBEBE7C7C",
"3X	c #ACAC9E9E9797",
"4X	c #D8D8A8A86060",
"5X	c #CCCCAEAE9494",
"6X	c #C4C448483838",
"7X	c #F7F751513737",
"8X	c #DCDCB4B44C4C",
"9X	c #BCBCBABAB4B4",
"0X	c #F4F476766464",
"qX	c #F4F4C4C48080",
"wX	c #E4E4AAAAACAC",
"eX	c #F4F4A4A46666",
"rX	c #FCFCD6D65C5C",
"tX	c #ECEC9A9A7474",
"yX	c #ECECD2D2C4C4",
"uX	c #FCFCECECE0E0",
"iX	c #F4F4C2C2ACAC",
"pX	c #D8D8BEBEB0B0",
"aX	c #FCFC3E3E2C2C",
"sX	c #FCFCEEEEC4C4",
"dX	c #CCCC86865454",
"fX	c #D4D4B2B28C8C",
"gX	c #C4C4A6A6A0A0",
"hX	c #D4D45A5A5C5C",
"jX	c #FCFC62625454",
"kX	c #F4F46A6A6464",
"lX	c #BCBC7C7C4848",
"zX	c #C4C45A5A1C1C",
"xX	c #F8F8C4C45858",
"cX	c #C4C496967474",
"vX	c #9C9C5C5C5858",
"bX	c #A4A486867474",
"nX	c #C4C47E7E5C5C",
"mX	c #DCDCC6C69C9C",
"MX	c #B9B98F8F4141",
"NX	c #DCDCB4B46868",
"BX	c #C4C49E9E8C8C",
"VX	c #B8B886867878",
"CX	c #181804040808",
"ZX	c #DCDC8E8E3434",
"AX	c #3C3C32321C1C",
"SX	c #B8B8ACACAEAE",
"DX	c #787806060808",
"FX	c #C4C4BABABCBC",
"                                                                                                ",
"                                                                                                ",
"                                  . X o O + + @ # $ % & * =                                     ",
"                                - ; : > @ , < 1 2 3 4 5 6 7 8 9                                 ",
"          0 0 0 0 0 0 0 0 0 q = w 3 e r 1 t y u i p a s 4 d o # f                 0 0 0         ",
"          q 0 0 0 0 0 0 0 0 g s h j k l z x c v b k k n s e d m M m             N 0 0           ",
"            B 0 0 0 0 0 0 0 V C Z A S D F F F = G H J Z j a K r L P o         I 0 0 U           ",
"              0 N 0 0 0 0 Y C T R G E W Q ! ~ ^ v / ( A Z ) 3 4 6 _ _ `       0 0 N             ",
"                0 0 0 0 ' ] [ { g } | y ! Q ^  ...Q . E A Z p 3 X.o._ O.-   0 0 0               ",
"                q 0 0 0 +.T T ' @.#.$.x %.$.&.%.*.=.-.;.S i :.>.e ,.O.L <.N 0 0                 ",
"                  B 0 0 ] T Y g C 1.@./ - - D *.2.( 3.-.D X.k 3 >.4.5.& 6.0 0                   ",
"                    0 g C T 1.#.{ Y @.7.G G ;.v =.3.D - D 2.j 8.9.w . $.0.0 q.                  ",
"                      1.] C g w.Y +.e.r.W 2.~ t.*.y.( / / / b a u.i.G g ' N                     ",
"                      p.V C g g @.@.@.@.g &.F &.&.*.*.*.( D 4 8.a.s.g g '                       ",
"                      % d.Y 0.e.g g g g ' 1.f.G = G D 9 g.h.j.k.# l.@.l.<.                      ",
"                      z.p.r.' x.w.+.@.r.+.c.v.b.n.t.m.M.# N.p.B.d.r.' V.X                       ",
"                      O n.p.l.C.r.c.c.r.w.c.r.y z Z.A.j.o u ,.x +.c.S.D.,.                      ",
"                      $ F.O B.C.1.c.G.+.+.c.c.H.z z n.@ f X n.r.r.r.J.` .                       ",
"                      ` K.j 9 L.0 0 g g 0.c.l.g ' . = g.f.N.Y V H.P.G G =                       ",
"    = ` ` 9   ` ` ` ` X : I.U.X Y.T.@.1.e.R.E.E.W.Q.7 8 f.!.V T ~.^.,.U.9         & L L L L L L ",
"    ` /././.m /./././.(.)._././././.`.+.H.'././.'.]././././.[.)./././././.=     P /././././././.",
"    m /././././././././._./././././.].c.c.]./././././././././._./././././.m   m /./.(.m ` ` ` D.",
"    P /./.L D.= % /././.{.}.& (././.|.Y  X/././..XXXu oX/././.OX).+X/././.`   (././.f           ",
"    /././.9     ` /././.@X#X. _ /./.$XY %X/./.].&X*XV [././.=X-X;X:X/././.9   /././.&           ",
"  ` /././.      L /./._ >X#XE /././.,X<X|././.|.*XG.V /././.1X2X;X~./././.  ` /./././.L m 9     ",
"  m /./.L       P /./.3X>X#X& /././.4Xj.]././.5X6XY 7X/././.8X2X@XoX/./.O.    (././././././.L   ",
"  P /./.f       /././.7 >X#X9X/./._.X. X/././.a.C.Y 0X/./.].{ qX@X/././.7       f L /././././.` ",
"  /././.`     ` /././.f.>X#X(././.=XG.0X/././.C.V c.[././.wX{ 9.+X/././.*             m /././.` ",
"` /././.      m /./.L f.eXrX/././.tXV '././.yXY H.Y uX/./.!.{ x.iX/././.=             9 /././.D.",
"m /./.P       P /./.f g.eX}./././.7XV ]././.pX6XV  X/././.L.{ aX[././._ = `           L /././.  ",
"P /./.m       /././.9 f.n sX/./.uX[ 7X/././.k.dXC.%X/./.].0 { [ /././.# 9 /.L L L P /./././.m   ",
"/././.`     ` /././.  g.) sX/./.[.{ fX/././.i.M.,.'././.'.0 { aX/././.X & /./././././././.L     ",
"D.` ` D.      ` ` ` = f.) I.Y.!.0X4XA pXgX^.4 + XX*X0XE.hX0 { [ jXkXhX* D.` ` ` ` ` ` f.=       ",
"                      ` lXzXg g i.xX8XcX<XvX! bXnXmX9.T 1.0 { [ V ] @.g D                       ",
"                      X <.0 0 0 MXi #XNXBXVXBXgX+ NXxXT g 0 1.w.+.g 0 g g                       ",
"                      f 0.0 0   ( i i i 5 a.$ nX2 j i MX0 0 0 g ' 0 g ' g I                     ",
"                      l.0.0 D   - H j :.p s M.K.4 :.:.E - 0 0 g g g 0 g ' 0                     ",
"                    B c.' CX- - D.D ~ 8.a ..X.3 h ZXAX  - q.0 g g 0 g g g 0 0                   ",
"                  U 0 d.S.- - 8 SX& - E } vX*X&X%.D   - - - 0 g g g 0 g g 0 0 N                 ",
"                  0 0 l.D.- - & L &     - U.X - - - - - - - - g 0 g 0 ' 0.0 0 0 U               ",
"                0 0 0 f.N.- - - 9 D - - - <.* - - - - - - - - D g 0 g ' l.0 0 0 0               ",
"              N 0 0   ` N.- - -     - -   -   -   - - - D - D D DX0 g l.0.0 0 0 0 0             ",
"            DX0 0 q   . P # 3X$ % o 8 f X g.` * * F 9 N.= D - - = 0 L.l.g 0 0 0 0 0 N           ",
"          q 0 0 DX    . pX$ SX$ % $ # $ o.o.o.3X3X$ 3XM M $ $ L SX* l.0.0 0 0 0 0 0 0 U         ",
"          0 0 N       D O.o.o.9         - . N.<.f.U.& 8 7 # 3XFXSX` z 0 0 0 N 0 0 0 0 0         ",
"                          = D                             ,.$ SXSXX -                           ",
"                                                            N.* F -                             ",
"                                                                                                "};
