/* XPM */
static char * window_xpm[] = {
"14 14 5 1",
" 	c None",
"O	c black",
"=	c navy",
"&	c gray30",
".      c white",
"              ",
"OOOOOOOOOOOOOO",
"O============O",
"O.O======O.O.O",
"O============O",
"O............O",
"O............O",
"O............O",
"O............O",
"O............O",
"O............O",
"O............O",
"OOOOOOOOOOOOOO",
"              ",
};
